STARTFONT 2.1
COMMENT
COMMENT Converted from OpenType font "NotoSans-Regular.ttf" by "otf2bdf 3.0".
COMMENT
FONT -FreeType-Noto Sans-Medium-R-Normal--12-120-75-75-P-65-ISO10646-1
SIZE 12 75 75
FONTBOUNDINGBOX 43 19 -8 -5
STARTPROPERTIES 19
FOUNDRY "FreeType"
FAMILY_NAME "Noto Sans"
WEIGHT_NAME "Medium"
SLANT "R"
SETWIDTH_NAME "Normal"
ADD_STYLE_NAME ""
PIXEL_SIZE 12
POINT_SIZE 120
RESOLUTION_X 75
RESOLUTION_Y 75
SPACING "P"
AVERAGE_WIDTH 65
CHARSET_REGISTRY "ISO10646"
CHARSET_ENCODING "1"
FONT_ASCENT 13
FONT_DESCENT 3
COPYRIGHT "Copyright 2015 Google LLC. All Rights Reserved."
_OTF_FONTFILE "NotoSans-Regular.ttf"
_OTF_PSNAME "NotoSans-Regular"
ENDPROPERTIES
CHARS 2840
STARTCHAR 0000
ENCODING 0
SWIDTH 0 0
DWIDTH 0 0
BBX 0 0 0 0
BITMAP
ENDCHAR
STARTCHAR 000D
ENCODING 13
SWIDTH 240 0
DWIDTH 3 0
BBX 0 0 0 0
BITMAP
ENDCHAR
STARTCHAR 0020
ENCODING 32
SWIDTH 240 0
DWIDTH 3 0
BBX 0 0 0 0
BITMAP
ENDCHAR
STARTCHAR 0021
ENCODING 33
SWIDTH 240 0
DWIDTH 3 0
BBX 1 9 1 0
BITMAP
80
80
80
80
80
80
00
80
80
ENDCHAR
STARTCHAR 0022
ENCODING 34
SWIDTH 400 0
DWIDTH 5 0
BBX 3 3 1 6
BITMAP
A0
A0
A0
ENDCHAR
STARTCHAR 0023
ENCODING 35
SWIDTH 640 0
DWIDTH 8 0
BBX 8 9 0 0
BITMAP
12
14
7F
24
24
FE
28
28
48
ENDCHAR
STARTCHAR 0024
ENCODING 36
SWIDTH 560 0
DWIDTH 7 0
BBX 5 10 1 0
BITMAP
20
78
A8
A0
E0
38
28
A8
F0
20
ENDCHAR
STARTCHAR 0025
ENCODING 37
SWIDTH 800 0
DWIDTH 10 0
BBX 9 9 1 0
BITMAP
E200
A400
A400
AB00
AC80
F480
1480
2480
4300
ENDCHAR
STARTCHAR 0026
ENCODING 38
SWIDTH 720 0
DWIDTH 9 0
BBX 8 9 1 0
BITMAP
70
C8
48
70
F3
9A
8E
8E
7B
ENDCHAR
STARTCHAR 0027
ENCODING 39
SWIDTH 240 0
DWIDTH 3 0
BBX 1 3 1 6
BITMAP
80
80
80
ENDCHAR
STARTCHAR 0028
ENCODING 40
SWIDTH 320 0
DWIDTH 4 0
BBX 3 11 0 -2
BITMAP
20
40
40
40
40
C0
40
40
40
40
20
ENDCHAR
STARTCHAR 0029
ENCODING 41
SWIDTH 320 0
DWIDTH 4 0
BBX 3 11 0 -2
BITMAP
C0
40
20
20
20
20
20
20
20
40
C0
ENDCHAR
STARTCHAR 002A
ENCODING 42
SWIDTH 560 0
DWIDTH 7 0
BBX 5 6 1 4
BITMAP
20
20
F8
20
50
D8
ENDCHAR
STARTCHAR 002B
ENCODING 43
SWIDTH 560 0
DWIDTH 7 0
BBX 6 6 1 1
BITMAP
20
20
FC
20
20
20
ENDCHAR
STARTCHAR 002C
ENCODING 44
SWIDTH 240 0
DWIDTH 3 0
BBX 1 3 1 -2
BITMAP
80
80
80
ENDCHAR
STARTCHAR 002D
ENCODING 45
SWIDTH 320 0
DWIDTH 4 0
BBX 4 1 0 3
BITMAP
F0
ENDCHAR
STARTCHAR 002E
ENCODING 46
SWIDTH 240 0
DWIDTH 3 0
BBX 1 2 1 0
BITMAP
80
80
ENDCHAR
STARTCHAR 002F
ENCODING 47
SWIDTH 400 0
DWIDTH 5 0
BBX 5 9 0 0
BITMAP
18
10
10
20
20
40
40
40
80
ENDCHAR
STARTCHAR 0030
ENCODING 48
SWIDTH 560 0
DWIDTH 7 0
BBX 6 9 1 0
BITMAP
70
88
88
88
8C
88
88
88
70
ENDCHAR
STARTCHAR 0031
ENCODING 49
SWIDTH 560 0
DWIDTH 7 0
BBX 3 9 1 0
BITMAP
20
60
A0
20
20
20
20
20
20
ENDCHAR
STARTCHAR 0032
ENCODING 50
SWIDTH 560 0
DWIDTH 7 0
BBX 6 9 1 0
BITMAP
70
88
08
08
10
30
60
C0
FC
ENDCHAR
STARTCHAR 0033
ENCODING 51
SWIDTH 560 0
DWIDTH 7 0
BBX 5 9 1 0
BITMAP
F0
88
08
08
70
08
08
08
F0
ENDCHAR
STARTCHAR 0034
ENCODING 52
SWIDTH 560 0
DWIDTH 7 0
BBX 7 9 0 0
BITMAP
0C
14
14
24
44
44
FE
04
04
ENDCHAR
STARTCHAR 0035
ENCODING 53
SWIDTH 560 0
DWIDTH 7 0
BBX 5 9 1 0
BITMAP
F8
80
80
F0
08
08
08
88
F0
ENDCHAR
STARTCHAR 0036
ENCODING 54
SWIDTH 560 0
DWIDTH 7 0
BBX 6 9 1 0
BITMAP
38
40
80
F8
88
8C
8C
88
70
ENDCHAR
STARTCHAR 0037
ENCODING 55
SWIDTH 560 0
DWIDTH 7 0
BBX 6 9 1 0
BITMAP
FC
08
08
10
10
20
20
60
40
ENDCHAR
STARTCHAR 0038
ENCODING 56
SWIDTH 560 0
DWIDTH 7 0
BBX 6 9 1 0
BITMAP
70
88
88
D8
70
88
8C
88
78
ENDCHAR
STARTCHAR 0039
ENCODING 57
SWIDTH 560 0
DWIDTH 7 0
BBX 6 9 1 0
BITMAP
70
88
88
8C
88
78
08
18
F0
ENDCHAR
STARTCHAR 003A
ENCODING 58
SWIDTH 240 0
DWIDTH 3 0
BBX 1 7 1 0
BITMAP
80
80
00
00
00
80
80
ENDCHAR
STARTCHAR 003B
ENCODING 59
SWIDTH 240 0
DWIDTH 3 0
BBX 2 9 0 -2
BITMAP
40
40
00
00
00
00
40
40
80
ENDCHAR
STARTCHAR 003C
ENCODING 60
SWIDTH 560 0
DWIDTH 7 0
BBX 6 7 1 1
BITMAP
04
18
60
80
60
18
04
ENDCHAR
STARTCHAR 003D
ENCODING 61
SWIDTH 560 0
DWIDTH 7 0
BBX 5 4 1 3
BITMAP
F8
00
00
F8
ENDCHAR
STARTCHAR 003E
ENCODING 62
SWIDTH 560 0
DWIDTH 7 0
BBX 6 7 1 1
BITMAP
80
C0
30
0C
30
C0
80
ENDCHAR
STARTCHAR 003F
ENCODING 63
SWIDTH 400 0
DWIDTH 5 0
BBX 5 9 0 0
BITMAP
F0
08
08
18
20
20
00
20
60
ENDCHAR
STARTCHAR 0040
ENCODING 64
SWIDTH 880 0
DWIDTH 11 0
BBX 10 10 1 -1
BITMAP
1E00
6180
9E80
B240
A240
A680
9B80
8000
4200
3E00
ENDCHAR
STARTCHAR 0041
ENCODING 65
SWIDTH 640 0
DWIDTH 8 0
BBX 8 9 0 0
BITMAP
18
18
18
24
24
7E
42
42
81
ENDCHAR
STARTCHAR 0042
ENCODING 66
SWIDTH 640 0
DWIDTH 8 0
BBX 6 9 1 0
BITMAP
F8
84
84
84
F8
84
84
84
F8
ENDCHAR
STARTCHAR 0043
ENCODING 67
SWIDTH 640 0
DWIDTH 8 0
BBX 7 9 1 0
BITMAP
3E
40
80
80
80
80
80
40
3C
ENDCHAR
STARTCHAR 0044
ENCODING 68
SWIDTH 720 0
DWIDTH 9 0
BBX 7 9 1 0
BITMAP
F8
84
82
82
82
82
82
84
F8
ENDCHAR
STARTCHAR 0045
ENCODING 69
SWIDTH 560 0
DWIDTH 7 0
BBX 5 9 1 0
BITMAP
F8
80
80
80
F8
80
80
80
F8
ENDCHAR
STARTCHAR 0046
ENCODING 70
SWIDTH 480 0
DWIDTH 6 0
BBX 5 9 1 0
BITMAP
F8
80
80
80
F8
80
80
80
80
ENDCHAR
STARTCHAR 0047
ENCODING 71
SWIDTH 720 0
DWIDTH 9 0
BBX 7 9 1 0
BITMAP
3E
40
80
80
8E
82
82
42
3E
ENDCHAR
STARTCHAR 0048
ENCODING 72
SWIDTH 720 0
DWIDTH 9 0
BBX 7 9 1 0
BITMAP
82
82
82
82
FE
82
82
82
82
ENDCHAR
STARTCHAR 0049
ENCODING 73
SWIDTH 320 0
DWIDTH 4 0
BBX 4 9 0 0
BITMAP
F0
20
20
20
20
20
20
20
F0
ENDCHAR
STARTCHAR 004A
ENCODING 74
SWIDTH 240 0
DWIDTH 3 0
BBX 3 12 -1 -3
BITMAP
20
20
20
20
20
20
20
20
20
20
20
C0
ENDCHAR
STARTCHAR 004B
ENCODING 75
SWIDTH 640 0
DWIDTH 8 0
BBX 7 9 1 0
BITMAP
86
88
90
A0
E0
90
88
8C
86
ENDCHAR
STARTCHAR 004C
ENCODING 76
SWIDTH 560 0
DWIDTH 7 0
BBX 5 9 1 0
BITMAP
80
80
80
80
80
80
80
80
F8
ENDCHAR
STARTCHAR 004D
ENCODING 77
SWIDTH 880 0
DWIDTH 11 0
BBX 9 9 1 0
BITMAP
C180
C180
A180
A280
B280
9480
9480
8C80
8880
ENDCHAR
STARTCHAR 004E
ENCODING 78
SWIDTH 800 0
DWIDTH 10 0
BBX 7 9 1 0
BITMAP
C2
C2
A2
B2
92
8A
8E
86
82
ENDCHAR
STARTCHAR 004F
ENCODING 79
SWIDTH 800 0
DWIDTH 10 0
BBX 8 9 1 0
BITMAP
3C
42
83
81
81
81
83
42
3C
ENDCHAR
STARTCHAR 0050
ENCODING 80
SWIDTH 640 0
DWIDTH 8 0
BBX 6 9 1 0
BITMAP
F8
8C
84
8C
F8
80
80
80
80
ENDCHAR
STARTCHAR 0051
ENCODING 81
SWIDTH 800 0
DWIDTH 10 0
BBX 8 11 1 -2
BITMAP
3C
42
83
81
81
81
83
42
3C
04
03
ENDCHAR
STARTCHAR 0052
ENCODING 82
SWIDTH 640 0
DWIDTH 8 0
BBX 7 9 1 0
BITMAP
F8
8C
84
8C
F8
98
88
8C
86
ENDCHAR
STARTCHAR 0053
ENCODING 83
SWIDTH 560 0
DWIDTH 7 0
BBX 5 9 1 0
BITMAP
78
80
80
C0
70
08
08
08
F0
ENDCHAR
STARTCHAR 0054
ENCODING 84
SWIDTH 560 0
DWIDTH 7 0
BBX 7 9 0 0
BITMAP
FE
10
10
10
10
10
10
10
10
ENDCHAR
STARTCHAR 0055
ENCODING 85
SWIDTH 720 0
DWIDTH 9 0
BBX 7 9 1 0
BITMAP
82
82
82
82
82
82
82
46
7C
ENDCHAR
STARTCHAR 0056
ENCODING 86
SWIDTH 640 0
DWIDTH 8 0
BBX 8 9 0 0
BITMAP
83
42
46
44
24
2C
28
18
10
ENDCHAR
STARTCHAR 0057
ENCODING 87
SWIDTH 960 0
DWIDTH 12 0
BBX 11 9 0 0
BITMAP
8420
4620
4E20
4A60
4940
2940
3140
3080
3080
ENDCHAR
STARTCHAR 0058
ENCODING 88
SWIDTH 560 0
DWIDTH 7 0
BBX 7 9 0 0
BITMAP
C2
44
28
38
10
28
2C
44
C2
ENDCHAR
STARTCHAR 0059
ENCODING 89
SWIDTH 560 0
DWIDTH 7 0
BBX 7 9 0 0
BITMAP
82
44
64
28
38
10
10
10
10
ENDCHAR
STARTCHAR 005A
ENCODING 90
SWIDTH 560 0
DWIDTH 7 0
BBX 7 9 0 0
BITMAP
7E
04
08
08
10
20
20
40
FE
ENDCHAR
STARTCHAR 005B
ENCODING 91
SWIDTH 320 0
DWIDTH 4 0
BBX 3 11 1 -2
BITMAP
E0
80
80
80
80
80
80
80
80
80
E0
ENDCHAR
STARTCHAR 005C
ENCODING 92
SWIDTH 400 0
DWIDTH 5 0
BBX 5 9 0 0
BITMAP
80
40
40
40
20
20
10
10
18
ENDCHAR
STARTCHAR 005D
ENCODING 93
SWIDTH 320 0
DWIDTH 4 0
BBX 3 11 0 -2
BITMAP
E0
20
20
20
20
20
20
20
20
20
E0
ENDCHAR
STARTCHAR 005E
ENCODING 94
SWIDTH 560 0
DWIDTH 7 0
BBX 7 6 0 3
BITMAP
10
28
28
28
44
C6
ENDCHAR
STARTCHAR 005F
ENCODING 95
SWIDTH 480 0
DWIDTH 6 0
BBX 6 1 0 -2
BITMAP
FC
ENDCHAR
STARTCHAR 0060
ENCODING 96
SWIDTH 320 0
DWIDTH 4 0
BBX 3 2 0 8
BITMAP
C0
20
ENDCHAR
STARTCHAR 0061
ENCODING 97
SWIDTH 560 0
DWIDTH 7 0
BBX 5 7 1 0
BITMAP
F0
08
08
F8
88
98
E8
ENDCHAR
STARTCHAR 0062
ENCODING 98
SWIDTH 640 0
DWIDTH 8 0
BBX 6 10 1 0
BITMAP
80
80
80
B8
CC
84
84
84
CC
B8
ENDCHAR
STARTCHAR 0063
ENCODING 99
SWIDTH 480 0
DWIDTH 6 0
BBX 5 7 1 0
BITMAP
78
80
80
80
80
80
70
ENDCHAR
STARTCHAR 0064
ENCODING 100
SWIDTH 640 0
DWIDTH 8 0
BBX 6 10 1 0
BITMAP
04
04
04
74
8C
8C
84
8C
8C
74
ENDCHAR
STARTCHAR 0065
ENCODING 101
SWIDTH 560 0
DWIDTH 7 0
BBX 5 7 1 0
BITMAP
70
88
88
F8
80
80
78
ENDCHAR
STARTCHAR 0066
ENCODING 102
SWIDTH 320 0
DWIDTH 4 0
BBX 5 10 0 0
BITMAP
38
60
40
F0
40
40
40
40
40
40
ENDCHAR
STARTCHAR 0067
ENCODING 103
SWIDTH 640 0
DWIDTH 8 0
BBX 6 10 1 -3
BITMAP
74
8C
8C
84
8C
8C
74
04
08
F8
ENDCHAR
STARTCHAR 0068
ENCODING 104
SWIDTH 640 0
DWIDTH 8 0
BBX 6 10 1 0
BITMAP
80
80
80
B8
CC
84
84
84
84
84
ENDCHAR
STARTCHAR 0069
ENCODING 105
SWIDTH 240 0
DWIDTH 3 0
BBX 1 10 1 0
BITMAP
80
00
00
80
80
80
80
80
80
80
ENDCHAR
STARTCHAR 006A
ENCODING 106
SWIDTH 240 0
DWIDTH 3 0
BBX 3 13 -1 -3
BITMAP
20
00
00
20
20
20
20
20
20
20
20
20
E0
ENDCHAR
STARTCHAR 006B
ENCODING 107
SWIDTH 560 0
DWIDTH 7 0
BBX 6 10 1 0
BITMAP
80
80
80
88
90
A0
E0
B0
90
8C
ENDCHAR
STARTCHAR 006C
ENCODING 108
SWIDTH 240 0
DWIDTH 3 0
BBX 1 10 1 0
BITMAP
80
80
80
80
80
80
80
80
80
80
ENDCHAR
STARTCHAR 006D
ENCODING 109
SWIDTH 960 0
DWIDTH 12 0
BBX 10 7 1 0
BITMAP
BB80
CCC0
8840
8840
8840
8840
8840
ENDCHAR
STARTCHAR 006E
ENCODING 110
SWIDTH 640 0
DWIDTH 8 0
BBX 6 7 1 0
BITMAP
B8
CC
84
84
84
84
84
ENDCHAR
STARTCHAR 006F
ENCODING 111
SWIDTH 640 0
DWIDTH 8 0
BBX 6 7 1 0
BITMAP
78
88
84
84
84
88
78
ENDCHAR
STARTCHAR 0070
ENCODING 112
SWIDTH 640 0
DWIDTH 8 0
BBX 6 10 1 -3
BITMAP
B8
CC
84
84
84
CC
B8
80
80
80
ENDCHAR
STARTCHAR 0071
ENCODING 113
SWIDTH 640 0
DWIDTH 8 0
BBX 6 10 1 -3
BITMAP
74
8C
8C
84
8C
8C
74
04
04
04
ENDCHAR
STARTCHAR 0072
ENCODING 114
SWIDTH 400 0
DWIDTH 5 0
BBX 4 7 1 0
BITMAP
B0
C0
80
80
80
80
80
ENDCHAR
STARTCHAR 0073
ENCODING 115
SWIDTH 480 0
DWIDTH 6 0
BBX 4 7 1 0
BITMAP
F0
80
80
60
10
10
F0
ENDCHAR
STARTCHAR 0074
ENCODING 116
SWIDTH 400 0
DWIDTH 5 0
BBX 4 9 0 0
BITMAP
40
40
F0
40
40
40
40
40
30
ENDCHAR
STARTCHAR 0075
ENCODING 117
SWIDTH 640 0
DWIDTH 8 0
BBX 6 7 1 0
BITMAP
84
84
84
84
8C
8C
74
ENDCHAR
STARTCHAR 0076
ENCODING 118
SWIDTH 480 0
DWIDTH 6 0
BBX 6 7 0 0
BITMAP
84
44
48
48
28
30
30
ENDCHAR
STARTCHAR 0077
ENCODING 119
SWIDTH 800 0
DWIDTH 10 0
BBX 10 7 0 0
BITMAP
8CC0
4C80
4C80
5280
5300
3300
2300
ENDCHAR
STARTCHAR 0078
ENCODING 120
SWIDTH 560 0
DWIDTH 7 0
BBX 6 7 0 0
BITMAP
C4
68
38
10
38
48
C4
ENDCHAR
STARTCHAR 0079
ENCODING 121
SWIDTH 480 0
DWIDTH 6 0
BBX 6 10 0 -3
BITMAP
84
44
48
48
28
30
10
10
20
E0
ENDCHAR
STARTCHAR 007A
ENCODING 122
SWIDTH 480 0
DWIDTH 6 0
BBX 5 7 0 0
BITMAP
78
08
10
30
20
40
F8
ENDCHAR
STARTCHAR 007B
ENCODING 123
SWIDTH 400 0
DWIDTH 5 0
BBX 4 11 0 -2
BITMAP
10
20
20
20
20
C0
20
20
20
20
10
ENDCHAR
STARTCHAR 007C
ENCODING 124
SWIDTH 560 0
DWIDTH 7 0
BBX 1 13 3 -3
BITMAP
80
80
80
80
80
80
80
80
80
80
80
80
80
ENDCHAR
STARTCHAR 007D
ENCODING 125
SWIDTH 400 0
DWIDTH 5 0
BBX 4 11 0 -2
BITMAP
C0
20
20
20
20
10
20
20
20
20
C0
ENDCHAR
STARTCHAR 007E
ENCODING 126
SWIDTH 560 0
DWIDTH 7 0
BBX 6 2 1 4
BITMAP
E4
98
ENDCHAR
STARTCHAR 00A0
ENCODING 160
SWIDTH 240 0
DWIDTH 3 0
BBX 0 0 0 0
BITMAP
ENDCHAR
STARTCHAR 00A1
ENCODING 161
SWIDTH 240 0
DWIDTH 3 0
BBX 1 10 1 -3
BITMAP
80
80
00
80
80
80
80
80
80
80
ENDCHAR
STARTCHAR 00A2
ENCODING 162
SWIDTH 560 0
DWIDTH 7 0
BBX 5 9 1 0
BITMAP
20
78
40
80
80
80
40
78
20
ENDCHAR
STARTCHAR 00A3
ENCODING 163
SWIDTH 560 0
DWIDTH 7 0
BBX 7 9 0 0
BITMAP
3C
20
20
20
F8
20
20
40
FE
ENDCHAR
STARTCHAR 00A4
ENCODING 164
SWIDTH 560 0
DWIDTH 7 0
BBX 5 5 1 2
BITMAP
F8
88
88
88
F8
ENDCHAR
STARTCHAR 00A5
ENCODING 165
SWIDTH 560 0
DWIDTH 7 0
BBX 7 9 0 0
BITMAP
C2
44
64
28
38
7C
7C
10
10
ENDCHAR
STARTCHAR 00A6
ENCODING 166
SWIDTH 560 0
DWIDTH 7 0
BBX 1 13 3 -3
BITMAP
80
80
80
80
80
00
00
00
80
80
80
80
80
ENDCHAR
STARTCHAR 00A7
ENCODING 167
SWIDTH 480 0
DWIDTH 6 0
BBX 5 10 1 0
BITMAP
F0
80
C0
F0
98
88
70
10
18
F0
ENDCHAR
STARTCHAR 00A8
ENCODING 168
SWIDTH 560 0
DWIDTH 7 0
BBX 3 1 2 8
BITMAP
A0
ENDCHAR
STARTCHAR 00A9
ENCODING 169
SWIDTH 800 0
DWIDTH 10 0
BBX 9 10 1 0
BITMAP
3C00
4300
9D00
A080
A080
A080
A080
9D00
4300
3C00
ENDCHAR
STARTCHAR 00AA
ENCODING 170
SWIDTH 320 0
DWIDTH 4 0
BBX 4 4 0 5
BITMAP
70
70
90
70
ENDCHAR
STARTCHAR 00AB
ENCODING 171
SWIDTH 480 0
DWIDTH 6 0
BBX 6 5 0 1
BITMAP
24
68
D0
48
2C
ENDCHAR
STARTCHAR 00AC
ENCODING 172
SWIDTH 560 0
DWIDTH 7 0
BBX 6 3 1 2
BITMAP
FC
04
04
ENDCHAR
STARTCHAR 00AD
ENCODING 173
SWIDTH 320 0
DWIDTH 4 0
BBX 4 1 0 3
BITMAP
F0
ENDCHAR
STARTCHAR 00AE
ENCODING 174
SWIDTH 800 0
DWIDTH 10 0
BBX 9 10 1 0
BITMAP
3C00
4300
BD00
A480
A480
B880
A480
A500
4300
3C00
ENDCHAR
STARTCHAR 00AF
ENCODING 175
SWIDTH 480 0
DWIDTH 6 0
BBX 6 1 0 10
BITMAP
FC
ENDCHAR
STARTCHAR 00B0
ENCODING 176
SWIDTH 400 0
DWIDTH 5 0
BBX 4 4 1 5
BITMAP
E0
90
90
E0
ENDCHAR
STARTCHAR 00B1
ENCODING 177
SWIDTH 560 0
DWIDTH 7 0
BBX 6 8 1 0
BITMAP
20
20
20
FC
20
20
00
FC
ENDCHAR
STARTCHAR 00B2
ENCODING 178
SWIDTH 320 0
DWIDTH 4 0
BBX 4 6 0 5
BITMAP
E0
10
10
20
40
F0
ENDCHAR
STARTCHAR 00B3
ENCODING 179
SWIDTH 320 0
DWIDTH 4 0
BBX 4 6 0 5
BITMAP
60
90
10
60
10
F0
ENDCHAR
STARTCHAR 00B4
ENCODING 180
SWIDTH 320 0
DWIDTH 4 0
BBX 3 2 0 8
BITMAP
60
C0
ENDCHAR
STARTCHAR 00B5
ENCODING 181
SWIDTH 640 0
DWIDTH 8 0
BBX 6 10 1 -3
BITMAP
84
84
84
84
84
8C
F4
80
80
80
ENDCHAR
STARTCHAR 00B6
ENCODING 182
SWIDTH 640 0
DWIDTH 8 0
BBX 6 11 1 -1
BITMAP
7C
F4
F4
F4
F4
F4
14
14
14
14
14
ENDCHAR
STARTCHAR 00B7
ENCODING 183
SWIDTH 240 0
DWIDTH 3 0
BBX 1 2 1 4
BITMAP
80
80
ENDCHAR
STARTCHAR 00B8
ENCODING 184
SWIDTH 240 0
DWIDTH 3 0
BBX 3 3 0 -3
BITMAP
40
20
C0
ENDCHAR
STARTCHAR 00B9
ENCODING 185
SWIDTH 320 0
DWIDTH 4 0
BBX 3 5 0 5
BITMAP
60
A0
20
20
20
ENDCHAR
STARTCHAR 00BA
ENCODING 186
SWIDTH 400 0
DWIDTH 5 0
BBX 4 5 0 4
BITMAP
70
90
90
90
60
ENDCHAR
STARTCHAR 00BB
ENCODING 187
SWIDTH 480 0
DWIDTH 6 0
BBX 6 5 0 1
BITMAP
D0
48
24
28
D0
ENDCHAR
STARTCHAR 00BC
ENCODING 188
SWIDTH 720 0
DWIDTH 9 0
BBX 9 9 0 0
BITMAP
6100
A200
2400
2500
2900
2B00
1500
2780
2100
ENDCHAR
STARTCHAR 00BD
ENCODING 189
SWIDTH 800 0
DWIDTH 10 0
BBX 9 9 0 0
BITMAP
6300
A200
2400
2B80
2880
1080
1100
2200
4380
ENDCHAR
STARTCHAR 00BE
ENCODING 190
SWIDTH 800 0
DWIDTH 10 0
BBX 10 9 0 0
BITMAP
F180
1100
6200
1480
9580
E980
0A80
13C0
2080
ENDCHAR
STARTCHAR 00BF
ENCODING 191
SWIDTH 400 0
DWIDTH 5 0
BBX 5 9 0 -2
BITMAP
30
10
00
10
20
40
80
C0
78
ENDCHAR
STARTCHAR 00C0
ENCODING 192
SWIDTH 640 0
DWIDTH 8 0
BBX 8 12 0 0
BITMAP
30
08
00
18
18
18
24
24
7E
42
42
81
ENDCHAR
STARTCHAR 00C1
ENCODING 193
SWIDTH 640 0
DWIDTH 8 0
BBX 8 12 0 0
BITMAP
0C
18
00
18
18
18
24
24
7E
42
42
81
ENDCHAR
STARTCHAR 00C2
ENCODING 194
SWIDTH 640 0
DWIDTH 8 0
BBX 8 12 0 0
BITMAP
18
24
00
18
18
18
24
24
7E
42
42
81
ENDCHAR
STARTCHAR 00C3
ENCODING 195
SWIDTH 640 0
DWIDTH 8 0
BBX 8 12 0 0
BITMAP
34
2C
00
18
18
18
24
24
7E
42
42
81
ENDCHAR
STARTCHAR 00C4
ENCODING 196
SWIDTH 640 0
DWIDTH 8 0
BBX 8 11 0 0
BITMAP
24
00
18
18
18
24
24
7E
42
42
81
ENDCHAR
STARTCHAR 00C5
ENCODING 197
SWIDTH 640 0
DWIDTH 8 0
BBX 8 12 0 0
BITMAP
18
28
18
18
18
18
24
24
7E
42
42
81
ENDCHAR
STARTCHAR 00C6
ENCODING 198
SWIDTH 880 0
DWIDTH 11 0
BBX 10 9 0 0
BITMAP
0FC0
0A00
1200
1200
23C0
3E00
4200
4200
83C0
ENDCHAR
STARTCHAR 00C7
ENCODING 199
SWIDTH 640 0
DWIDTH 8 0
BBX 7 12 1 -3
BITMAP
3E
40
80
80
80
80
80
40
3C
10
08
30
ENDCHAR
STARTCHAR 00C8
ENCODING 200
SWIDTH 560 0
DWIDTH 7 0
BBX 5 12 1 0
BITMAP
60
30
00
F8
80
80
80
F8
80
80
80
F8
ENDCHAR
STARTCHAR 00C9
ENCODING 201
SWIDTH 560 0
DWIDTH 7 0
BBX 5 12 1 0
BITMAP
18
20
00
F8
80
80
80
F8
80
80
80
F8
ENDCHAR
STARTCHAR 00CA
ENCODING 202
SWIDTH 560 0
DWIDTH 7 0
BBX 5 12 1 0
BITMAP
30
58
00
F8
80
80
80
F8
80
80
80
F8
ENDCHAR
STARTCHAR 00CB
ENCODING 203
SWIDTH 560 0
DWIDTH 7 0
BBX 5 11 1 0
BITMAP
58
00
F8
80
80
80
F8
80
80
80
F8
ENDCHAR
STARTCHAR 00CC
ENCODING 204
SWIDTH 320 0
DWIDTH 4 0
BBX 4 12 0 0
BITMAP
C0
20
00
F0
20
20
20
20
20
20
20
F0
ENDCHAR
STARTCHAR 00CD
ENCODING 205
SWIDTH 320 0
DWIDTH 4 0
BBX 4 12 0 0
BITMAP
30
60
00
F0
20
20
20
20
20
20
20
F0
ENDCHAR
STARTCHAR 00CE
ENCODING 206
SWIDTH 320 0
DWIDTH 4 0
BBX 4 12 0 0
BITMAP
60
90
00
F0
20
20
20
20
20
20
20
F0
ENDCHAR
STARTCHAR 00CF
ENCODING 207
SWIDTH 320 0
DWIDTH 4 0
BBX 4 11 0 0
BITMAP
D0
00
F0
20
20
20
20
20
20
20
F0
ENDCHAR
STARTCHAR 00D0
ENCODING 208
SWIDTH 720 0
DWIDTH 9 0
BBX 8 9 0 0
BITMAP
7C
42
41
41
F9
41
41
42
7C
ENDCHAR
STARTCHAR 00D1
ENCODING 209
SWIDTH 800 0
DWIDTH 10 0
BBX 7 12 1 0
BITMAP
34
4C
00
C2
C2
A2
B2
92
8A
8E
86
82
ENDCHAR
STARTCHAR 00D2
ENCODING 210
SWIDTH 800 0
DWIDTH 10 0
BBX 8 12 1 0
BITMAP
30
18
00
3C
42
83
81
81
81
83
42
3C
ENDCHAR
STARTCHAR 00D3
ENCODING 211
SWIDTH 800 0
DWIDTH 10 0
BBX 8 12 1 0
BITMAP
0C
10
00
3C
42
83
81
81
81
83
42
3C
ENDCHAR
STARTCHAR 00D4
ENCODING 212
SWIDTH 800 0
DWIDTH 10 0
BBX 8 12 1 0
BITMAP
18
24
00
3C
42
83
81
81
81
83
42
3C
ENDCHAR
STARTCHAR 00D5
ENCODING 213
SWIDTH 800 0
DWIDTH 10 0
BBX 8 12 1 0
BITMAP
34
4C
00
3C
42
83
81
81
81
83
42
3C
ENDCHAR
STARTCHAR 00D6
ENCODING 214
SWIDTH 800 0
DWIDTH 10 0
BBX 8 11 1 0
BITMAP
2C
00
3C
42
83
81
81
81
83
42
3C
ENDCHAR
STARTCHAR 00D7
ENCODING 215
SWIDTH 560 0
DWIDTH 7 0
BBX 5 5 1 2
BITMAP
88
50
20
50
88
ENDCHAR
STARTCHAR 00D8
ENCODING 216
SWIDTH 800 0
DWIDTH 10 0
BBX 8 9 1 0
BITMAP
3E
46
87
89
91
91
A3
42
FC
ENDCHAR
STARTCHAR 00D9
ENCODING 217
SWIDTH 720 0
DWIDTH 9 0
BBX 7 12 1 0
BITMAP
30
10
00
82
82
82
82
82
82
82
46
7C
ENDCHAR
STARTCHAR 00DA
ENCODING 218
SWIDTH 720 0
DWIDTH 9 0
BBX 7 12 1 0
BITMAP
08
10
00
82
82
82
82
82
82
82
46
7C
ENDCHAR
STARTCHAR 00DB
ENCODING 219
SWIDTH 720 0
DWIDTH 9 0
BBX 7 12 1 0
BITMAP
10
6C
00
82
82
82
82
82
82
82
46
7C
ENDCHAR
STARTCHAR 00DC
ENCODING 220
SWIDTH 720 0
DWIDTH 9 0
BBX 7 11 1 0
BITMAP
28
00
82
82
82
82
82
82
82
46
7C
ENDCHAR
STARTCHAR 00DD
ENCODING 221
SWIDTH 560 0
DWIDTH 7 0
BBX 7 12 0 0
BITMAP
08
10
00
82
44
64
28
38
10
10
10
10
ENDCHAR
STARTCHAR 00DE
ENCODING 222
SWIDTH 640 0
DWIDTH 8 0
BBX 6 9 1 0
BITMAP
80
F8
8C
84
84
8C
F8
80
80
ENDCHAR
STARTCHAR 00DF
ENCODING 223
SWIDTH 640 0
DWIDTH 8 0
BBX 6 10 1 0
BITMAP
78
8C
88
98
90
98
8C
84
84
BC
ENDCHAR
STARTCHAR 00E0
ENCODING 224
SWIDTH 560 0
DWIDTH 7 0
BBX 5 10 1 0
BITMAP
40
20
00
F0
08
08
F8
88
98
E8
ENDCHAR
STARTCHAR 00E1
ENCODING 225
SWIDTH 560 0
DWIDTH 7 0
BBX 5 10 1 0
BITMAP
10
20
00
F0
08
08
F8
88
98
E8
ENDCHAR
STARTCHAR 00E2
ENCODING 226
SWIDTH 560 0
DWIDTH 7 0
BBX 5 10 1 0
BITMAP
20
D8
00
F0
08
08
F8
88
98
E8
ENDCHAR
STARTCHAR 00E3
ENCODING 227
SWIDTH 560 0
DWIDTH 7 0
BBX 5 10 1 0
BITMAP
68
B0
00
F0
08
08
F8
88
98
E8
ENDCHAR
STARTCHAR 00E4
ENCODING 228
SWIDTH 560 0
DWIDTH 7 0
BBX 5 9 1 0
BITMAP
50
00
F0
08
08
F8
88
98
E8
ENDCHAR
STARTCHAR 00E5
ENCODING 229
SWIDTH 560 0
DWIDTH 7 0
BBX 5 11 1 0
BITMAP
70
50
70
00
F0
08
08
F8
88
98
E8
ENDCHAR
STARTCHAR 00E6
ENCODING 230
SWIDTH 880 0
DWIDTH 11 0
BBX 9 7 1 0
BITMAP
F700
0880
0880
FF80
8800
9800
E780
ENDCHAR
STARTCHAR 00E7
ENCODING 231
SWIDTH 480 0
DWIDTH 6 0
BBX 5 10 1 -3
BITMAP
78
80
80
80
80
80
70
20
10
60
ENDCHAR
STARTCHAR 00E8
ENCODING 232
SWIDTH 560 0
DWIDTH 7 0
BBX 5 10 1 0
BITMAP
60
20
00
70
88
88
F8
80
80
78
ENDCHAR
STARTCHAR 00E9
ENCODING 233
SWIDTH 560 0
DWIDTH 7 0
BBX 5 10 1 0
BITMAP
10
20
00
70
88
88
F8
80
80
78
ENDCHAR
STARTCHAR 00EA
ENCODING 234
SWIDTH 560 0
DWIDTH 7 0
BBX 5 10 1 0
BITMAP
20
D8
00
70
88
88
F8
80
80
78
ENDCHAR
STARTCHAR 00EB
ENCODING 235
SWIDTH 560 0
DWIDTH 7 0
BBX 5 9 1 0
BITMAP
50
00
70
88
88
F8
80
80
78
ENDCHAR
STARTCHAR 00EC
ENCODING 236
SWIDTH 240 0
DWIDTH 3 0
BBX 2 10 0 0
BITMAP
C0
40
00
40
40
40
40
40
40
40
ENDCHAR
STARTCHAR 00ED
ENCODING 237
SWIDTH 240 0
DWIDTH 3 0
BBX 2 10 1 0
BITMAP
40
80
00
80
80
80
80
80
80
80
ENDCHAR
STARTCHAR 00EE
ENCODING 238
SWIDTH 240 0
DWIDTH 3 0
BBX 4 10 0 0
BITMAP
60
B0
00
40
40
40
40
40
40
40
ENDCHAR
STARTCHAR 00EF
ENCODING 239
SWIDTH 240 0
DWIDTH 3 0
BBX 3 9 0 0
BITMAP
A0
00
40
40
40
40
40
40
40
ENDCHAR
STARTCHAR 00F0
ENCODING 240
SWIDTH 640 0
DWIDTH 8 0
BBX 6 10 1 0
BITMAP
48
30
78
08
74
8C
84
84
88
78
ENDCHAR
STARTCHAR 00F1
ENCODING 241
SWIDTH 640 0
DWIDTH 8 0
BBX 6 10 1 0
BITMAP
68
98
00
B8
CC
84
84
84
84
84
ENDCHAR
STARTCHAR 00F2
ENCODING 242
SWIDTH 640 0
DWIDTH 8 0
BBX 6 10 1 0
BITMAP
60
30
00
78
88
84
84
84
88
78
ENDCHAR
STARTCHAR 00F3
ENCODING 243
SWIDTH 640 0
DWIDTH 8 0
BBX 6 10 1 0
BITMAP
18
20
00
78
88
84
84
84
88
78
ENDCHAR
STARTCHAR 00F4
ENCODING 244
SWIDTH 640 0
DWIDTH 8 0
BBX 6 10 1 0
BITMAP
30
58
00
78
88
84
84
84
88
78
ENDCHAR
STARTCHAR 00F5
ENCODING 245
SWIDTH 640 0
DWIDTH 8 0
BBX 6 10 1 0
BITMAP
68
98
00
78
88
84
84
84
88
78
ENDCHAR
STARTCHAR 00F6
ENCODING 246
SWIDTH 640 0
DWIDTH 8 0
BBX 6 9 1 0
BITMAP
58
00
78
88
84
84
84
88
78
ENDCHAR
STARTCHAR 00F7
ENCODING 247
SWIDTH 560 0
DWIDTH 7 0
BBX 6 6 1 2
BITMAP
20
20
00
FC
20
20
ENDCHAR
STARTCHAR 00F8
ENCODING 248
SWIDTH 640 0
DWIDTH 8 0
BBX 6 7 1 0
BITMAP
7C
88
94
A4
A4
C8
F8
ENDCHAR
STARTCHAR 00F9
ENCODING 249
SWIDTH 640 0
DWIDTH 8 0
BBX 6 10 1 0
BITMAP
60
30
00
84
84
84
84
8C
8C
74
ENDCHAR
STARTCHAR 00FA
ENCODING 250
SWIDTH 640 0
DWIDTH 8 0
BBX 6 10 1 0
BITMAP
18
20
00
84
84
84
84
8C
8C
74
ENDCHAR
STARTCHAR 00FB
ENCODING 251
SWIDTH 640 0
DWIDTH 8 0
BBX 6 10 1 0
BITMAP
30
48
00
84
84
84
84
8C
8C
74
ENDCHAR
STARTCHAR 00FC
ENCODING 252
SWIDTH 640 0
DWIDTH 8 0
BBX 6 9 1 0
BITMAP
58
00
84
84
84
84
8C
8C
74
ENDCHAR
STARTCHAR 00FD
ENCODING 253
SWIDTH 480 0
DWIDTH 6 0
BBX 6 13 0 -3
BITMAP
18
30
00
84
44
48
48
28
30
10
10
20
E0
ENDCHAR
STARTCHAR 00FE
ENCODING 254
SWIDTH 640 0
DWIDTH 8 0
BBX 6 13 1 -3
BITMAP
80
80
80
B8
CC
84
84
84
CC
B8
80
80
80
ENDCHAR
STARTCHAR 00FF
ENCODING 255
SWIDTH 480 0
DWIDTH 6 0
BBX 6 12 0 -3
BITMAP
68
00
84
44
48
48
28
30
10
10
20
E0
ENDCHAR
STARTCHAR 0100
ENCODING 256
SWIDTH 640 0
DWIDTH 8 0
BBX 8 11 0 0
BITMAP
3C
00
18
18
18
24
24
7E
42
42
81
ENDCHAR
STARTCHAR 0101
ENCODING 257
SWIDTH 560 0
DWIDTH 7 0
BBX 5 9 1 0
BITMAP
70
00
F0
08
08
F8
88
98
E8
ENDCHAR
STARTCHAR 0102
ENCODING 258
SWIDTH 640 0
DWIDTH 8 0
BBX 8 12 0 0
BITMAP
24
18
00
18
18
18
24
24
7E
42
42
81
ENDCHAR
STARTCHAR 0103
ENCODING 259
SWIDTH 560 0
DWIDTH 7 0
BBX 5 10 1 0
BITMAP
88
70
00
F0
08
08
F8
88
98
E8
ENDCHAR
STARTCHAR 0104
ENCODING 260
SWIDTH 640 0
DWIDTH 8 0
BBX 8 12 0 -3
BITMAP
18
18
18
24
24
7E
42
42
81
02
02
03
ENDCHAR
STARTCHAR 0105
ENCODING 261
SWIDTH 560 0
DWIDTH 7 0
BBX 5 10 1 -3
BITMAP
F0
08
08
F8
88
98
E8
08
10
18
ENDCHAR
STARTCHAR 0106
ENCODING 262
SWIDTH 640 0
DWIDTH 8 0
BBX 7 12 1 0
BITMAP
0C
10
00
3E
40
80
80
80
80
80
40
3C
ENDCHAR
STARTCHAR 0107
ENCODING 263
SWIDTH 480 0
DWIDTH 6 0
BBX 5 10 1 0
BITMAP
10
20
00
78
80
80
80
80
80
70
ENDCHAR
STARTCHAR 0108
ENCODING 264
SWIDTH 640 0
DWIDTH 8 0
BBX 7 12 1 0
BITMAP
18
2C
00
3E
40
80
80
80
80
80
40
3C
ENDCHAR
STARTCHAR 0109
ENCODING 265
SWIDTH 480 0
DWIDTH 6 0
BBX 5 10 1 0
BITMAP
20
D8
00
78
80
80
80
80
80
70
ENDCHAR
STARTCHAR 010A
ENCODING 266
SWIDTH 640 0
DWIDTH 8 0
BBX 7 11 1 0
BITMAP
10
00
3E
40
80
80
80
80
80
40
3C
ENDCHAR
STARTCHAR 010B
ENCODING 267
SWIDTH 480 0
DWIDTH 6 0
BBX 5 9 1 0
BITMAP
20
00
78
80
80
80
80
80
70
ENDCHAR
STARTCHAR 010C
ENCODING 268
SWIDTH 640 0
DWIDTH 8 0
BBX 7 12 1 0
BITMAP
2C
18
00
3E
40
80
80
80
80
80
40
3C
ENDCHAR
STARTCHAR 010D
ENCODING 269
SWIDTH 480 0
DWIDTH 6 0
BBX 5 10 1 0
BITMAP
D8
20
00
78
80
80
80
80
80
70
ENDCHAR
STARTCHAR 010E
ENCODING 270
SWIDTH 720 0
DWIDTH 9 0
BBX 7 12 1 0
BITMAP
6C
10
00
F8
84
82
82
82
82
82
84
F8
ENDCHAR
STARTCHAR 010F
ENCODING 271
SWIDTH 640 0
DWIDTH 8 0
BBX 8 10 1 0
BITMAP
07
06
04
74
8C
8C
84
8C
8C
74
ENDCHAR
STARTCHAR 0110
ENCODING 272
SWIDTH 720 0
DWIDTH 9 0
BBX 8 9 0 0
BITMAP
7C
42
41
41
F9
41
41
42
7C
ENDCHAR
STARTCHAR 0111
ENCODING 273
SWIDTH 640 0
DWIDTH 8 0
BBX 7 10 1 0
BITMAP
04
3E
04
74
8C
8C
84
8C
8C
74
ENDCHAR
STARTCHAR 0112
ENCODING 274
SWIDTH 560 0
DWIDTH 7 0
BBX 5 11 1 0
BITMAP
78
00
F8
80
80
80
F8
80
80
80
F8
ENDCHAR
STARTCHAR 0113
ENCODING 275
SWIDTH 560 0
DWIDTH 7 0
BBX 5 9 1 0
BITMAP
70
00
70
88
88
F8
80
80
78
ENDCHAR
STARTCHAR 0114
ENCODING 276
SWIDTH 560 0
DWIDTH 7 0
BBX 5 12 1 0
BITMAP
48
70
00
F8
80
80
80
F8
80
80
80
F8
ENDCHAR
STARTCHAR 0115
ENCODING 277
SWIDTH 560 0
DWIDTH 7 0
BBX 5 10 1 0
BITMAP
48
70
00
70
88
88
F8
80
80
78
ENDCHAR
STARTCHAR 0116
ENCODING 278
SWIDTH 560 0
DWIDTH 7 0
BBX 5 11 1 0
BITMAP
20
00
F8
80
80
80
F8
80
80
80
F8
ENDCHAR
STARTCHAR 0117
ENCODING 279
SWIDTH 560 0
DWIDTH 7 0
BBX 5 9 1 0
BITMAP
20
00
70
88
88
F8
80
80
78
ENDCHAR
STARTCHAR 0118
ENCODING 280
SWIDTH 560 0
DWIDTH 7 0
BBX 5 12 1 -3
BITMAP
F8
80
80
80
F8
80
80
80
F8
10
10
18
ENDCHAR
STARTCHAR 0119
ENCODING 281
SWIDTH 560 0
DWIDTH 7 0
BBX 5 10 1 -3
BITMAP
70
88
88
F8
80
80
78
10
10
18
ENDCHAR
STARTCHAR 011A
ENCODING 282
SWIDTH 560 0
DWIDTH 7 0
BBX 5 12 1 0
BITMAP
48
30
00
F8
80
80
80
F8
80
80
80
F8
ENDCHAR
STARTCHAR 011B
ENCODING 283
SWIDTH 560 0
DWIDTH 7 0
BBX 5 10 1 0
BITMAP
D8
20
00
70
88
88
F8
80
80
78
ENDCHAR
STARTCHAR 011C
ENCODING 284
SWIDTH 720 0
DWIDTH 9 0
BBX 7 12 1 0
BITMAP
18
24
00
3E
40
80
80
8E
82
82
42
3E
ENDCHAR
STARTCHAR 011D
ENCODING 285
SWIDTH 640 0
DWIDTH 8 0
BBX 6 13 1 -3
BITMAP
30
58
00
74
8C
8C
84
8C
8C
74
04
08
F8
ENDCHAR
STARTCHAR 011E
ENCODING 286
SWIDTH 720 0
DWIDTH 9 0
BBX 7 12 1 0
BITMAP
24
1C
00
3E
40
80
80
8E
82
82
42
3E
ENDCHAR
STARTCHAR 011F
ENCODING 287
SWIDTH 640 0
DWIDTH 8 0
BBX 6 13 1 -3
BITMAP
48
70
00
74
8C
8C
84
8C
8C
74
04
08
F8
ENDCHAR
STARTCHAR 0120
ENCODING 288
SWIDTH 720 0
DWIDTH 9 0
BBX 7 11 1 0
BITMAP
18
00
3E
40
80
80
8E
82
82
42
3E
ENDCHAR
STARTCHAR 0121
ENCODING 289
SWIDTH 640 0
DWIDTH 8 0
BBX 6 12 1 -3
BITMAP
20
00
74
8C
8C
84
8C
8C
74
04
08
F8
ENDCHAR
STARTCHAR 0122
ENCODING 290
SWIDTH 720 0
DWIDTH 9 0
BBX 7 12 1 -3
BITMAP
3E
40
80
80
8E
82
82
42
3E
00
08
10
ENDCHAR
STARTCHAR 0123
ENCODING 291
SWIDTH 640 0
DWIDTH 8 0
BBX 6 13 1 -3
BITMAP
30
20
00
74
8C
8C
84
8C
8C
74
04
08
F8
ENDCHAR
STARTCHAR 0124
ENCODING 292
SWIDTH 720 0
DWIDTH 9 0
BBX 7 12 1 0
BITMAP
18
2C
00
82
82
82
82
FE
82
82
82
82
ENDCHAR
STARTCHAR 0125
ENCODING 293
SWIDTH 640 0
DWIDTH 8 0
BBX 7 13 0 0
BITMAP
60
B0
00
40
40
40
5C
66
42
42
42
42
42
ENDCHAR
STARTCHAR 0126
ENCODING 294
SWIDTH 720 0
DWIDTH 9 0
BBX 9 9 0 0
BITMAP
4100
FF80
4100
4100
7F00
4100
4100
4100
4100
ENDCHAR
STARTCHAR 0127
ENCODING 295
SWIDTH 640 0
DWIDTH 8 0
BBX 7 10 0 0
BITMAP
40
F8
40
5C
66
42
42
42
42
42
ENDCHAR
STARTCHAR 0128
ENCODING 296
SWIDTH 320 0
DWIDTH 4 0
BBX 4 12 0 0
BITMAP
D0
B0
00
F0
20
20
20
20
20
20
20
F0
ENDCHAR
STARTCHAR 0129
ENCODING 297
SWIDTH 240 0
DWIDTH 3 0
BBX 5 10 -1 0
BITMAP
68
90
00
20
20
20
20
20
20
20
ENDCHAR
STARTCHAR 012A
ENCODING 298
SWIDTH 320 0
DWIDTH 4 0
BBX 4 11 0 0
BITMAP
F0
00
F0
20
20
20
20
20
20
20
F0
ENDCHAR
STARTCHAR 012B
ENCODING 299
SWIDTH 240 0
DWIDTH 3 0
BBX 3 9 0 0
BITMAP
E0
00
40
40
40
40
40
40
40
ENDCHAR
STARTCHAR 012C
ENCODING 300
SWIDTH 320 0
DWIDTH 4 0
BBX 4 12 0 0
BITMAP
90
70
00
F0
20
20
20
20
20
20
20
F0
ENDCHAR
STARTCHAR 012D
ENCODING 301
SWIDTH 240 0
DWIDTH 3 0
BBX 4 10 0 0
BITMAP
90
E0
00
40
40
40
40
40
40
40
ENDCHAR
STARTCHAR 012E
ENCODING 302
SWIDTH 320 0
DWIDTH 4 0
BBX 4 12 0 -3
BITMAP
F0
20
20
20
20
20
20
20
F0
20
20
30
ENDCHAR
STARTCHAR 012F
ENCODING 303
SWIDTH 240 0
DWIDTH 3 0
BBX 2 13 0 -3
BITMAP
40
00
00
40
40
40
40
40
40
40
40
80
40
ENDCHAR
STARTCHAR 0130
ENCODING 304
SWIDTH 320 0
DWIDTH 4 0
BBX 4 11 0 0
BITMAP
20
00
F0
20
20
20
20
20
20
20
F0
ENDCHAR
STARTCHAR 0131
ENCODING 305
SWIDTH 240 0
DWIDTH 3 0
BBX 1 7 1 0
BITMAP
80
80
80
80
80
80
80
ENDCHAR
STARTCHAR 0132
ENCODING 306
SWIDTH 640 0
DWIDTH 8 0
BBX 7 12 0 -3
BITMAP
F6
26
26
26
26
26
26
26
F6
06
04
1C
ENDCHAR
STARTCHAR 0133
ENCODING 307
SWIDTH 480 0
DWIDTH 6 0
BBX 4 13 1 -3
BITMAP
90
00
00
90
90
90
90
90
90
90
10
10
30
ENDCHAR
STARTCHAR 0134
ENCODING 308
SWIDTH 240 0
DWIDTH 3 0
BBX 5 15 -1 -3
BITMAP
30
58
00
20
20
20
20
20
20
20
20
20
20
20
C0
ENDCHAR
STARTCHAR 0135
ENCODING 309
SWIDTH 240 0
DWIDTH 3 0
BBX 5 13 -1 -3
BITMAP
30
58
00
20
20
20
20
20
20
20
20
20
E0
ENDCHAR
STARTCHAR 0136
ENCODING 310
SWIDTH 640 0
DWIDTH 8 0
BBX 7 12 1 -3
BITMAP
86
88
90
A0
E0
90
88
8C
86
00
10
20
ENDCHAR
STARTCHAR 0137
ENCODING 311
SWIDTH 560 0
DWIDTH 7 0
BBX 6 13 1 -3
BITMAP
80
80
80
88
90
A0
E0
B0
90
8C
00
20
20
ENDCHAR
STARTCHAR 0138
ENCODING 312
SWIDTH 560 0
DWIDTH 7 0
BBX 6 7 1 0
BITMAP
88
90
A0
E0
B0
98
8C
ENDCHAR
STARTCHAR 0139
ENCODING 313
SWIDTH 560 0
DWIDTH 7 0
BBX 5 12 1 0
BITMAP
60
80
00
80
80
80
80
80
80
80
80
F8
ENDCHAR
STARTCHAR 013A
ENCODING 314
SWIDTH 240 0
DWIDTH 3 0
BBX 2 13 1 0
BITMAP
40
80
00
80
80
80
80
80
80
80
80
80
80
ENDCHAR
STARTCHAR 013B
ENCODING 315
SWIDTH 560 0
DWIDTH 7 0
BBX 5 12 1 -3
BITMAP
80
80
80
80
80
80
80
80
F8
00
30
20
ENDCHAR
STARTCHAR 013C
ENCODING 316
SWIDTH 240 0
DWIDTH 3 0
BBX 1 13 1 -3
BITMAP
80
80
80
80
80
80
80
80
80
80
00
80
80
ENDCHAR
STARTCHAR 013D
ENCODING 317
SWIDTH 560 0
DWIDTH 7 0
BBX 5 9 1 0
BITMAP
88
88
80
80
80
80
80
80
F8
ENDCHAR
STARTCHAR 013E
ENCODING 318
SWIDTH 240 0
DWIDTH 3 0
BBX 3 10 1 0
BITMAP
A0
A0
80
80
80
80
80
80
80
80
ENDCHAR
STARTCHAR 013F
ENCODING 319
SWIDTH 560 0
DWIDTH 7 0
BBX 5 9 1 0
BITMAP
80
80
80
80
90
80
80
80
F8
ENDCHAR
STARTCHAR 0140
ENCODING 320
SWIDTH 240 0
DWIDTH 3 0
BBX 3 10 1 0
BITMAP
80
80
80
80
80
A0
80
80
80
80
ENDCHAR
STARTCHAR 0141
ENCODING 321
SWIDTH 560 0
DWIDTH 7 0
BBX 6 9 0 0
BITMAP
40
40
40
50
78
C0
40
40
7C
ENDCHAR
STARTCHAR 0142
ENCODING 322
SWIDTH 240 0
DWIDTH 3 0
BBX 3 10 0 0
BITMAP
40
40
40
40
60
40
C0
40
40
40
ENDCHAR
STARTCHAR 0143
ENCODING 323
SWIDTH 800 0
DWIDTH 10 0
BBX 7 12 1 0
BITMAP
0C
10
00
C2
C2
A2
B2
92
8A
8E
86
82
ENDCHAR
STARTCHAR 0144
ENCODING 324
SWIDTH 640 0
DWIDTH 8 0
BBX 6 10 1 0
BITMAP
18
20
00
B8
CC
84
84
84
84
84
ENDCHAR
STARTCHAR 0145
ENCODING 325
SWIDTH 800 0
DWIDTH 10 0
BBX 7 12 1 -3
BITMAP
C2
C2
A2
B2
92
8A
8E
86
82
00
18
10
ENDCHAR
STARTCHAR 0146
ENCODING 326
SWIDTH 640 0
DWIDTH 8 0
BBX 6 10 1 -3
BITMAP
B8
CC
84
84
84
84
84
00
30
20
ENDCHAR
STARTCHAR 0147
ENCODING 327
SWIDTH 800 0
DWIDTH 10 0
BBX 7 12 1 0
BITMAP
2C
18
00
C2
C2
A2
B2
92
8A
8E
86
82
ENDCHAR
STARTCHAR 0148
ENCODING 328
SWIDTH 640 0
DWIDTH 8 0
BBX 6 10 1 0
BITMAP
48
30
00
B8
CC
84
84
84
84
84
ENDCHAR
STARTCHAR 0149
ENCODING 329
SWIDTH 720 0
DWIDTH 9 0
BBX 8 9 0 0
BITMAP
40
80
AE
32
23
23
23
23
23
ENDCHAR
STARTCHAR 014A
ENCODING 330
SWIDTH 800 0
DWIDTH 10 0
BBX 7 11 1 -2
BITMAP
C2
E2
A2
B2
92
8A
86
86
82
02
0C
ENDCHAR
STARTCHAR 014B
ENCODING 331
SWIDTH 640 0
DWIDTH 8 0
BBX 6 10 1 -3
BITMAP
B8
CC
84
84
84
84
84
04
04
18
ENDCHAR
STARTCHAR 014C
ENCODING 332
SWIDTH 800 0
DWIDTH 10 0
BBX 8 11 1 0
BITMAP
3C
00
3C
42
83
81
81
81
83
42
3C
ENDCHAR
STARTCHAR 014D
ENCODING 333
SWIDTH 640 0
DWIDTH 8 0
BBX 6 9 1 0
BITMAP
78
00
78
88
84
84
84
88
78
ENDCHAR
STARTCHAR 014E
ENCODING 334
SWIDTH 800 0
DWIDTH 10 0
BBX 8 12 1 0
BITMAP
24
38
00
3C
42
83
81
81
81
83
42
3C
ENDCHAR
STARTCHAR 014F
ENCODING 335
SWIDTH 640 0
DWIDTH 8 0
BBX 6 10 1 0
BITMAP
48
70
00
78
88
84
84
84
88
78
ENDCHAR
STARTCHAR 0150
ENCODING 336
SWIDTH 800 0
DWIDTH 10 0
BBX 8 12 1 0
BITMAP
1E
34
00
3C
42
83
81
81
81
83
42
3C
ENDCHAR
STARTCHAR 0151
ENCODING 337
SWIDTH 640 0
DWIDTH 8 0
BBX 6 10 1 0
BITMAP
3C
58
00
78
88
84
84
84
88
78
ENDCHAR
STARTCHAR 0152
ENCODING 338
SWIDTH 960 0
DWIDTH 12 0
BBX 10 9 1 0
BITMAP
3FC0
4400
8400
8400
87C0
8400
8400
4400
3FC0
ENDCHAR
STARTCHAR 0153
ENCODING 339
SWIDTH 960 0
DWIDTH 12 0
BBX 10 7 1 0
BITMAP
7380
8C40
8440
87C0
8400
8C00
73C0
ENDCHAR
STARTCHAR 0154
ENCODING 340
SWIDTH 640 0
DWIDTH 8 0
BBX 7 12 1 0
BITMAP
18
20
00
F8
8C
84
8C
F8
98
88
8C
86
ENDCHAR
STARTCHAR 0155
ENCODING 341
SWIDTH 400 0
DWIDTH 5 0
BBX 4 10 1 0
BITMAP
30
60
00
B0
C0
80
80
80
80
80
ENDCHAR
STARTCHAR 0156
ENCODING 342
SWIDTH 640 0
DWIDTH 8 0
BBX 7 12 1 -3
BITMAP
F8
8C
84
8C
F8
98
88
8C
86
00
10
20
ENDCHAR
STARTCHAR 0157
ENCODING 343
SWIDTH 400 0
DWIDTH 5 0
BBX 4 10 1 -3
BITMAP
B0
C0
80
80
80
80
80
00
80
80
ENDCHAR
STARTCHAR 0158
ENCODING 344
SWIDTH 640 0
DWIDTH 8 0
BBX 7 12 1 0
BITMAP
48
30
00
F8
8C
84
8C
F8
98
88
8C
86
ENDCHAR
STARTCHAR 0159
ENCODING 345
SWIDTH 400 0
DWIDTH 5 0
BBX 4 10 1 0
BITMAP
90
60
00
B0
C0
80
80
80
80
80
ENDCHAR
STARTCHAR 015A
ENCODING 346
SWIDTH 560 0
DWIDTH 7 0
BBX 5 12 1 0
BITMAP
10
20
00
78
80
80
C0
70
08
08
08
F0
ENDCHAR
STARTCHAR 015B
ENCODING 347
SWIDTH 480 0
DWIDTH 6 0
BBX 4 10 1 0
BITMAP
30
60
00
F0
80
80
60
10
10
F0
ENDCHAR
STARTCHAR 015C
ENCODING 348
SWIDTH 560 0
DWIDTH 7 0
BBX 5 12 1 0
BITMAP
20
D8
00
78
80
80
C0
70
08
08
08
F0
ENDCHAR
STARTCHAR 015D
ENCODING 349
SWIDTH 480 0
DWIDTH 6 0
BBX 4 10 1 0
BITMAP
60
90
00
F0
80
80
60
10
10
F0
ENDCHAR
STARTCHAR 015E
ENCODING 350
SWIDTH 560 0
DWIDTH 7 0
BBX 5 12 1 -3
BITMAP
78
80
80
C0
70
08
08
08
F0
60
10
60
ENDCHAR
STARTCHAR 015F
ENCODING 351
SWIDTH 480 0
DWIDTH 6 0
BBX 4 10 1 -3
BITMAP
F0
80
80
60
10
10
F0
40
20
60
ENDCHAR
STARTCHAR 0160
ENCODING 352
SWIDTH 560 0
DWIDTH 7 0
BBX 5 12 1 0
BITMAP
D8
20
00
78
80
80
C0
70
08
08
08
F0
ENDCHAR
STARTCHAR 0161
ENCODING 353
SWIDTH 480 0
DWIDTH 6 0
BBX 4 10 1 0
BITMAP
90
60
00
F0
80
80
60
10
10
F0
ENDCHAR
STARTCHAR 0162
ENCODING 354
SWIDTH 560 0
DWIDTH 7 0
BBX 7 12 0 -3
BITMAP
FE
10
10
10
10
10
10
10
10
10
08
30
ENDCHAR
STARTCHAR 0163
ENCODING 355
SWIDTH 400 0
DWIDTH 5 0
BBX 4 12 0 -3
BITMAP
40
40
F0
40
40
40
40
40
30
20
10
60
ENDCHAR
STARTCHAR 0164
ENCODING 356
SWIDTH 560 0
DWIDTH 7 0
BBX 7 12 0 0
BITMAP
6C
10
00
FE
10
10
10
10
10
10
10
10
ENDCHAR
STARTCHAR 0165
ENCODING 357
SWIDTH 400 0
DWIDTH 5 0
BBX 6 10 0 0
BITMAP
04
48
40
F0
40
40
40
40
40
30
ENDCHAR
STARTCHAR 0166
ENCODING 358
SWIDTH 560 0
DWIDTH 7 0
BBX 7 9 0 0
BITMAP
FE
10
10
10
7C
10
10
10
10
ENDCHAR
STARTCHAR 0167
ENCODING 359
SWIDTH 400 0
DWIDTH 5 0
BBX 4 9 0 0
BITMAP
40
40
F0
40
F0
40
40
40
30
ENDCHAR
STARTCHAR 0168
ENCODING 360
SWIDTH 720 0
DWIDTH 9 0
BBX 7 12 1 0
BITMAP
34
48
00
82
82
82
82
82
82
82
46
7C
ENDCHAR
STARTCHAR 0169
ENCODING 361
SWIDTH 640 0
DWIDTH 8 0
BBX 6 10 1 0
BITMAP
68
98
00
84
84
84
84
8C
8C
74
ENDCHAR
STARTCHAR 016A
ENCODING 362
SWIDTH 720 0
DWIDTH 9 0
BBX 7 11 1 0
BITMAP
38
00
82
82
82
82
82
82
82
46
7C
ENDCHAR
STARTCHAR 016B
ENCODING 363
SWIDTH 640 0
DWIDTH 8 0
BBX 6 9 1 0
BITMAP
78
00
84
84
84
84
8C
8C
74
ENDCHAR
STARTCHAR 016C
ENCODING 364
SWIDTH 720 0
DWIDTH 9 0
BBX 7 12 1 0
BITMAP
24
38
00
82
82
82
82
82
82
82
46
7C
ENDCHAR
STARTCHAR 016D
ENCODING 365
SWIDTH 640 0
DWIDTH 8 0
BBX 6 10 1 0
BITMAP
48
70
00
84
84
84
84
8C
8C
74
ENDCHAR
STARTCHAR 016E
ENCODING 366
SWIDTH 720 0
DWIDTH 9 0
BBX 7 13 1 0
BITMAP
18
28
18
00
82
82
82
82
82
82
82
46
7C
ENDCHAR
STARTCHAR 016F
ENCODING 367
SWIDTH 640 0
DWIDTH 8 0
BBX 6 11 1 0
BITMAP
30
50
30
00
84
84
84
84
8C
8C
74
ENDCHAR
STARTCHAR 0170
ENCODING 368
SWIDTH 720 0
DWIDTH 9 0
BBX 7 12 1 0
BITMAP
16
28
00
82
82
82
82
82
82
82
46
7C
ENDCHAR
STARTCHAR 0171
ENCODING 369
SWIDTH 640 0
DWIDTH 8 0
BBX 6 10 1 0
BITMAP
3C
68
00
84
84
84
84
8C
8C
74
ENDCHAR
STARTCHAR 0172
ENCODING 370
SWIDTH 720 0
DWIDTH 9 0
BBX 7 12 1 -3
BITMAP
82
82
82
82
82
82
82
46
7C
08
08
0C
ENDCHAR
STARTCHAR 0173
ENCODING 371
SWIDTH 640 0
DWIDTH 8 0
BBX 6 10 1 -3
BITMAP
84
84
84
84
8C
8C
74
08
08
0C
ENDCHAR
STARTCHAR 0174
ENCODING 372
SWIDTH 960 0
DWIDTH 12 0
BBX 11 12 0 0
BITMAP
0600
0B00
0000
8420
4620
4E20
4A60
4940
2940
3140
3080
3080
ENDCHAR
STARTCHAR 0175
ENCODING 373
SWIDTH 800 0
DWIDTH 10 0
BBX 10 10 0 0
BITMAP
0C00
1200
0000
8CC0
4C80
4C80
5280
5300
3300
2300
ENDCHAR
STARTCHAR 0176
ENCODING 374
SWIDTH 560 0
DWIDTH 7 0
BBX 7 12 0 0
BITMAP
10
6C
00
82
44
64
28
38
10
10
10
10
ENDCHAR
STARTCHAR 0177
ENCODING 375
SWIDTH 480 0
DWIDTH 6 0
BBX 6 13 0 -3
BITMAP
30
68
00
84
44
48
48
28
30
10
10
20
E0
ENDCHAR
STARTCHAR 0178
ENCODING 376
SWIDTH 560 0
DWIDTH 7 0
BBX 7 11 0 0
BITMAP
28
00
82
44
64
28
38
10
10
10
10
ENDCHAR
STARTCHAR 0179
ENCODING 377
SWIDTH 560 0
DWIDTH 7 0
BBX 7 12 0 0
BITMAP
08
10
00
7E
04
08
08
10
20
20
40
FE
ENDCHAR
STARTCHAR 017A
ENCODING 378
SWIDTH 480 0
DWIDTH 6 0
BBX 5 10 0 0
BITMAP
18
20
00
78
08
10
30
20
40
F8
ENDCHAR
STARTCHAR 017B
ENCODING 379
SWIDTH 560 0
DWIDTH 7 0
BBX 7 11 0 0
BITMAP
10
00
7E
04
08
08
10
20
20
40
FE
ENDCHAR
STARTCHAR 017C
ENCODING 380
SWIDTH 480 0
DWIDTH 6 0
BBX 5 9 0 0
BITMAP
30
00
78
08
10
30
20
40
F8
ENDCHAR
STARTCHAR 017D
ENCODING 381
SWIDTH 560 0
DWIDTH 7 0
BBX 7 12 0 0
BITMAP
2C
18
00
7E
04
08
08
10
20
20
40
FE
ENDCHAR
STARTCHAR 017E
ENCODING 382
SWIDTH 480 0
DWIDTH 6 0
BBX 5 10 0 0
BITMAP
48
30
00
78
08
10
30
20
40
F8
ENDCHAR
STARTCHAR 017F
ENCODING 383
SWIDTH 320 0
DWIDTH 4 0
BBX 4 10 1 0
BITMAP
70
80
80
80
80
80
80
80
80
80
ENDCHAR
STARTCHAR 0180
ENCODING 384
SWIDTH 640 0
DWIDTH 8 0
BBX 7 10 0 0
BITMAP
40
F8
40
5C
66
42
42
42
66
5C
ENDCHAR
STARTCHAR 0181
ENCODING 385
SWIDTH 720 0
DWIDTH 9 0
BBX 8 9 0 0
BITMAP
FE
A1
21
21
3E
21
21
21
3E
ENDCHAR
STARTCHAR 0182
ENCODING 386
SWIDTH 640 0
DWIDTH 8 0
BBX 6 9 1 0
BITMAP
FC
80
80
80
F8
84
84
84
F8
ENDCHAR
STARTCHAR 0183
ENCODING 387
SWIDTH 640 0
DWIDTH 8 0
BBX 6 10 1 0
BITMAP
F8
80
80
B8
CC
84
84
84
CC
B8
ENDCHAR
STARTCHAR 0184
ENCODING 388
SWIDTH 640 0
DWIDTH 8 0
BBX 6 9 1 0
BITMAP
80
80
80
80
F8
84
84
C4
78
ENDCHAR
STARTCHAR 0185
ENCODING 389
SWIDTH 640 0
DWIDTH 8 0
BBX 6 10 1 0
BITMAP
80
80
80
B8
CC
84
84
84
CC
78
ENDCHAR
STARTCHAR 0186
ENCODING 390
SWIDTH 640 0
DWIDTH 8 0
BBX 7 9 0 0
BITMAP
F8
04
02
02
02
02
02
04
78
ENDCHAR
STARTCHAR 0187
ENCODING 391
SWIDTH 640 0
DWIDTH 8 0
BBX 8 11 1 0
BITMAP
03
02
3C
40
80
80
80
80
80
40
3C
ENDCHAR
STARTCHAR 0188
ENCODING 392
SWIDTH 480 0
DWIDTH 6 0
BBX 6 10 1 0
BITMAP
0C
08
08
78
80
80
80
80
80
70
ENDCHAR
STARTCHAR 0189
ENCODING 393
SWIDTH 720 0
DWIDTH 9 0
BBX 8 9 0 0
BITMAP
7C
42
41
41
F9
41
41
42
7C
ENDCHAR
STARTCHAR 018A
ENCODING 394
SWIDTH 800 0
DWIDTH 10 0
BBX 9 9 0 0
BITMAP
FE00
A100
2080
2080
2080
2080
2080
2100
3E00
ENDCHAR
STARTCHAR 018B
ENCODING 395
SWIDTH 640 0
DWIDTH 8 0
BBX 5 9 1 0
BITMAP
F8
08
08
08
78
88
88
88
78
ENDCHAR
STARTCHAR 018C
ENCODING 396
SWIDTH 640 0
DWIDTH 8 0
BBX 6 10 1 0
BITMAP
FC
04
04
74
8C
8C
84
8C
8C
74
ENDCHAR
STARTCHAR 018D
ENCODING 397
SWIDTH 640 0
DWIDTH 8 0
BBX 6 10 1 -3
BITMAP
78
8C
84
84
88
70
30
18
88
F0
ENDCHAR
STARTCHAR 018E
ENCODING 398
SWIDTH 560 0
DWIDTH 7 0
BBX 5 9 1 0
BITMAP
F8
08
08
08
F8
08
08
08
F8
ENDCHAR
STARTCHAR 018F
ENCODING 399
SWIDTH 720 0
DWIDTH 9 0
BBX 7 9 1 0
BITMAP
F8
06
02
02
FE
82
82
C6
7C
ENDCHAR
STARTCHAR 0190
ENCODING 400
SWIDTH 560 0
DWIDTH 7 0
BBX 6 9 1 0
BITMAP
78
C4
80
C0
78
80
80
84
7C
ENDCHAR
STARTCHAR 0191
ENCODING 401
SWIDTH 560 0
DWIDTH 7 0
BBX 7 12 0 -3
BITMAP
3E
20
20
20
3E
20
20
20
20
20
A0
E0
ENDCHAR
STARTCHAR 0192
ENCODING 402
SWIDTH 400 0
DWIDTH 5 0
BBX 6 13 0 -3
BITMAP
1C
30
20
78
20
20
20
20
20
20
20
A0
E0
ENDCHAR
STARTCHAR 0193
ENCODING 403
SWIDTH 720 0
DWIDTH 9 0
BBX 8 11 1 0
BITMAP
03
02
3E
40
80
80
8E
82
82
42
3E
ENDCHAR
STARTCHAR 0194
ENCODING 404
SWIDTH 560 0
DWIDTH 7 0
BBX 7 12 0 -3
BITMAP
82
46
44
44
28
28
38
10
18
28
28
38
ENDCHAR
STARTCHAR 0195
ENCODING 405
SWIDTH 960 0
DWIDTH 12 0
BBX 10 10 1 0
BITMAP
8000
8000
8000
B840
C840
8840
8840
8840
8C80
8780
ENDCHAR
STARTCHAR 0196
ENCODING 406
SWIDTH 320 0
DWIDTH 4 0
BBX 3 9 1 0
BITMAP
80
80
80
80
80
80
80
80
60
ENDCHAR
STARTCHAR 0197
ENCODING 407
SWIDTH 320 0
DWIDTH 4 0
BBX 4 9 0 0
BITMAP
F0
20
20
20
F0
20
20
20
F0
ENDCHAR
STARTCHAR 0198
ENCODING 408
SWIDTH 640 0
DWIDTH 8 0
BBX 7 9 1 0
BITMAP
86
88
90
A0
E0
D0
88
8C
86
ENDCHAR
STARTCHAR 0199
ENCODING 409
SWIDTH 560 0
DWIDTH 7 0
BBX 6 10 1 0
BITMAP
C0
80
80
88
90
A0
E0
B0
90
8C
ENDCHAR
STARTCHAR 019A
ENCODING 410
SWIDTH 240 0
DWIDTH 3 0
BBX 3 10 0 0
BITMAP
40
40
40
40
40
E0
40
40
40
40
ENDCHAR
STARTCHAR 019B
ENCODING 411
SWIDTH 560 0
DWIDTH 7 0
BBX 7 10 0 0
BITMAP
60
38
50
10
30
28
68
48
44
86
ENDCHAR
STARTCHAR 019C
ENCODING 412
SWIDTH 1040 0
DWIDTH 13 0
BBX 11 9 1 0
BITMAP
8420
8420
8420
8420
8420
8420
8460
CC60
73A0
ENDCHAR
STARTCHAR 019D
ENCODING 413
SWIDTH 800 0
DWIDTH 10 0
BBX 8 12 0 -3
BITMAP
61
61
51
59
49
45
47
43
41
40
40
C0
ENDCHAR
STARTCHAR 019E
ENCODING 414
SWIDTH 640 0
DWIDTH 8 0
BBX 6 10 1 -3
BITMAP
B8
CC
84
84
84
84
84
04
04
04
ENDCHAR
STARTCHAR 019F
ENCODING 415
SWIDTH 800 0
DWIDTH 10 0
BBX 8 9 1 0
BITMAP
3C
42
83
81
FF
81
83
42
3C
ENDCHAR
STARTCHAR 01A0
ENCODING 416
SWIDTH 800 0
DWIDTH 10 0
BBX 9 10 1 0
BITMAP
0080
3C80
4300
8300
8100
8100
8100
8300
4200
3C00
ENDCHAR
STARTCHAR 01A1
ENCODING 417
SWIDTH 640 0
DWIDTH 8 0
BBX 7 8 1 0
BITMAP
02
7A
8C
84
84
84
88
78
ENDCHAR
STARTCHAR 01A2
ENCODING 418
SWIDTH 1040 0
DWIDTH 13 0
BBX 11 9 1 0
BITMAP
3DE0
4620
8220
8320
8320
8320
8220
4620
3C20
ENDCHAR
STARTCHAR 01A3
ENCODING 419
SWIDTH 880 0
DWIDTH 11 0
BBX 9 10 1 -3
BITMAP
7700
8900
8980
8D80
8980
8980
7180
0180
0180
0180
ENDCHAR
STARTCHAR 01A4
ENCODING 420
SWIDTH 720 0
DWIDTH 9 0
BBX 8 9 0 0
BITMAP
FE
A3
21
23
3E
20
20
20
20
ENDCHAR
STARTCHAR 01A5
ENCODING 421
SWIDTH 640 0
DWIDTH 8 0
BBX 6 13 1 -3
BITMAP
C0
80
80
B8
CC
84
84
84
CC
B8
80
80
80
ENDCHAR
STARTCHAR 01A6
ENCODING 422
SWIDTH 640 0
DWIDTH 8 0
BBX 7 10 1 -1
BITMAP
80
F8
8C
84
84
8C
F0
88
88
06
ENDCHAR
STARTCHAR 01A7
ENCODING 423
SWIDTH 560 0
DWIDTH 7 0
BBX 5 9 1 0
BITMAP
F0
08
08
18
70
80
80
88
78
ENDCHAR
STARTCHAR 01A8
ENCODING 424
SWIDTH 480 0
DWIDTH 6 0
BBX 4 7 1 0
BITMAP
F0
10
10
E0
80
80
F0
ENDCHAR
STARTCHAR 01A9
ENCODING 425
SWIDTH 560 0
DWIDTH 7 0
BBX 7 9 0 0
BITMAP
7C
40
20
10
18
30
20
40
FE
ENDCHAR
STARTCHAR 01AA
ENCODING 426
SWIDTH 320 0
DWIDTH 4 0
BBX 5 13 0 -3
BITMAP
E0
A0
E0
20
20
20
20
20
20
20
20
20
38
ENDCHAR
STARTCHAR 01AB
ENCODING 427
SWIDTH 400 0
DWIDTH 5 0
BBX 4 12 0 -3
BITMAP
40
40
F0
40
40
40
40
40
30
10
10
30
ENDCHAR
STARTCHAR 01AC
ENCODING 428
SWIDTH 560 0
DWIDTH 7 0
BBX 7 9 0 0
BITMAP
FE
90
10
10
10
10
10
10
10
ENDCHAR
STARTCHAR 01AD
ENCODING 429
SWIDTH 400 0
DWIDTH 5 0
BBX 4 10 0 0
BITMAP
30
40
40
F0
40
40
40
40
40
30
ENDCHAR
STARTCHAR 01AE
ENCODING 430
SWIDTH 560 0
DWIDTH 7 0
BBX 7 12 0 -3
BITMAP
FE
10
10
10
10
10
10
10
10
10
10
18
ENDCHAR
STARTCHAR 01AF
ENCODING 431
SWIDTH 800 0
DWIDTH 10 0
BBX 9 10 1 0
BITMAP
0080
8280
8300
8200
8200
8200
8200
8200
4600
3C00
ENDCHAR
STARTCHAR 01B0
ENCODING 432
SWIDTH 640 0
DWIDTH 8 0
BBX 8 8 1 0
BITMAP
01
86
84
84
84
8C
8C
74
ENDCHAR
STARTCHAR 01B1
ENCODING 433
SWIDTH 800 0
DWIDTH 10 0
BBX 9 9 0 0
BITMAP
F380
2300
6100
4080
4080
4080
4080
6100
1E00
ENDCHAR
STARTCHAR 01B2
ENCODING 434
SWIDTH 720 0
DWIDTH 9 0
BBX 7 9 1 0
BITMAP
8E
82
82
82
82
82
82
46
7C
ENDCHAR
STARTCHAR 01B3
ENCODING 435
SWIDTH 560 0
DWIDTH 7 0
BBX 7 9 0 0
BITMAP
86
44
6C
28
38
10
10
10
10
ENDCHAR
STARTCHAR 01B4
ENCODING 436
SWIDTH 560 0
DWIDTH 7 0
BBX 7 10 0 -3
BITMAP
86
44
48
48
28
30
10
10
20
E0
ENDCHAR
STARTCHAR 01B5
ENCODING 437
SWIDTH 560 0
DWIDTH 7 0
BBX 7 9 0 0
BITMAP
7E
04
08
08
7C
30
20
40
FE
ENDCHAR
STARTCHAR 01B6
ENCODING 438
SWIDTH 480 0
DWIDTH 6 0
BBX 5 7 0 0
BITMAP
78
08
10
78
20
40
F8
ENDCHAR
STARTCHAR 01B7
ENCODING 439
SWIDTH 560 0
DWIDTH 7 0
BBX 7 9 0 0
BITMAP
7C
0C
18
30
38
04
06
04
F8
ENDCHAR
STARTCHAR 01B8
ENCODING 440
SWIDTH 560 0
DWIDTH 7 0
BBX 6 9 1 0
BITMAP
FC
40
20
70
80
80
80
84
7C
ENDCHAR
STARTCHAR 01B9
ENCODING 441
SWIDTH 480 0
DWIDTH 6 0
BBX 6 10 0 -3
BITMAP
7C
60
20
10
38
40
C0
C0
40
3C
ENDCHAR
STARTCHAR 01BA
ENCODING 442
SWIDTH 480 0
DWIDTH 6 0
BBX 6 10 0 -3
BITMAP
F8
18
20
78
08
04
08
78
80
78
ENDCHAR
STARTCHAR 01BB
ENCODING 443
SWIDTH 560 0
DWIDTH 7 0
BBX 6 10 1 0
BITMAP
F0
98
08
08
10
F8
20
40
80
FC
ENDCHAR
STARTCHAR 01BC
ENCODING 444
SWIDTH 560 0
DWIDTH 7 0
BBX 7 9 0 0
BITMAP
FC
20
20
38
04
06
06
84
F8
ENDCHAR
STARTCHAR 01BD
ENCODING 445
SWIDTH 480 0
DWIDTH 6 0
BBX 6 7 0 0
BITMAP
78
40
78
08
0C
88
F8
ENDCHAR
STARTCHAR 01BE
ENCODING 446
SWIDTH 480 0
DWIDTH 6 0
BBX 5 9 0 0
BITMAP
20
20
78
20
20
30
08
08
F0
ENDCHAR
STARTCHAR 01BF
ENCODING 447
SWIDTH 560 0
DWIDTH 7 0
BBX 6 10 1 -3
BITMAP
B8
CC
84
84
88
98
E0
80
80
80
ENDCHAR
STARTCHAR 01C0
ENCODING 448
SWIDTH 320 0
DWIDTH 4 0
BBX 1 10 2 0
BITMAP
80
80
80
80
80
80
80
80
80
80
ENDCHAR
STARTCHAR 01C1
ENCODING 449
SWIDTH 560 0
DWIDTH 7 0
BBX 3 10 2 0
BITMAP
A0
A0
A0
A0
A0
A0
A0
A0
A0
A0
ENDCHAR
STARTCHAR 01C2
ENCODING 450
SWIDTH 480 0
DWIDTH 6 0
BBX 5 10 1 0
BITMAP
20
20
20
F8
20
20
F8
20
20
20
ENDCHAR
STARTCHAR 01C3
ENCODING 451
SWIDTH 240 0
DWIDTH 3 0
BBX 1 9 1 0
BITMAP
80
80
80
80
80
80
00
80
80
ENDCHAR
STARTCHAR 01C4
ENCODING 452
SWIDTH 1280 0
DWIDTH 16 0
BBX 15 12 1 0
BITMAP
002C
0018
0000
F87E
8404
8208
8208
8210
8220
8220
8440
F8FE
ENDCHAR
STARTCHAR 01C5
ENCODING 453
SWIDTH 1200 0
DWIDTH 15 0
BBX 14 10 1 0
BITMAP
0048
F830
8400
8278
8208
8210
8230
8220
8440
F87C
ENDCHAR
STARTCHAR 01C6
ENCODING 454
SWIDTH 1120 0
DWIDTH 14 0
BBX 12 10 1 0
BITMAP
04B0
0460
0400
75F0
8C30
8C20
8440
8CC0
8C80
75F0
ENDCHAR
STARTCHAR 01C7
ENCODING 455
SWIDTH 800 0
DWIDTH 10 0
BBX 8 12 1 -3
BITMAP
81
81
81
81
81
81
81
81
F9
01
03
06
ENDCHAR
STARTCHAR 01C8
ENCODING 456
SWIDTH 800 0
DWIDTH 10 0
BBX 8 13 1 -3
BITMAP
01
80
80
81
81
81
81
81
81
F9
01
01
06
ENDCHAR
STARTCHAR 01C9
ENCODING 457
SWIDTH 480 0
DWIDTH 6 0
BBX 4 13 1 -3
BITMAP
90
80
80
90
90
90
90
90
90
90
10
10
30
ENDCHAR
STARTCHAR 01CA
ENCODING 458
SWIDTH 1040 0
DWIDTH 13 0
BBX 11 12 1 -3
BITMAP
C220
C220
A220
B220
9220
8A20
8E20
8620
8220
0020
0060
00C0
ENDCHAR
STARTCHAR 01CB
ENCODING 459
SWIDTH 1040 0
DWIDTH 13 0
BBX 11 13 1 -3
BITMAP
0060
C200
C200
A220
B220
9220
8A20
8E20
8620
8220
0020
0020
00C0
ENDCHAR
STARTCHAR 01CC
ENCODING 460
SWIDTH 880 0
DWIDTH 11 0
BBX 9 13 1 -3
BITMAP
0080
0000
0000
B880
CC80
8480
8480
8480
8480
8480
0080
0080
0300
ENDCHAR
STARTCHAR 01CD
ENCODING 461
SWIDTH 640 0
DWIDTH 8 0
BBX 8 12 0 0
BITMAP
24
18
00
18
18
18
24
24
7E
42
42
81
ENDCHAR
STARTCHAR 01CE
ENCODING 462
SWIDTH 560 0
DWIDTH 7 0
BBX 5 10 1 0
BITMAP
D8
20
00
F0
08
08
F8
88
98
E8
ENDCHAR
STARTCHAR 01CF
ENCODING 463
SWIDTH 320 0
DWIDTH 4 0
BBX 4 12 0 0
BITMAP
90
60
00
F0
20
20
20
20
20
20
20
F0
ENDCHAR
STARTCHAR 01D0
ENCODING 464
SWIDTH 240 0
DWIDTH 3 0
BBX 5 10 -1 0
BITMAP
D8
30
00
20
20
20
20
20
20
20
ENDCHAR
STARTCHAR 01D1
ENCODING 465
SWIDTH 800 0
DWIDTH 10 0
BBX 8 12 1 0
BITMAP
24
18
00
3C
42
83
81
81
81
83
42
3C
ENDCHAR
STARTCHAR 01D2
ENCODING 466
SWIDTH 640 0
DWIDTH 8 0
BBX 6 10 1 0
BITMAP
58
30
00
78
88
84
84
84
88
78
ENDCHAR
STARTCHAR 01D3
ENCODING 467
SWIDTH 720 0
DWIDTH 9 0
BBX 7 12 1 0
BITMAP
6C
10
00
82
82
82
82
82
82
82
46
7C
ENDCHAR
STARTCHAR 01D4
ENCODING 468
SWIDTH 640 0
DWIDTH 8 0
BBX 6 10 1 0
BITMAP
48
30
00
84
84
84
84
8C
8C
74
ENDCHAR
STARTCHAR 01D5
ENCODING 469
SWIDTH 720 0
DWIDTH 9 0
BBX 7 13 1 0
BITMAP
38
00
28
00
82
82
82
82
82
82
82
46
7C
ENDCHAR
STARTCHAR 01D6
ENCODING 470
SWIDTH 640 0
DWIDTH 8 0
BBX 6 11 1 0
BITMAP
78
00
58
00
84
84
84
84
8C
8C
74
ENDCHAR
STARTCHAR 01D7
ENCODING 471
SWIDTH 720 0
DWIDTH 9 0
BBX 7 14 1 0
BITMAP
08
08
10
28
00
82
82
82
82
82
82
82
46
7C
ENDCHAR
STARTCHAR 01D8
ENCODING 472
SWIDTH 640 0
DWIDTH 8 0
BBX 6 11 1 0
BITMAP
18
20
58
00
84
84
84
84
8C
8C
74
ENDCHAR
STARTCHAR 01D9
ENCODING 473
SWIDTH 720 0
DWIDTH 9 0
BBX 7 14 1 0
BITMAP
44
38
00
28
00
82
82
82
82
82
82
82
46
7C
ENDCHAR
STARTCHAR 01DA
ENCODING 474
SWIDTH 640 0
DWIDTH 8 0
BBX 6 12 1 0
BITMAP
48
30
20
58
00
84
84
84
84
8C
8C
74
ENDCHAR
STARTCHAR 01DB
ENCODING 475
SWIDTH 720 0
DWIDTH 9 0
BBX 7 14 1 0
BITMAP
20
30
10
28
00
82
82
82
82
82
82
82
46
7C
ENDCHAR
STARTCHAR 01DC
ENCODING 476
SWIDTH 640 0
DWIDTH 8 0
BBX 6 11 1 0
BITMAP
60
10
58
00
84
84
84
84
8C
8C
74
ENDCHAR
STARTCHAR 01DD
ENCODING 477
SWIDTH 560 0
DWIDTH 7 0
BBX 5 7 1 0
BITMAP
F0
08
08
F8
88
88
70
ENDCHAR
STARTCHAR 01DE
ENCODING 478
SWIDTH 640 0
DWIDTH 8 0
BBX 8 13 0 0
BITMAP
3C
00
24
00
18
18
18
24
24
7E
42
42
81
ENDCHAR
STARTCHAR 01DF
ENCODING 479
SWIDTH 560 0
DWIDTH 7 0
BBX 5 11 1 0
BITMAP
70
00
50
00
F0
08
08
F8
88
98
E8
ENDCHAR
STARTCHAR 01E0
ENCODING 480
SWIDTH 640 0
DWIDTH 8 0
BBX 8 13 0 0
BITMAP
3C
00
18
00
18
18
18
24
24
7E
42
42
81
ENDCHAR
STARTCHAR 01E1
ENCODING 481
SWIDTH 560 0
DWIDTH 7 0
BBX 5 11 1 0
BITMAP
70
00
20
00
F0
08
08
F8
88
98
E8
ENDCHAR
STARTCHAR 01E2
ENCODING 482
SWIDTH 880 0
DWIDTH 11 0
BBX 10 11 0 0
BITMAP
0F00
0000
0FC0
0A00
1200
1200
23C0
3E00
4200
4200
83C0
ENDCHAR
STARTCHAR 01E3
ENCODING 483
SWIDTH 880 0
DWIDTH 11 0
BBX 9 9 1 0
BITMAP
1C00
0000
F700
0880
0880
FF80
8800
9800
E780
ENDCHAR
STARTCHAR 01E4
ENCODING 484
SWIDTH 720 0
DWIDTH 9 0
BBX 8 9 1 0
BITMAP
3E
40
80
80
8E
82
8F
42
3E
ENDCHAR
STARTCHAR 01E5
ENCODING 485
SWIDTH 640 0
DWIDTH 8 0
BBX 6 10 1 -3
BITMAP
74
8C
8C
84
8C
8C
74
3C
88
F8
ENDCHAR
STARTCHAR 01E6
ENCODING 486
SWIDTH 720 0
DWIDTH 9 0
BBX 7 12 1 0
BITMAP
24
18
00
3E
40
80
80
8E
82
82
42
3E
ENDCHAR
STARTCHAR 01E7
ENCODING 487
SWIDTH 640 0
DWIDTH 8 0
BBX 6 13 1 -3
BITMAP
58
30
00
74
8C
8C
84
8C
8C
74
04
08
F8
ENDCHAR
STARTCHAR 01E8
ENCODING 488
SWIDTH 640 0
DWIDTH 8 0
BBX 7 12 1 0
BITMAP
68
30
00
86
88
90
A0
E0
90
88
8C
86
ENDCHAR
STARTCHAR 01E9
ENCODING 489
SWIDTH 560 0
DWIDTH 7 0
BBX 8 13 -1 0
BITMAP
D8
30
00
20
20
20
22
24
28
38
2C
24
23
ENDCHAR
STARTCHAR 01EA
ENCODING 490
SWIDTH 800 0
DWIDTH 10 0
BBX 8 12 1 -3
BITMAP
3C
42
83
81
81
81
83
42
3C
10
10
18
ENDCHAR
STARTCHAR 01EB
ENCODING 491
SWIDTH 640 0
DWIDTH 8 0
BBX 6 10 1 -3
BITMAP
78
88
84
84
84
88
78
20
20
30
ENDCHAR
STARTCHAR 01EC
ENCODING 492
SWIDTH 800 0
DWIDTH 10 0
BBX 8 14 1 -3
BITMAP
3C
00
3C
42
83
81
81
81
83
42
3C
10
10
18
ENDCHAR
STARTCHAR 01ED
ENCODING 493
SWIDTH 640 0
DWIDTH 8 0
BBX 6 12 1 -3
BITMAP
78
00
78
88
84
84
84
88
78
20
20
30
ENDCHAR
STARTCHAR 01EE
ENCODING 494
SWIDTH 560 0
DWIDTH 7 0
BBX 7 12 0 0
BITMAP
6C
10
00
7C
0C
18
30
38
04
06
04
F8
ENDCHAR
STARTCHAR 01EF
ENCODING 495
SWIDTH 480 0
DWIDTH 6 0
BBX 6 13 0 -3
BITMAP
48
30
00
F8
08
10
20
78
08
04
04
08
F0
ENDCHAR
STARTCHAR 01F0
ENCODING 496
SWIDTH 240 0
DWIDTH 3 0
BBX 5 13 -1 -3
BITMAP
D8
30
00
20
20
20
20
20
20
20
20
20
E0
ENDCHAR
STARTCHAR 01F1
ENCODING 497
SWIDTH 1280 0
DWIDTH 16 0
BBX 15 9 1 0
BITMAP
F87E
8404
8208
8208
8210
8220
8220
8440
F8FE
ENDCHAR
STARTCHAR 01F2
ENCODING 498
SWIDTH 1200 0
DWIDTH 15 0
BBX 14 9 1 0
BITMAP
F800
8400
8278
8208
8210
8230
8220
8440
F87C
ENDCHAR
STARTCHAR 01F3
ENCODING 499
SWIDTH 1120 0
DWIDTH 14 0
BBX 12 10 1 0
BITMAP
0400
0400
0400
75F0
8C30
8C20
8440
8CC0
8C80
75F0
ENDCHAR
STARTCHAR 01F4
ENCODING 500
SWIDTH 720 0
DWIDTH 9 0
BBX 7 12 1 0
BITMAP
0C
18
00
3E
40
80
80
8E
82
82
42
3E
ENDCHAR
STARTCHAR 01F5
ENCODING 501
SWIDTH 640 0
DWIDTH 8 0
BBX 6 13 1 -3
BITMAP
10
20
00
74
8C
8C
84
8C
8C
74
04
08
F8
ENDCHAR
STARTCHAR 01F6
ENCODING 502
SWIDTH 960 0
DWIDTH 12 0
BBX 10 9 1 0
BITMAP
8400
8400
84C0
84C0
FCC0
84C0
84C0
8480
8380
ENDCHAR
STARTCHAR 01F7
ENCODING 503
SWIDTH 640 0
DWIDTH 8 0
BBX 7 12 1 -3
BITMAP
BC
C4
86
86
84
84
88
90
E0
80
80
80
ENDCHAR
STARTCHAR 01F8
ENCODING 504
SWIDTH 800 0
DWIDTH 10 0
BBX 7 12 1 0
BITMAP
30
18
00
C2
C2
A2
B2
92
8A
8E
86
82
ENDCHAR
STARTCHAR 01F9
ENCODING 505
SWIDTH 640 0
DWIDTH 8 0
BBX 6 10 1 0
BITMAP
60
30
00
B8
CC
84
84
84
84
84
ENDCHAR
STARTCHAR 01FA
ENCODING 506
SWIDTH 640 0
DWIDTH 8 0
BBX 8 13 0 0
BITMAP
0C
08
10
18
24
18
18
24
24
7C
42
42
81
ENDCHAR
STARTCHAR 01FB
ENCODING 507
SWIDTH 560 0
DWIDTH 7 0
BBX 5 13 1 0
BITMAP
18
20
30
50
30
00
F0
08
08
F8
88
98
E8
ENDCHAR
STARTCHAR 01FC
ENCODING 508
SWIDTH 880 0
DWIDTH 11 0
BBX 10 12 0 0
BITMAP
0300
0600
0000
0FC0
0A00
1200
1200
23C0
3E00
4200
4200
83C0
ENDCHAR
STARTCHAR 01FD
ENCODING 509
SWIDTH 880 0
DWIDTH 11 0
BBX 9 10 1 0
BITMAP
0400
0800
0000
F700
0880
0880
FF80
8800
9800
E780
ENDCHAR
STARTCHAR 01FE
ENCODING 510
SWIDTH 800 0
DWIDTH 10 0
BBX 8 12 1 0
BITMAP
0C
10
00
3E
46
87
89
91
91
A3
42
FC
ENDCHAR
STARTCHAR 01FF
ENCODING 511
SWIDTH 640 0
DWIDTH 8 0
BBX 6 10 1 0
BITMAP
18
20
00
7C
88
94
A4
A4
C8
F8
ENDCHAR
STARTCHAR 0200
ENCODING 512
SWIDTH 640 0
DWIDTH 8 0
BBX 8 12 0 0
BITMAP
78
2C
00
18
18
18
24
24
7E
42
42
81
ENDCHAR
STARTCHAR 0201
ENCODING 513
SWIDTH 560 0
DWIDTH 7 0
BBX 5 10 1 0
BITMAP
A0
50
00
F0
08
08
F8
88
98
E8
ENDCHAR
STARTCHAR 0202
ENCODING 514
SWIDTH 640 0
DWIDTH 8 0
BBX 8 12 0 0
BITMAP
18
24
00
18
18
18
24
24
7E
42
42
81
ENDCHAR
STARTCHAR 0203
ENCODING 515
SWIDTH 560 0
DWIDTH 7 0
BBX 5 10 1 0
BITMAP
70
88
00
F0
08
08
F8
88
98
E8
ENDCHAR
STARTCHAR 0204
ENCODING 516
SWIDTH 560 0
DWIDTH 7 0
BBX 5 12 1 0
BITMAP
B0
58
00
F8
80
80
80
F8
80
80
80
F8
ENDCHAR
STARTCHAR 0205
ENCODING 517
SWIDTH 560 0
DWIDTH 7 0
BBX 5 10 1 0
BITMAP
A0
50
00
70
88
88
F8
80
80
78
ENDCHAR
STARTCHAR 0206
ENCODING 518
SWIDTH 560 0
DWIDTH 7 0
BBX 5 12 1 0
BITMAP
70
48
00
F8
80
80
80
F8
80
80
80
F8
ENDCHAR
STARTCHAR 0207
ENCODING 519
SWIDTH 560 0
DWIDTH 7 0
BBX 5 10 1 0
BITMAP
70
48
00
70
88
88
F8
80
80
78
ENDCHAR
STARTCHAR 0208
ENCODING 520
SWIDTH 320 0
DWIDTH 4 0
BBX 5 12 -1 0
BITMAP
D0
68
00
78
10
10
10
10
10
10
10
78
ENDCHAR
STARTCHAR 0209
ENCODING 521
SWIDTH 240 0
DWIDTH 3 0
BBX 4 10 -1 0
BITMAP
A0
50
00
20
20
20
20
20
20
20
ENDCHAR
STARTCHAR 020A
ENCODING 522
SWIDTH 320 0
DWIDTH 4 0
BBX 4 12 0 0
BITMAP
70
90
00
F0
20
20
20
20
20
20
20
F0
ENDCHAR
STARTCHAR 020B
ENCODING 523
SWIDTH 240 0
DWIDTH 3 0
BBX 4 10 0 0
BITMAP
E0
90
00
40
40
40
40
40
40
40
ENDCHAR
STARTCHAR 020C
ENCODING 524
SWIDTH 800 0
DWIDTH 10 0
BBX 8 12 1 0
BITMAP
78
2C
00
3C
42
83
81
81
81
83
42
3C
ENDCHAR
STARTCHAR 020D
ENCODING 525
SWIDTH 640 0
DWIDTH 8 0
BBX 6 10 1 0
BITMAP
B0
50
00
78
88
84
84
84
88
78
ENDCHAR
STARTCHAR 020E
ENCODING 526
SWIDTH 800 0
DWIDTH 10 0
BBX 8 12 1 0
BITMAP
18
24
00
3C
42
83
81
81
81
83
42
3C
ENDCHAR
STARTCHAR 020F
ENCODING 527
SWIDTH 640 0
DWIDTH 8 0
BBX 6 10 1 0
BITMAP
70
48
00
78
88
84
84
84
88
78
ENDCHAR
STARTCHAR 0210
ENCODING 528
SWIDTH 640 0
DWIDTH 8 0
BBX 7 12 1 0
BITMAP
F0
58
00
F8
8C
84
8C
F8
98
88
8C
86
ENDCHAR
STARTCHAR 0211
ENCODING 529
SWIDTH 400 0
DWIDTH 5 0
BBX 5 10 0 0
BITMAP
F0
58
00
58
60
40
40
40
40
40
ENDCHAR
STARTCHAR 0212
ENCODING 530
SWIDTH 640 0
DWIDTH 8 0
BBX 7 12 1 0
BITMAP
30
48
00
F8
8C
84
8C
F8
98
88
8C
86
ENDCHAR
STARTCHAR 0213
ENCODING 531
SWIDTH 400 0
DWIDTH 5 0
BBX 4 10 1 0
BITMAP
60
90
00
B0
C0
80
80
80
80
80
ENDCHAR
STARTCHAR 0214
ENCODING 532
SWIDTH 720 0
DWIDTH 9 0
BBX 7 12 1 0
BITMAP
50
28
00
82
82
82
82
82
82
82
46
7C
ENDCHAR
STARTCHAR 0215
ENCODING 533
SWIDTH 640 0
DWIDTH 8 0
BBX 6 10 1 0
BITMAP
F0
58
00
84
84
84
84
8C
8C
74
ENDCHAR
STARTCHAR 0216
ENCODING 534
SWIDTH 720 0
DWIDTH 9 0
BBX 7 12 1 0
BITMAP
38
24
00
82
82
82
82
82
82
82
46
7C
ENDCHAR
STARTCHAR 0217
ENCODING 535
SWIDTH 640 0
DWIDTH 8 0
BBX 6 10 1 0
BITMAP
30
48
00
84
84
84
84
8C
8C
74
ENDCHAR
STARTCHAR 0218
ENCODING 536
SWIDTH 560 0
DWIDTH 7 0
BBX 5 12 1 -3
BITMAP
78
80
80
C0
70
08
08
08
F0
00
20
40
ENDCHAR
STARTCHAR 0219
ENCODING 537
SWIDTH 480 0
DWIDTH 6 0
BBX 4 10 1 -3
BITMAP
F0
80
80
60
10
10
F0
00
20
40
ENDCHAR
STARTCHAR 021A
ENCODING 538
SWIDTH 560 0
DWIDTH 7 0
BBX 7 12 0 -3
BITMAP
FE
10
10
10
10
10
10
10
10
00
10
10
ENDCHAR
STARTCHAR 021B
ENCODING 539
SWIDTH 400 0
DWIDTH 5 0
BBX 4 12 0 -3
BITMAP
40
40
F0
40
40
40
40
40
30
00
20
20
ENDCHAR
STARTCHAR 021C
ENCODING 540
SWIDTH 560 0
DWIDTH 7 0
BBX 7 12 0 -3
BITMAP
F8
44
04
04
38
24
06
04
04
18
F0
80
ENDCHAR
STARTCHAR 021D
ENCODING 541
SWIDTH 480 0
DWIDTH 6 0
BBX 6 10 0 -3
BITMAP
78
08
08
18
38
0C
0C
08
30
C0
ENDCHAR
STARTCHAR 021E
ENCODING 542
SWIDTH 720 0
DWIDTH 9 0
BBX 7 12 1 0
BITMAP
2C
18
00
82
82
82
82
FE
82
82
82
82
ENDCHAR
STARTCHAR 021F
ENCODING 543
SWIDTH 640 0
DWIDTH 8 0
BBX 7 13 0 0
BITMAP
B0
60
00
40
40
40
5C
66
42
42
42
42
42
ENDCHAR
STARTCHAR 0220
ENCODING 544
SWIDTH 720 0
DWIDTH 9 0
BBX 7 12 1 -3
BITMAP
BC
C2
C2
82
82
82
82
82
82
02
02
02
ENDCHAR
STARTCHAR 0221
ENCODING 545
SWIDTH 880 0
DWIDTH 11 0
BBX 10 11 1 -1
BITMAP
0400
0400
0400
7400
8C00
8C00
8400
8D80
8E40
7780
0400
ENDCHAR
STARTCHAR 0222
ENCODING 546
SWIDTH 640 0
DWIDTH 8 0
BBX 7 9 1 0
BITMAP
84
84
C4
78
84
86
86
84
78
ENDCHAR
STARTCHAR 0223
ENCODING 547
SWIDTH 560 0
DWIDTH 7 0
BBX 6 10 1 0
BITMAP
88
88
88
C8
70
88
84
84
8C
78
ENDCHAR
STARTCHAR 0224
ENCODING 548
SWIDTH 560 0
DWIDTH 7 0
BBX 7 12 0 -3
BITMAP
7E
04
08
08
10
20
20
40
FE
02
02
0C
ENDCHAR
STARTCHAR 0225
ENCODING 549
SWIDTH 480 0
DWIDTH 6 0
BBX 5 10 0 -3
BITMAP
78
08
10
30
20
40
F8
08
08
18
ENDCHAR
STARTCHAR 0226
ENCODING 550
SWIDTH 640 0
DWIDTH 8 0
BBX 8 11 0 0
BITMAP
18
00
18
18
18
24
24
7E
42
42
81
ENDCHAR
STARTCHAR 0227
ENCODING 551
SWIDTH 560 0
DWIDTH 7 0
BBX 5 9 1 0
BITMAP
20
00
F0
08
08
F8
88
98
E8
ENDCHAR
STARTCHAR 0228
ENCODING 552
SWIDTH 560 0
DWIDTH 7 0
BBX 5 12 1 -3
BITMAP
F8
80
80
80
F8
80
80
80
F8
20
10
30
ENDCHAR
STARTCHAR 0229
ENCODING 553
SWIDTH 560 0
DWIDTH 7 0
BBX 5 10 1 -3
BITMAP
70
88
88
F8
80
80
78
20
10
30
ENDCHAR
STARTCHAR 022A
ENCODING 554
SWIDTH 800 0
DWIDTH 10 0
BBX 8 13 1 0
BITMAP
3C
00
2C
00
3C
42
83
81
81
81
83
42
3C
ENDCHAR
STARTCHAR 022B
ENCODING 555
SWIDTH 640 0
DWIDTH 8 0
BBX 6 11 1 0
BITMAP
78
00
58
00
78
88
84
84
84
88
78
ENDCHAR
STARTCHAR 022C
ENCODING 556
SWIDTH 800 0
DWIDTH 10 0
BBX 8 13 1 0
BITMAP
3C
34
2C
00
3C
42
83
81
81
81
83
42
3C
ENDCHAR
STARTCHAR 022D
ENCODING 557
SWIDTH 640 0
DWIDTH 8 0
BBX 6 11 1 0
BITMAP
78
00
78
00
78
88
84
84
84
88
78
ENDCHAR
STARTCHAR 022E
ENCODING 558
SWIDTH 800 0
DWIDTH 10 0
BBX 8 11 1 0
BITMAP
18
00
3C
42
83
81
81
81
83
42
3C
ENDCHAR
STARTCHAR 022F
ENCODING 559
SWIDTH 640 0
DWIDTH 8 0
BBX 6 9 1 0
BITMAP
20
00
78
88
84
84
84
88
78
ENDCHAR
STARTCHAR 0230
ENCODING 560
SWIDTH 800 0
DWIDTH 10 0
BBX 8 13 1 0
BITMAP
3C
00
18
00
3C
42
83
81
81
81
83
42
3C
ENDCHAR
STARTCHAR 0231
ENCODING 561
SWIDTH 640 0
DWIDTH 8 0
BBX 6 11 1 0
BITMAP
78
00
20
00
78
88
84
84
84
88
78
ENDCHAR
STARTCHAR 0232
ENCODING 562
SWIDTH 560 0
DWIDTH 7 0
BBX 7 11 0 0
BITMAP
38
00
82
44
64
28
38
10
10
10
10
ENDCHAR
STARTCHAR 0233
ENCODING 563
SWIDTH 480 0
DWIDTH 6 0
BBX 6 12 0 -3
BITMAP
78
00
84
44
48
48
28
30
10
10
20
E0
ENDCHAR
STARTCHAR 0234
ENCODING 564
SWIDTH 400 0
DWIDTH 5 0
BBX 5 10 0 0
BITMAP
40
40
40
40
40
40
40
70
48
B0
ENDCHAR
STARTCHAR 0235
ENCODING 565
SWIDTH 720 0
DWIDTH 9 0
BBX 8 7 1 0
BITMAP
B8
CC
84
84
87
8D
8F
ENDCHAR
STARTCHAR 0236
ENCODING 566
SWIDTH 400 0
DWIDTH 5 0
BBX 5 9 0 0
BITMAP
40
40
F0
40
40
40
70
48
B0
ENDCHAR
STARTCHAR 0237
ENCODING 567
SWIDTH 240 0
DWIDTH 3 0
BBX 3 10 -1 -3
BITMAP
20
20
20
20
20
20
20
20
20
E0
ENDCHAR
STARTCHAR 0238
ENCODING 568
SWIDTH 960 0
DWIDTH 12 0
BBX 10 10 1 0
BITMAP
0400
0400
0400
7780
8C40
8C40
8440
8C40
8C40
7380
ENDCHAR
STARTCHAR 0239
ENCODING 569
SWIDTH 960 0
DWIDTH 12 0
BBX 10 10 1 -3
BITMAP
7380
8C40
8C40
8440
8C40
8C40
7780
0400
0400
0400
ENDCHAR
STARTCHAR 023A
ENCODING 570
SWIDTH 640 0
DWIDTH 8 0
BBX 8 11 0 -1
BITMAP
04
1C
18
18
2C
2C
7E
52
52
A1
20
ENDCHAR
STARTCHAR 023B
ENCODING 571
SWIDTH 640 0
DWIDTH 8 0
BBX 7 11 1 -1
BITMAP
04
3E
48
88
88
90
90
90
60
3C
20
ENDCHAR
STARTCHAR 023C
ENCODING 572
SWIDTH 480 0
DWIDTH 6 0
BBX 5 12 1 -2
BITMAP
08
08
10
78
90
A0
A0
A0
C0
70
80
80
ENDCHAR
STARTCHAR 023D
ENCODING 573
SWIDTH 560 0
DWIDTH 7 0
BBX 6 9 0 0
BITMAP
40
40
40
40
F0
40
40
40
7C
ENDCHAR
STARTCHAR 023E
ENCODING 574
SWIDTH 560 0
DWIDTH 7 0
BBX 7 11 0 -1
BITMAP
06
FE
14
18
18
10
10
30
30
50
40
ENDCHAR
STARTCHAR 023F
ENCODING 575
SWIDTH 480 0
DWIDTH 6 0
BBX 5 10 1 -3
BITMAP
F0
80
80
60
10
10
F0
40
60
38
ENDCHAR
STARTCHAR 0240
ENCODING 576
SWIDTH 480 0
DWIDTH 6 0
BBX 6 10 0 -3
BITMAP
78
08
10
30
20
40
E0
20
10
1C
ENDCHAR
STARTCHAR 0241
ENCODING 577
SWIDTH 480 0
DWIDTH 6 0
BBX 5 9 0 0
BITMAP
F0
88
08
08
10
20
20
20
20
ENDCHAR
STARTCHAR 0242
ENCODING 578
SWIDTH 400 0
DWIDTH 5 0
BBX 5 7 0 0
BITMAP
F0
88
08
08
10
20
20
ENDCHAR
STARTCHAR 0243
ENCODING 579
SWIDTH 640 0
DWIDTH 8 0
BBX 7 9 0 0
BITMAP
7C
42
42
42
7C
42
F2
42
7C
ENDCHAR
STARTCHAR 0244
ENCODING 580
SWIDTH 720 0
DWIDTH 9 0
BBX 9 9 0 0
BITMAP
4100
4100
4100
FF80
4100
4100
4100
2200
1E00
ENDCHAR
STARTCHAR 0245
ENCODING 581
SWIDTH 640 0
DWIDTH 8 0
BBX 8 9 0 0
BITMAP
18
18
28
2C
24
44
42
42
83
ENDCHAR
STARTCHAR 0246
ENCODING 582
SWIDTH 560 0
DWIDTH 7 0
BBX 5 11 1 -1
BITMAP
08
F8
90
90
90
F8
A0
A0
A0
F8
40
ENDCHAR
STARTCHAR 0247
ENCODING 583
SWIDTH 560 0
DWIDTH 7 0
BBX 5 12 1 -2
BITMAP
08
08
10
70
98
A8
F8
A0
C0
78
40
80
ENDCHAR
STARTCHAR 0248
ENCODING 584
SWIDTH 240 0
DWIDTH 3 0
BBX 4 12 -1 -3
BITMAP
20
20
20
20
70
20
20
20
20
20
20
C0
ENDCHAR
STARTCHAR 0249
ENCODING 585
SWIDTH 240 0
DWIDTH 3 0
BBX 4 13 -1 -3
BITMAP
20
00
00
20
20
20
70
20
20
20
20
20
E0
ENDCHAR
STARTCHAR 024A
ENCODING 586
SWIDTH 800 0
DWIDTH 10 0
BBX 9 12 1 -3
BITMAP
3A00
4600
8200
8200
8200
8200
8200
4200
3E00
0200
0200
0180
ENDCHAR
STARTCHAR 024B
ENCODING 587
SWIDTH 640 0
DWIDTH 8 0
BBX 7 10 1 -3
BITMAP
74
8C
8C
84
8C
8C
74
04
04
06
ENDCHAR
STARTCHAR 024C
ENCODING 588
SWIDTH 640 0
DWIDTH 8 0
BBX 8 9 0 0
BITMAP
7C
46
42
46
FC
4C
44
46
43
ENDCHAR
STARTCHAR 024D
ENCODING 589
SWIDTH 400 0
DWIDTH 5 0
BBX 5 7 0 0
BITMAP
58
60
40
F0
40
40
40
ENDCHAR
STARTCHAR 024E
ENCODING 590
SWIDTH 560 0
DWIDTH 7 0
BBX 7 9 0 0
BITMAP
C6
FE
28
28
10
10
10
10
10
ENDCHAR
STARTCHAR 024F
ENCODING 591
SWIDTH 480 0
DWIDTH 6 0
BBX 6 10 0 -3
BITMAP
84
44
FC
68
28
30
10
30
20
C0
ENDCHAR
STARTCHAR 0250
ENCODING 592
SWIDTH 560 0
DWIDTH 7 0
BBX 5 7 1 0
BITMAP
B8
C8
88
F8
80
80
78
ENDCHAR
STARTCHAR 0251
ENCODING 593
SWIDTH 640 0
DWIDTH 8 0
BBX 7 7 1 0
BITMAP
74
8C
8C
84
8C
8C
76
ENDCHAR
STARTCHAR 0252
ENCODING 594
SWIDTH 640 0
DWIDTH 8 0
BBX 7 7 0 0
BITMAP
DC
66
42
42
42
66
5C
ENDCHAR
STARTCHAR 0253
ENCODING 595
SWIDTH 640 0
DWIDTH 8 0
BBX 6 10 1 0
BITMAP
C0
80
80
B8
CC
84
84
84
CC
B8
ENDCHAR
STARTCHAR 0254
ENCODING 596
SWIDTH 480 0
DWIDTH 6 0
BBX 5 7 0 0
BITMAP
F0
08
08
08
08
08
F0
ENDCHAR
STARTCHAR 0255
ENCODING 597
SWIDTH 560 0
DWIDTH 7 0
BBX 5 8 1 -1
BITMAP
78
C0
80
80
B8
C8
F8
80
ENDCHAR
STARTCHAR 0256
ENCODING 598
SWIDTH 640 0
DWIDTH 8 0
BBX 7 13 1 -3
BITMAP
04
04
04
74
8C
8C
84
8C
8C
74
04
04
06
ENDCHAR
STARTCHAR 0257
ENCODING 599
SWIDTH 640 0
DWIDTH 8 0
BBX 7 10 1 0
BITMAP
06
04
04
74
8C
8C
84
8C
8C
74
ENDCHAR
STARTCHAR 0258
ENCODING 600
SWIDTH 560 0
DWIDTH 7 0
BBX 5 7 1 0
BITMAP
70
88
88
F8
08
08
F0
ENDCHAR
STARTCHAR 0259
ENCODING 601
SWIDTH 560 0
DWIDTH 7 0
BBX 5 7 1 0
BITMAP
F0
08
08
F8
88
88
70
ENDCHAR
STARTCHAR 025A
ENCODING 602
SWIDTH 800 0
DWIDTH 10 0
BBX 9 7 1 0
BITMAP
F000
0800
0E00
3A00
CB80
8800
7000
ENDCHAR
STARTCHAR 025B
ENCODING 603
SWIDTH 480 0
DWIDTH 6 0
BBX 5 7 1 0
BITMAP
F8
80
80
60
80
80
F8
ENDCHAR
STARTCHAR 025C
ENCODING 604
SWIDTH 480 0
DWIDTH 6 0
BBX 6 7 0 0
BITMAP
F8
08
08
30
08
0C
F8
ENDCHAR
STARTCHAR 025D
ENCODING 605
SWIDTH 720 0
DWIDTH 9 0
BBX 9 7 0 0
BITMAP
F800
0E00
0A00
3380
0800
0C00
F800
ENDCHAR
STARTCHAR 025E
ENCODING 606
SWIDTH 640 0
DWIDTH 8 0
BBX 6 7 1 0
BITMAP
78
84
84
B8
84
84
78
ENDCHAR
STARTCHAR 025F
ENCODING 607
SWIDTH 240 0
DWIDTH 3 0
BBX 4 10 -1 -3
BITMAP
20
20
20
70
20
20
20
20
20
E0
ENDCHAR
STARTCHAR 0260
ENCODING 608
SWIDTH 640 0
DWIDTH 8 0
BBX 7 13 1 -3
BITMAP
06
04
04
74
8C
8C
84
8C
8C
74
04
08
F8
ENDCHAR
STARTCHAR 0261
ENCODING 609
SWIDTH 640 0
DWIDTH 8 0
BBX 6 10 1 -3
BITMAP
74
8C
8C
84
8C
8C
74
04
08
F8
ENDCHAR
STARTCHAR 0262
ENCODING 610
SWIDTH 560 0
DWIDTH 7 0
BBX 5 7 1 0
BITMAP
78
80
80
98
88
88
78
ENDCHAR
STARTCHAR 0263
ENCODING 611
SWIDTH 480 0
DWIDTH 6 0
BBX 6 10 0 -3
BITMAP
84
44
48
68
30
30
30
30
28
30
ENDCHAR
STARTCHAR 0264
ENCODING 612
SWIDTH 480 0
DWIDTH 6 0
BBX 6 7 0 0
BITMAP
84
48
38
30
30
28
30
ENDCHAR
STARTCHAR 0265
ENCODING 613
SWIDTH 640 0
DWIDTH 8 0
BBX 6 10 1 -3
BITMAP
84
84
84
84
8C
8C
74
04
04
04
ENDCHAR
STARTCHAR 0266
ENCODING 614
SWIDTH 640 0
DWIDTH 8 0
BBX 6 10 1 0
BITMAP
C0
80
80
B8
CC
84
84
84
84
84
ENDCHAR
STARTCHAR 0267
ENCODING 615
SWIDTH 640 0
DWIDTH 8 0
BBX 6 13 1 -3
BITMAP
C0
80
80
B8
CC
84
84
84
84
84
04
04
18
ENDCHAR
STARTCHAR 0268
ENCODING 616
SWIDTH 240 0
DWIDTH 3 0
BBX 3 10 0 0
BITMAP
40
00
00
40
40
40
E0
40
40
40
ENDCHAR
STARTCHAR 0269
ENCODING 617
SWIDTH 320 0
DWIDTH 4 0
BBX 3 7 1 0
BITMAP
80
80
80
80
80
80
60
ENDCHAR
STARTCHAR 026A
ENCODING 618
SWIDTH 320 0
DWIDTH 4 0
BBX 4 7 0 0
BITMAP
F0
60
60
60
60
60
F0
ENDCHAR
STARTCHAR 026B
ENCODING 619
SWIDTH 400 0
DWIDTH 5 0
BBX 5 10 0 0
BITMAP
20
20
20
20
68
B0
20
20
20
20
ENDCHAR
STARTCHAR 026C
ENCODING 620
SWIDTH 320 0
DWIDTH 4 0
BBX 4 10 0 0
BITMAP
20
20
20
E0
A0
F0
20
20
20
20
ENDCHAR
STARTCHAR 026D
ENCODING 621
SWIDTH 240 0
DWIDTH 3 0
BBX 3 13 1 -3
BITMAP
80
80
80
80
80
80
80
80
80
80
80
80
60
ENDCHAR
STARTCHAR 026E
ENCODING 622
SWIDTH 640 0
DWIDTH 8 0
BBX 7 13 1 -3
BITMAP
80
80
80
FC
84
88
90
BC
86
82
02
04
78
ENDCHAR
STARTCHAR 026F
ENCODING 623
SWIDTH 960 0
DWIDTH 12 0
BBX 10 7 1 0
BITMAP
8840
8840
8840
8840
88C0
8CC0
7740
ENDCHAR
STARTCHAR 0270
ENCODING 624
SWIDTH 960 0
DWIDTH 12 0
BBX 10 10 1 -3
BITMAP
8840
8840
8840
8840
88C0
8CC0
7740
0040
0040
0040
ENDCHAR
STARTCHAR 0271
ENCODING 625
SWIDTH 960 0
DWIDTH 12 0
BBX 10 10 1 -3
BITMAP
BB80
CCC0
8840
8840
8840
8840
8840
0040
0040
0180
ENDCHAR
STARTCHAR 0272
ENCODING 626
SWIDTH 640 0
DWIDTH 8 0
BBX 7 10 0 -3
BITMAP
5C
66
42
42
42
42
42
40
40
C0
ENDCHAR
STARTCHAR 0273
ENCODING 627
SWIDTH 640 0
DWIDTH 8 0
BBX 7 10 1 -3
BITMAP
B8
CC
84
84
84
84
84
04
04
06
ENDCHAR
STARTCHAR 0274
ENCODING 628
SWIDTH 640 0
DWIDTH 8 0
BBX 6 7 1 0
BITMAP
C4
C4
A4
B4
94
8C
8C
ENDCHAR
STARTCHAR 0275
ENCODING 629
SWIDTH 640 0
DWIDTH 8 0
BBX 6 7 1 0
BITMAP
78
88
84
FC
84
88
78
ENDCHAR
STARTCHAR 0276
ENCODING 630
SWIDTH 880 0
DWIDTH 11 0
BBX 9 7 1 0
BITMAP
7780
8C00
8400
8780
8400
8C00
7F80
ENDCHAR
STARTCHAR 0277
ENCODING 631
SWIDTH 800 0
DWIDTH 10 0
BBX 8 7 1 0
BITMAP
3C
C2
81
91
91
99
6E
ENDCHAR
STARTCHAR 0278
ENCODING 632
SWIDTH 720 0
DWIDTH 9 0
BBX 7 13 1 -3
BITMAP
10
10
10
7C
92
92
92
92
D2
7C
10
10
10
ENDCHAR
STARTCHAR 0279
ENCODING 633
SWIDTH 400 0
DWIDTH 5 0
BBX 4 7 0 0
BITMAP
10
10
10
10
10
30
D0
ENDCHAR
STARTCHAR 027A
ENCODING 634
SWIDTH 400 0
DWIDTH 5 0
BBX 4 10 0 0
BITMAP
10
10
10
10
10
10
10
10
30
D0
ENDCHAR
STARTCHAR 027B
ENCODING 635
SWIDTH 400 0
DWIDTH 5 0
BBX 6 10 0 -3
BITMAP
10
10
10
10
10
30
D0
10
10
1C
ENDCHAR
STARTCHAR 027C
ENCODING 636
SWIDTH 400 0
DWIDTH 5 0
BBX 4 10 1 -3
BITMAP
B0
C0
80
80
80
80
80
80
80
80
ENDCHAR
STARTCHAR 027D
ENCODING 637
SWIDTH 400 0
DWIDTH 5 0
BBX 4 10 1 -3
BITMAP
B0
C0
80
80
80
80
80
80
80
60
ENDCHAR
STARTCHAR 027E
ENCODING 638
SWIDTH 320 0
DWIDTH 4 0
BBX 3 7 1 0
BITMAP
60
80
80
80
80
80
80
ENDCHAR
STARTCHAR 027F
ENCODING 639
SWIDTH 320 0
DWIDTH 4 0
BBX 3 10 0 -3
BITMAP
E0
20
20
20
20
20
20
20
20
20
ENDCHAR
STARTCHAR 0280
ENCODING 640
SWIDTH 560 0
DWIDTH 7 0
BBX 6 7 1 0
BITMAP
F8
88
88
F8
90
88
8C
ENDCHAR
STARTCHAR 0281
ENCODING 641
SWIDTH 560 0
DWIDTH 7 0
BBX 6 7 1 0
BITMAP
8C
88
90
F8
88
88
F8
ENDCHAR
STARTCHAR 0282
ENCODING 642
SWIDTH 480 0
DWIDTH 6 0
BBX 4 9 1 -2
BITMAP
F0
80
80
60
10
10
F0
80
C0
ENDCHAR
STARTCHAR 0283
ENCODING 643
SWIDTH 240 0
DWIDTH 3 0
BBX 4 13 0 -3
BITMAP
30
40
40
40
40
40
40
40
40
40
40
40
C0
ENDCHAR
STARTCHAR 0284
ENCODING 644
SWIDTH 240 0
DWIDTH 3 0
BBX 4 13 0 -3
BITMAP
30
40
40
40
40
40
E0
40
40
40
40
40
C0
ENDCHAR
STARTCHAR 0285
ENCODING 645
SWIDTH 240 0
DWIDTH 3 0
BBX 4 10 0 -3
BITMAP
C0
40
40
40
40
40
40
40
40
30
ENDCHAR
STARTCHAR 0286
ENCODING 646
SWIDTH 240 0
DWIDTH 3 0
BBX 5 13 -1 -3
BITMAP
18
20
20
20
20
20
20
20
20
20
F0
A0
E0
ENDCHAR
STARTCHAR 0287
ENCODING 647
SWIDTH 400 0
DWIDTH 5 0
BBX 4 9 0 -2
BITMAP
E0
20
20
20
20
20
F0
20
20
ENDCHAR
STARTCHAR 0288
ENCODING 648
SWIDTH 400 0
DWIDTH 5 0
BBX 4 12 0 -3
BITMAP
40
40
F0
40
40
40
40
40
40
40
40
30
ENDCHAR
STARTCHAR 0289
ENCODING 649
SWIDTH 640 0
DWIDTH 8 0
BBX 8 7 0 0
BITMAP
42
42
42
FF
42
46
3A
ENDCHAR
STARTCHAR 028A
ENCODING 650
SWIDTH 640 0
DWIDTH 8 0
BBX 7 7 0 0
BITMAP
EE
64
42
42
42
46
3C
ENDCHAR
STARTCHAR 028B
ENCODING 651
SWIDTH 640 0
DWIDTH 8 0
BBX 6 7 1 0
BITMAP
98
84
84
84
84
88
78
ENDCHAR
STARTCHAR 028C
ENCODING 652
SWIDTH 480 0
DWIDTH 6 0
BBX 6 7 0 0
BITMAP
30
30
28
48
48
44
84
ENDCHAR
STARTCHAR 028D
ENCODING 653
SWIDTH 800 0
DWIDTH 10 0
BBX 10 7 0 0
BITMAP
2300
3300
5380
5280
4C80
4C80
8CC0
ENDCHAR
STARTCHAR 028E
ENCODING 654
SWIDTH 480 0
DWIDTH 6 0
BBX 6 10 0 0
BITMAP
0C
10
10
30
30
28
48
48
44
84
ENDCHAR
STARTCHAR 028F
ENCODING 655
SWIDTH 480 0
DWIDTH 6 0
BBX 6 7 0 0
BITMAP
CC
48
70
30
30
30
30
ENDCHAR
STARTCHAR 0290
ENCODING 656
SWIDTH 480 0
DWIDTH 6 0
BBX 7 10 0 -3
BITMAP
78
08
10
30
20
40
F8
08
08
06
ENDCHAR
STARTCHAR 0291
ENCODING 657
SWIDTH 560 0
DWIDTH 7 0
BBX 7 8 0 -1
BITMAP
78
08
10
30
2C
52
FC
20
ENDCHAR
STARTCHAR 0292
ENCODING 658
SWIDTH 480 0
DWIDTH 6 0
BBX 6 10 0 -3
BITMAP
F8
08
10
20
78
08
04
04
08
F0
ENDCHAR
STARTCHAR 0293
ENCODING 659
SWIDTH 480 0
DWIDTH 6 0
BBX 6 10 0 -3
BITMAP
F8
08
10
20
70
08
04
F4
88
F4
ENDCHAR
STARTCHAR 0294
ENCODING 660
SWIDTH 400 0
DWIDTH 5 0
BBX 5 10 0 0
BITMAP
F0
88
08
08
10
20
20
20
20
20
ENDCHAR
STARTCHAR 0295
ENCODING 661
SWIDTH 400 0
DWIDTH 5 0
BBX 5 10 0 0
BITMAP
78
C8
80
C0
40
30
10
10
10
10
ENDCHAR
STARTCHAR 0296
ENCODING 662
SWIDTH 400 0
DWIDTH 5 0
BBX 5 10 0 0
BITMAP
20
20
20
20
20
10
08
08
88
F0
ENDCHAR
STARTCHAR 0297
ENCODING 663
SWIDTH 480 0
DWIDTH 6 0
BBX 5 10 1 -3
BITMAP
78
C0
80
80
80
80
80
80
C0
70
ENDCHAR
STARTCHAR 0298
ENCODING 664
SWIDTH 800 0
DWIDTH 10 0
BBX 8 9 1 0
BITMAP
3C
42
83
99
99
81
83
42
3C
ENDCHAR
STARTCHAR 0299
ENCODING 665
SWIDTH 560 0
DWIDTH 7 0
BBX 6 7 1 0
BITMAP
F8
88
88
F0
8C
8C
F8
ENDCHAR
STARTCHAR 029A
ENCODING 666
SWIDTH 640 0
DWIDTH 8 0
BBX 6 7 1 0
BITMAP
F0
88
84
64
84
88
F0
ENDCHAR
STARTCHAR 029B
ENCODING 667
SWIDTH 560 0
DWIDTH 7 0
BBX 6 10 1 0
BITMAP
04
08
08
78
80
80
98
88
88
78
ENDCHAR
STARTCHAR 029C
ENCODING 668
SWIDTH 640 0
DWIDTH 8 0
BBX 6 7 1 0
BITMAP
84
84
84
FC
84
84
84
ENDCHAR
STARTCHAR 029D
ENCODING 669
SWIDTH 240 0
DWIDTH 3 0
BBX 4 13 -1 -3
BITMAP
20
00
00
20
20
20
20
20
20
20
F0
A0
E0
ENDCHAR
STARTCHAR 029E
ENCODING 670
SWIDTH 560 0
DWIDTH 7 0
BBX 6 10 0 -3
BITMAP
C4
64
24
1C
14
24
C4
04
04
04
ENDCHAR
STARTCHAR 029F
ENCODING 671
SWIDTH 400 0
DWIDTH 5 0
BBX 4 7 1 0
BITMAP
80
80
80
80
80
80
F0
ENDCHAR
STARTCHAR 02A0
ENCODING 672
SWIDTH 640 0
DWIDTH 8 0
BBX 7 13 1 -3
BITMAP
06
04
04
74
8C
8C
84
8C
8C
74
04
04
04
ENDCHAR
STARTCHAR 02A1
ENCODING 673
SWIDTH 400 0
DWIDTH 5 0
BBX 5 10 0 0
BITMAP
F0
88
08
08
10
20
20
70
20
20
ENDCHAR
STARTCHAR 02A2
ENCODING 674
SWIDTH 400 0
DWIDTH 5 0
BBX 5 10 0 0
BITMAP
78
C8
80
C0
40
30
10
78
10
10
ENDCHAR
STARTCHAR 02A3
ENCODING 675
SWIDTH 960 0
DWIDTH 12 0
BBX 11 10 1 0
BITMAP
0400
0400
0400
77C0
8C40
8C80
8580
8D00
8E00
77E0
ENDCHAR
STARTCHAR 02A4
ENCODING 676
SWIDTH 960 0
DWIDTH 12 0
BBX 11 13 1 -3
BITMAP
0400
0400
0400
77E0
8C40
8C80
8500
8FC0
8C60
7420
0020
0040
0780
ENDCHAR
STARTCHAR 02A5
ENCODING 677
SWIDTH 1040 0
DWIDTH 13 0
BBX 12 11 1 -1
BITMAP
0400
0400
0400
77C0
8C40
8C80
8580
8D60
8E90
77E0
0100
ENDCHAR
STARTCHAR 02A6
ENCODING 678
SWIDTH 720 0
DWIDTH 9 0
BBX 9 9 0 0
BITMAP
4000
4000
FF80
4800
4C00
4700
4080
4080
3F00
ENDCHAR
STARTCHAR 02A7
ENCODING 679
SWIDTH 480 0
DWIDTH 6 0
BBX 7 13 0 -3
BITMAP
06
48
48
F8
48
48
48
48
48
38
08
08
18
ENDCHAR
STARTCHAR 02A8
ENCODING 680
SWIDTH 880 0
DWIDTH 11 0
BBX 10 9 0 0
BITMAP
4000
4000
F3C0
4600
4400
4400
45C0
4640
3BC0
ENDCHAR
STARTCHAR 02A9
ENCODING 681
SWIDTH 880 0
DWIDTH 11 0
BBX 10 13 0 -3
BITMAP
3800
6000
4000
FB80
4CC0
4840
4840
4840
4840
4840
0040
0040
0180
ENDCHAR
STARTCHAR 02AA
ENCODING 682
SWIDTH 640 0
DWIDTH 8 0
BBX 7 10 1 0
BITMAP
80
80
80
9E
A0
B0
9C
86
82
FC
ENDCHAR
STARTCHAR 02AB
ENCODING 683
SWIDTH 640 0
DWIDTH 8 0
BBX 6 10 1 0
BITMAP
80
80
80
FC
8C
88
90
B0
A0
FC
ENDCHAR
STARTCHAR 02AC
ENCODING 684
SWIDTH 480 0
DWIDTH 6 0
BBX 6 9 0 0
BITMAP
94
B4
6C
48
00
94
B4
6C
48
ENDCHAR
STARTCHAR 02AD
ENCODING 685
SWIDTH 560 0
DWIDTH 7 0
BBX 5 9 1 0
BITMAP
F8
88
88
00
00
00
F8
88
88
ENDCHAR
STARTCHAR 02AE
ENCODING 686
SWIDTH 640 0
DWIDTH 8 0
BBX 7 10 0 -3
BITMAP
C2
42
42
42
42
46
3A
02
02
02
ENDCHAR
STARTCHAR 02AF
ENCODING 687
SWIDTH 640 0
DWIDTH 8 0
BBX 8 10 0 -3
BITMAP
C2
42
42
42
42
46
3A
02
02
03
ENDCHAR
STARTCHAR 02B0
ENCODING 688
SWIDTH 400 0
DWIDTH 5 0
BBX 3 6 1 4
BITMAP
80
80
E0
A0
A0
A0
ENDCHAR
STARTCHAR 02B1
ENCODING 689
SWIDTH 400 0
DWIDTH 5 0
BBX 3 6 1 4
BITMAP
80
80
E0
A0
A0
A0
ENDCHAR
STARTCHAR 02B2
ENCODING 690
SWIDTH 160 0
DWIDTH 2 0
BBX 1 8 0 2
BITMAP
80
00
80
80
80
80
80
80
ENDCHAR
STARTCHAR 02B3
ENCODING 691
SWIDTH 240 0
DWIDTH 3 0
BBX 2 4 1 4
BITMAP
C0
80
80
80
ENDCHAR
STARTCHAR 02B4
ENCODING 692
SWIDTH 240 0
DWIDTH 3 0
BBX 3 4 0 4
BITMAP
20
20
20
E0
ENDCHAR
STARTCHAR 02B5
ENCODING 693
SWIDTH 240 0
DWIDTH 3 0
BBX 4 6 0 2
BITMAP
20
20
20
E0
20
30
ENDCHAR
STARTCHAR 02B6
ENCODING 694
SWIDTH 400 0
DWIDTH 5 0
BBX 3 4 1 4
BITMAP
A0
C0
A0
E0
ENDCHAR
STARTCHAR 02B7
ENCODING 695
SWIDTH 480 0
DWIDTH 6 0
BBX 6 4 0 4
BITMAP
94
B4
6C
48
ENDCHAR
STARTCHAR 02B8
ENCODING 696
SWIDTH 320 0
DWIDTH 4 0
BBX 4 6 0 2
BITMAP
90
50
60
20
40
C0
ENDCHAR
STARTCHAR 02B9
ENCODING 697
SWIDTH 160 0
DWIDTH 2 0
BBX 2 3 0 6
BITMAP
40
40
80
ENDCHAR
STARTCHAR 02BA
ENCODING 698
SWIDTH 320 0
DWIDTH 4 0
BBX 4 3 0 6
BITMAP
50
D0
B0
ENDCHAR
STARTCHAR 02BB
ENCODING 699
SWIDTH 160 0
DWIDTH 2 0
BBX 2 3 0 6
BITMAP
40
40
80
ENDCHAR
STARTCHAR 02BC
ENCODING 700
SWIDTH 160 0
DWIDTH 2 0
BBX 2 3 0 6
BITMAP
40
40
80
ENDCHAR
STARTCHAR 02BD
ENCODING 701
SWIDTH 160 0
DWIDTH 2 0
BBX 2 3 0 6
BITMAP
C0
40
40
ENDCHAR
STARTCHAR 02BE
ENCODING 702
SWIDTH 160 0
DWIDTH 2 0
BBX 2 3 0 7
BITMAP
80
40
80
ENDCHAR
STARTCHAR 02BF
ENCODING 703
SWIDTH 160 0
DWIDTH 2 0
BBX 2 3 0 7
BITMAP
40
80
40
ENDCHAR
STARTCHAR 02C0
ENCODING 704
SWIDTH 320 0
DWIDTH 4 0
BBX 3 4 0 6
BITMAP
E0
20
20
40
ENDCHAR
STARTCHAR 02C1
ENCODING 705
SWIDTH 320 0
DWIDTH 4 0
BBX 4 4 0 6
BITMAP
70
80
40
20
ENDCHAR
STARTCHAR 02C2
ENCODING 706
SWIDTH 320 0
DWIDTH 4 0
BBX 3 3 0 7
BITMAP
20
C0
20
ENDCHAR
STARTCHAR 02C3
ENCODING 707
SWIDTH 320 0
DWIDTH 4 0
BBX 3 3 0 7
BITMAP
80
60
C0
ENDCHAR
STARTCHAR 02C4
ENCODING 708
SWIDTH 320 0
DWIDTH 4 0
BBX 3 3 0 7
BITMAP
40
60
A0
ENDCHAR
STARTCHAR 02C5
ENCODING 709
SWIDTH 320 0
DWIDTH 4 0
BBX 3 3 0 7
BITMAP
A0
60
40
ENDCHAR
STARTCHAR 02C6
ENCODING 710
SWIDTH 400 0
DWIDTH 5 0
BBX 5 2 0 8
BITMAP
20
D8
ENDCHAR
STARTCHAR 02C7
ENCODING 711
SWIDTH 400 0
DWIDTH 5 0
BBX 5 2 0 8
BITMAP
D8
30
ENDCHAR
STARTCHAR 02C8
ENCODING 712
SWIDTH 160 0
DWIDTH 2 0
BBX 2 3 0 6
BITMAP
C0
C0
C0
ENDCHAR
STARTCHAR 02C9
ENCODING 713
SWIDTH 400 0
DWIDTH 5 0
BBX 4 1 0 8
BITMAP
F0
ENDCHAR
STARTCHAR 02CA
ENCODING 714
SWIDTH 320 0
DWIDTH 4 0
BBX 3 2 0 8
BITMAP
60
C0
ENDCHAR
STARTCHAR 02CB
ENCODING 715
SWIDTH 320 0
DWIDTH 4 0
BBX 3 2 0 8
BITMAP
C0
20
ENDCHAR
STARTCHAR 02CC
ENCODING 716
SWIDTH 160 0
DWIDTH 2 0
BBX 2 3 0 -3
BITMAP
C0
C0
C0
ENDCHAR
STARTCHAR 02CD
ENCODING 717
SWIDTH 400 0
DWIDTH 5 0
BBX 4 1 0 -1
BITMAP
F0
ENDCHAR
STARTCHAR 02CE
ENCODING 718
SWIDTH 320 0
DWIDTH 4 0
BBX 3 2 0 -2
BITMAP
C0
20
ENDCHAR
STARTCHAR 02CF
ENCODING 719
SWIDTH 320 0
DWIDTH 4 0
BBX 3 2 0 -2
BITMAP
60
C0
ENDCHAR
STARTCHAR 02D0
ENCODING 720
SWIDTH 320 0
DWIDTH 4 0
BBX 2 7 1 0
BITMAP
C0
40
00
00
00
40
C0
ENDCHAR
STARTCHAR 02D1
ENCODING 721
SWIDTH 320 0
DWIDTH 4 0
BBX 2 2 1 5
BITMAP
C0
40
ENDCHAR
STARTCHAR 02D2
ENCODING 722
SWIDTH 160 0
DWIDTH 2 0
BBX 2 3 0 2
BITMAP
C0
40
C0
ENDCHAR
STARTCHAR 02D3
ENCODING 723
SWIDTH 160 0
DWIDTH 2 0
BBX 2 3 0 2
BITMAP
40
80
40
ENDCHAR
STARTCHAR 02D4
ENCODING 724
SWIDTH 240 0
DWIDTH 3 0
BBX 3 2 0 3
BITMAP
40
E0
ENDCHAR
STARTCHAR 02D5
ENCODING 725
SWIDTH 240 0
DWIDTH 3 0
BBX 3 2 0 4
BITMAP
E0
40
ENDCHAR
STARTCHAR 02D6
ENCODING 726
SWIDTH 240 0
DWIDTH 3 0
BBX 3 3 0 2
BITMAP
40
E0
40
ENDCHAR
STARTCHAR 02D7
ENCODING 727
SWIDTH 320 0
DWIDTH 4 0
BBX 3 1 0 3
BITMAP
E0
ENDCHAR
STARTCHAR 02D8
ENCODING 728
SWIDTH 400 0
DWIDTH 5 0
BBX 4 2 0 8
BITMAP
90
70
ENDCHAR
STARTCHAR 02D9
ENCODING 729
SWIDTH 160 0
DWIDTH 2 0
BBX 2 1 0 8
BITMAP
C0
ENDCHAR
STARTCHAR 02DA
ENCODING 730
SWIDTH 320 0
DWIDTH 4 0
BBX 3 3 0 8
BITMAP
60
A0
60
ENDCHAR
STARTCHAR 02DB
ENCODING 731
SWIDTH 240 0
DWIDTH 3 0
BBX 3 3 0 -3
BITMAP
40
80
60
ENDCHAR
STARTCHAR 02DC
ENCODING 732
SWIDTH 480 0
DWIDTH 6 0
BBX 5 2 0 8
BITMAP
68
98
ENDCHAR
STARTCHAR 02DD
ENCODING 733
SWIDTH 400 0
DWIDTH 5 0
BBX 5 2 0 8
BITMAP
68
D0
ENDCHAR
STARTCHAR 02DE
ENCODING 734
SWIDTH 240 0
DWIDTH 3 0
BBX 4 3 -1 2
BITMAP
40
C0
30
ENDCHAR
STARTCHAR 02DF
ENCODING 735
SWIDTH 320 0
DWIDTH 4 0
BBX 3 3 0 7
BITMAP
E0
40
E0
ENDCHAR
STARTCHAR 02E0
ENCODING 736
SWIDTH 320 0
DWIDTH 4 0
BBX 4 6 0 2
BITMAP
90
60
60
20
60
60
ENDCHAR
STARTCHAR 02E1
ENCODING 737
SWIDTH 160 0
DWIDTH 2 0
BBX 1 6 1 4
BITMAP
80
80
80
80
80
80
ENDCHAR
STARTCHAR 02E2
ENCODING 738
SWIDTH 320 0
DWIDTH 4 0
BBX 4 4 0 4
BITMAP
F0
40
30
E0
ENDCHAR
STARTCHAR 02E3
ENCODING 739
SWIDTH 320 0
DWIDTH 4 0
BBX 4 4 0 4
BITMAP
D0
60
60
90
ENDCHAR
STARTCHAR 02E4
ENCODING 740
SWIDTH 240 0
DWIDTH 3 0
BBX 3 6 0 4
BITMAP
60
80
80
60
20
20
ENDCHAR
STARTCHAR 02E5
ENCODING 741
SWIDTH 400 0
DWIDTH 5 0
BBX 3 9 1 0
BITMAP
E0
20
20
20
20
20
20
20
20
ENDCHAR
STARTCHAR 02E6
ENCODING 742
SWIDTH 400 0
DWIDTH 5 0
BBX 3 9 1 0
BITMAP
20
20
E0
20
20
20
20
20
20
ENDCHAR
STARTCHAR 02E7
ENCODING 743
SWIDTH 400 0
DWIDTH 5 0
BBX 3 9 1 0
BITMAP
20
20
20
20
E0
20
20
20
20
ENDCHAR
STARTCHAR 02E8
ENCODING 744
SWIDTH 400 0
DWIDTH 5 0
BBX 3 9 1 0
BITMAP
20
20
20
20
20
20
E0
20
20
ENDCHAR
STARTCHAR 02E9
ENCODING 745
SWIDTH 400 0
DWIDTH 5 0
BBX 3 9 1 0
BITMAP
20
20
20
20
20
20
20
20
E0
ENDCHAR
STARTCHAR 02EA
ENCODING 746
SWIDTH 400 0
DWIDTH 5 0
BBX 3 5 1 2
BITMAP
80
80
80
80
E0
ENDCHAR
STARTCHAR 02EB
ENCODING 747
SWIDTH 400 0
DWIDTH 5 0
BBX 3 5 1 2
BITMAP
80
80
E0
80
80
ENDCHAR
STARTCHAR 02EC
ENCODING 748
SWIDTH 400 0
DWIDTH 5 0
BBX 5 2 0 -2
BITMAP
D8
30
ENDCHAR
STARTCHAR 02ED
ENCODING 749
SWIDTH 480 0
DWIDTH 6 0
BBX 6 3 0 7
BITMAP
FC
00
FC
ENDCHAR
STARTCHAR 02EE
ENCODING 750
SWIDTH 320 0
DWIDTH 4 0
BBX 4 3 0 6
BITMAP
50
D0
B0
ENDCHAR
STARTCHAR 02EF
ENCODING 751
SWIDTH 400 0
DWIDTH 5 0
BBX 5 3 0 -3
BITMAP
D8
50
20
ENDCHAR
STARTCHAR 02F0
ENCODING 752
SWIDTH 400 0
DWIDTH 5 0
BBX 5 3 0 -3
BITMAP
20
50
D8
ENDCHAR
STARTCHAR 02F1
ENCODING 753
SWIDTH 320 0
DWIDTH 4 0
BBX 4 3 0 -3
BITMAP
30
C0
30
ENDCHAR
STARTCHAR 02F2
ENCODING 754
SWIDTH 320 0
DWIDTH 4 0
BBX 4 3 0 -3
BITMAP
C0
30
C0
ENDCHAR
STARTCHAR 02F3
ENCODING 755
SWIDTH 320 0
DWIDTH 4 0
BBX 2 3 1 -4
BITMAP
C0
C0
C0
ENDCHAR
STARTCHAR 02F4
ENCODING 756
SWIDTH 320 0
DWIDTH 4 0
BBX 3 2 0 4
BITMAP
C0
20
ENDCHAR
STARTCHAR 02F5
ENCODING 757
SWIDTH 400 0
DWIDTH 5 0
BBX 5 2 0 4
BITMAP
D0
28
ENDCHAR
STARTCHAR 02F6
ENCODING 758
SWIDTH 400 0
DWIDTH 5 0
BBX 5 2 0 4
BITMAP
68
D0
ENDCHAR
STARTCHAR 02F7
ENCODING 759
SWIDTH 480 0
DWIDTH 6 0
BBX 5 2 0 -2
BITMAP
68
98
ENDCHAR
STARTCHAR 02F8
ENCODING 760
SWIDTH 240 0
DWIDTH 3 0
BBX 1 7 1 3
BITMAP
80
80
00
00
00
80
80
ENDCHAR
STARTCHAR 02F9
ENCODING 761
SWIDTH 320 0
DWIDTH 4 0
BBX 3 3 0 6
BITMAP
E0
80
80
ENDCHAR
STARTCHAR 02FA
ENCODING 762
SWIDTH 320 0
DWIDTH 4 0
BBX 3 3 0 6
BITMAP
E0
20
20
ENDCHAR
STARTCHAR 02FB
ENCODING 763
SWIDTH 320 0
DWIDTH 4 0
BBX 3 3 0 0
BITMAP
80
80
E0
ENDCHAR
STARTCHAR 02FC
ENCODING 764
SWIDTH 320 0
DWIDTH 4 0
BBX 3 3 0 0
BITMAP
20
20
E0
ENDCHAR
STARTCHAR 02FD
ENCODING 765
SWIDTH 560 0
DWIDTH 7 0
BBX 6 2 0 -3
BITMAP
84
FC
ENDCHAR
STARTCHAR 02FE
ENCODING 766
SWIDTH 560 0
DWIDTH 7 0
BBX 6 2 0 -3
BITMAP
80
FC
ENDCHAR
STARTCHAR 02FF
ENCODING 767
SWIDTH 560 0
DWIDTH 7 0
BBX 6 5 0 -4
BITMAP
10
20
FC
20
10
ENDCHAR
STARTCHAR 0300
ENCODING 768
SWIDTH 0 0
DWIDTH 0 0
BBX 2 2 -6 8
BITMAP
80
40
ENDCHAR
STARTCHAR 0301
ENCODING 769
SWIDTH 0 0
DWIDTH 0 0
BBX 2 2 -4 8
BITMAP
40
80
ENDCHAR
STARTCHAR 0302
ENCODING 770
SWIDTH 0 0
DWIDTH 0 0
BBX 4 2 -2 8
BITMAP
60
90
ENDCHAR
STARTCHAR 0303
ENCODING 771
SWIDTH 0 0
DWIDTH 0 0
BBX 4 2 -6 8
BITMAP
D0
B0
ENDCHAR
STARTCHAR 0304
ENCODING 772
SWIDTH 0 0
DWIDTH 0 0
BBX 4 1 -2 8
BITMAP
F0
ENDCHAR
STARTCHAR 0305
ENCODING 773
SWIDTH 0 0
DWIDTH 0 0
BBX 6 1 -3 10
BITMAP
FC
ENDCHAR
STARTCHAR 0306
ENCODING 774
SWIDTH 0 0
DWIDTH 0 0
BBX 4 2 -2 8
BITMAP
90
60
ENDCHAR
STARTCHAR 0307
ENCODING 775
SWIDTH 0 0
DWIDTH 0 0
BBX 2 1 -1 8
BITMAP
C0
ENDCHAR
STARTCHAR 0308
ENCODING 776
SWIDTH 0 0
DWIDTH 0 0
BBX 4 1 -2 8
BITMAP
90
ENDCHAR
STARTCHAR 0309
ENCODING 777
SWIDTH 0 0
DWIDTH 0 0
BBX 3 3 -5 8
BITMAP
C0
20
40
ENDCHAR
STARTCHAR 030A
ENCODING 778
SWIDTH 0 0
DWIDTH 0 0
BBX 2 3 -1 8
BITMAP
C0
C0
C0
ENDCHAR
STARTCHAR 030B
ENCODING 779
SWIDTH 0 0
DWIDTH 0 0
BBX 5 2 -2 8
BITMAP
78
D0
ENDCHAR
STARTCHAR 030C
ENCODING 780
SWIDTH 0 0
DWIDTH 0 0
BBX 4 2 -2 8
BITMAP
90
60
ENDCHAR
STARTCHAR 030D
ENCODING 781
SWIDTH 0 0
DWIDTH 0 0
BBX 2 2 -1 8
BITMAP
C0
C0
ENDCHAR
STARTCHAR 030E
ENCODING 782
SWIDTH 0 0
DWIDTH 0 0
BBX 4 2 -2 8
BITMAP
F0
F0
ENDCHAR
STARTCHAR 030F
ENCODING 783
SWIDTH 0 0
DWIDTH 0 0
BBX 4 2 -6 8
BITMAP
A0
50
ENDCHAR
STARTCHAR 0310
ENCODING 784
SWIDTH 0 0
DWIDTH 0 0
BBX 4 3 -2 8
BITMAP
60
90
60
ENDCHAR
STARTCHAR 0311
ENCODING 785
SWIDTH 0 0
DWIDTH 0 0
BBX 4 2 -2 8
BITMAP
60
90
ENDCHAR
STARTCHAR 0312
ENCODING 786
SWIDTH 0 0
DWIDTH 0 0
BBX 2 3 -1 6
BITMAP
40
C0
80
ENDCHAR
STARTCHAR 0313
ENCODING 787
SWIDTH 0 0
DWIDTH 0 0
BBX 2 3 -1 6
BITMAP
40
80
80
ENDCHAR
STARTCHAR 0314
ENCODING 788
SWIDTH 0 0
DWIDTH 0 0
BBX 2 3 -1 6
BITMAP
80
C0
40
ENDCHAR
STARTCHAR 0315
ENCODING 789
SWIDTH 0 0
DWIDTH 0 0
BBX 2 3 -1 6
BITMAP
40
C0
80
ENDCHAR
STARTCHAR 0316
ENCODING 790
SWIDTH 0 0
DWIDTH 0 0
BBX 2 2 -1 -2
BITMAP
80
40
ENDCHAR
STARTCHAR 0317
ENCODING 791
SWIDTH 0 0
DWIDTH 0 0
BBX 2 2 -1 -2
BITMAP
40
80
ENDCHAR
STARTCHAR 0318
ENCODING 792
SWIDTH 0 0
DWIDTH 0 0
BBX 2 2 -1 -3
BITMAP
C0
40
ENDCHAR
STARTCHAR 0319
ENCODING 793
SWIDTH 0 0
DWIDTH 0 0
BBX 2 2 -1 -3
BITMAP
C0
80
ENDCHAR
STARTCHAR 031A
ENCODING 794
SWIDTH 0 0
DWIDTH 0 0
BBX 3 3 -1 9
BITMAP
E0
20
20
ENDCHAR
STARTCHAR 031B
ENCODING 795
SWIDTH 0 0
DWIDTH 0 0
BBX 2 3 -1 7
BITMAP
40
C0
80
ENDCHAR
STARTCHAR 031C
ENCODING 796
SWIDTH 0 0
DWIDTH 0 0
BBX 2 3 -1 -3
BITMAP
40
80
40
ENDCHAR
STARTCHAR 031D
ENCODING 797
SWIDTH 0 0
DWIDTH 0 0
BBX 2 2 -1 -3
BITMAP
80
C0
ENDCHAR
STARTCHAR 031E
ENCODING 798
SWIDTH 0 0
DWIDTH 0 0
BBX 2 2 -1 -2
BITMAP
C0
80
ENDCHAR
STARTCHAR 031F
ENCODING 799
SWIDTH 0 0
DWIDTH 0 0
BBX 2 3 -1 -3
BITMAP
80
C0
80
ENDCHAR
STARTCHAR 0320
ENCODING 800
SWIDTH 0 0
DWIDTH 0 0
BBX 2 1 -1 -2
BITMAP
C0
ENDCHAR
STARTCHAR 0321
ENCODING 801
SWIDTH 0 0
DWIDTH 0 0
BBX 2 4 -2 -3
BITMAP
40
40
40
C0
ENDCHAR
STARTCHAR 0322
ENCODING 802
SWIDTH 0 0
DWIDTH 0 0
BBX 2 4 0 -3
BITMAP
80
80
80
C0
ENDCHAR
STARTCHAR 0323
ENCODING 803
SWIDTH 0 0
DWIDTH 0 0
BBX 1 1 -4 -2
BITMAP
80
ENDCHAR
STARTCHAR 0324
ENCODING 804
SWIDTH 0 0
DWIDTH 0 0
BBX 4 1 -2 -2
BITMAP
90
ENDCHAR
STARTCHAR 0325
ENCODING 805
SWIDTH 0 0
DWIDTH 0 0
BBX 2 3 -1 -2
BITMAP
C0
C0
C0
ENDCHAR
STARTCHAR 0326
ENCODING 806
SWIDTH 0 0
DWIDTH 0 0
BBX 2 2 -1 -3
BITMAP
40
80
ENDCHAR
STARTCHAR 0327
ENCODING 807
SWIDTH 0 0
DWIDTH 0 0
BBX 2 3 -1 -3
BITMAP
80
40
C0
ENDCHAR
STARTCHAR 0328
ENCODING 808
SWIDTH 0 0
DWIDTH 0 0
BBX 2 3 -1 -3
BITMAP
C0
80
C0
ENDCHAR
STARTCHAR 0329
ENCODING 809
SWIDTH 0 0
DWIDTH 0 0
BBX 2 2 -1 -2
BITMAP
C0
C0
ENDCHAR
STARTCHAR 032A
ENCODING 810
SWIDTH 0 0
DWIDTH 0 0
BBX 4 2 -2 -2
BITMAP
F0
90
ENDCHAR
STARTCHAR 032B
ENCODING 811
SWIDTH 0 0
DWIDTH 0 0
BBX 4 2 -2 -2
BITMAP
D0
F0
ENDCHAR
STARTCHAR 032C
ENCODING 812
SWIDTH 0 0
DWIDTH 0 0
BBX 4 2 -2 -2
BITMAP
90
60
ENDCHAR
STARTCHAR 032D
ENCODING 813
SWIDTH 0 0
DWIDTH 0 0
BBX 4 2 -2 -2
BITMAP
60
90
ENDCHAR
STARTCHAR 032E
ENCODING 814
SWIDTH 0 0
DWIDTH 0 0
BBX 4 2 -2 -2
BITMAP
90
60
ENDCHAR
STARTCHAR 032F
ENCODING 815
SWIDTH 0 0
DWIDTH 0 0
BBX 4 2 -2 -2
BITMAP
60
90
ENDCHAR
STARTCHAR 0330
ENCODING 816
SWIDTH 0 0
DWIDTH 0 0
BBX 4 2 -2 -2
BITMAP
D0
B0
ENDCHAR
STARTCHAR 0331
ENCODING 817
SWIDTH 0 0
DWIDTH 0 0
BBX 4 1 -2 -1
BITMAP
F0
ENDCHAR
STARTCHAR 0332
ENCODING 818
SWIDTH 0 0
DWIDTH 0 0
BBX 6 1 -3 -2
BITMAP
FC
ENDCHAR
STARTCHAR 0333
ENCODING 819
SWIDTH 0 0
DWIDTH 0 0
BBX 6 3 -3 -3
BITMAP
FC
00
FC
ENDCHAR
STARTCHAR 0334
ENCODING 820
SWIDTH 0 0
DWIDTH 0 0
BBX 4 2 -2 3
BITMAP
D0
B0
ENDCHAR
STARTCHAR 0335
ENCODING 821
SWIDTH 0 0
DWIDTH 0 0
BBX 6 1 -3 4
BITMAP
FC
ENDCHAR
STARTCHAR 0336
ENCODING 822
SWIDTH 0 0
DWIDTH 0 0
BBX 10 1 -5 3
BITMAP
FFC0
ENDCHAR
STARTCHAR 0337
ENCODING 823
SWIDTH 0 0
DWIDTH 0 0
BBX 4 3 -2 2
BITMAP
10
60
80
ENDCHAR
STARTCHAR 0338
ENCODING 824
SWIDTH 0 0
DWIDTH 0 0
BBX 4 11 -2 -1
BITMAP
10
10
10
20
20
20
40
40
80
80
80
ENDCHAR
STARTCHAR 0339
ENCODING 825
SWIDTH 0 0
DWIDTH 0 0
BBX 2 3 -1 -3
BITMAP
80
40
80
ENDCHAR
STARTCHAR 033A
ENCODING 826
SWIDTH 0 0
DWIDTH 0 0
BBX 4 2 -2 -3
BITMAP
90
F0
ENDCHAR
STARTCHAR 033B
ENCODING 827
SWIDTH 0 0
DWIDTH 0 0
BBX 4 3 -2 -3
BITMAP
F0
90
F0
ENDCHAR
STARTCHAR 033C
ENCODING 828
SWIDTH 0 0
DWIDTH 0 0
BBX 4 2 -2 -3
BITMAP
F0
B0
ENDCHAR
STARTCHAR 033D
ENCODING 829
SWIDTH 0 0
DWIDTH 0 0
BBX 2 3 -1 7
BITMAP
C0
C0
C0
ENDCHAR
STARTCHAR 033E
ENCODING 830
SWIDTH 0 0
DWIDTH 0 0
BBX 2 4 -1 7
BITMAP
C0
80
40
C0
ENDCHAR
STARTCHAR 033F
ENCODING 831
SWIDTH 0 0
DWIDTH 0 0
BBX 6 3 -3 9
BITMAP
FC
00
FC
ENDCHAR
STARTCHAR 0340
ENCODING 832
SWIDTH 0 0
DWIDTH 0 0
BBX 3 2 -2 8
BITMAP
C0
60
ENDCHAR
STARTCHAR 0341
ENCODING 833
SWIDTH 0 0
DWIDTH 0 0
BBX 3 2 -1 8
BITMAP
60
C0
ENDCHAR
STARTCHAR 0342
ENCODING 834
SWIDTH 0 0
DWIDTH 0 0
BBX 4 2 -2 8
BITMAP
D0
B0
ENDCHAR
STARTCHAR 0343
ENCODING 835
SWIDTH 0 0
DWIDTH 0 0
BBX 2 2 -1 7
BITMAP
40
80
ENDCHAR
STARTCHAR 0344
ENCODING 836
SWIDTH 0 0
DWIDTH 0 0
BBX 4 2 -6 8
BITMAP
30
F0
ENDCHAR
STARTCHAR 0345
ENCODING 837
SWIDTH 0 0
DWIDTH 0 0
BBX 2 2 -1 -3
BITMAP
80
40
ENDCHAR
STARTCHAR 0346
ENCODING 838
SWIDTH 0 0
DWIDTH 0 0
BBX 6 2 -3 8
BITMAP
FC
84
ENDCHAR
STARTCHAR 0347
ENCODING 839
SWIDTH 0 0
DWIDTH 0 0
BBX 6 3 -3 -3
BITMAP
FC
00
FC
ENDCHAR
STARTCHAR 0348
ENCODING 840
SWIDTH 0 0
DWIDTH 0 0
BBX 4 2 -2 -2
BITMAP
F0
F0
ENDCHAR
STARTCHAR 0349
ENCODING 841
SWIDTH 0 0
DWIDTH 0 0
BBX 2 2 -1 -3
BITMAP
C0
40
ENDCHAR
STARTCHAR 034A
ENCODING 842
SWIDTH 0 0
DWIDTH 0 0
BBX 4 2 -2 8
BITMAP
F0
F0
ENDCHAR
STARTCHAR 034B
ENCODING 843
SWIDTH 0 0
DWIDTH 0 0
BBX 4 4 -2 8
BITMAP
60
D0
B0
60
ENDCHAR
STARTCHAR 034C
ENCODING 844
SWIDTH 0 0
DWIDTH 0 0
BBX 4 3 -2 8
BITMAP
F0
D0
B0
ENDCHAR
STARTCHAR 034D
ENCODING 845
SWIDTH 0 0
DWIDTH 0 0
BBX 4 3 -2 -3
BITMAP
60
F0
60
ENDCHAR
STARTCHAR 034E
ENCODING 846
SWIDTH 0 0
DWIDTH 0 0
BBX 2 3 -1 -3
BITMAP
40
C0
40
ENDCHAR
STARTCHAR 034F
ENCODING 847
SWIDTH 0 0
DWIDTH 0 0
BBX 8 9 -4 0
BITMAP
99
B5
24
C3
C3
42
24
91
99
ENDCHAR
STARTCHAR 0350
ENCODING 848
SWIDTH 0 0
DWIDTH 0 0
BBX 2 3 -1 8
BITMAP
80
40
80
ENDCHAR
STARTCHAR 0351
ENCODING 849
SWIDTH 0 0
DWIDTH 0 0
BBX 2 3 -1 7
BITMAP
40
80
40
ENDCHAR
STARTCHAR 0352
ENCODING 850
SWIDTH 0 0
DWIDTH 0 0
BBX 4 3 -2 8
BITMAP
60
90
60
ENDCHAR
STARTCHAR 0353
ENCODING 851
SWIDTH 0 0
DWIDTH 0 0
BBX 2 3 -1 -3
BITMAP
C0
C0
C0
ENDCHAR
STARTCHAR 0354
ENCODING 852
SWIDTH 0 0
DWIDTH 0 0
BBX 2 3 -1 -3
BITMAP
40
80
40
ENDCHAR
STARTCHAR 0355
ENCODING 853
SWIDTH 0 0
DWIDTH 0 0
BBX 2 3 -1 -3
BITMAP
80
40
80
ENDCHAR
STARTCHAR 0356
ENCODING 854
SWIDTH 0 0
DWIDTH 0 0
BBX 4 3 -2 -3
BITMAP
90
70
B0
ENDCHAR
STARTCHAR 0357
ENCODING 855
SWIDTH 0 0
DWIDTH 0 0
BBX 2 3 -1 7
BITMAP
80
40
80
ENDCHAR
STARTCHAR 0358
ENCODING 856
SWIDTH 0 0
DWIDTH 0 0
BBX 1 1 2 8
BITMAP
80
ENDCHAR
STARTCHAR 0359
ENCODING 857
SWIDTH 0 0
DWIDTH 0 0
BBX 2 3 -1 -3
BITMAP
C0
80
C0
ENDCHAR
STARTCHAR 035A
ENCODING 858
SWIDTH 0 0
DWIDTH 0 0
BBX 4 3 -2 -3
BITMAP
F0
D0
F0
ENDCHAR
STARTCHAR 035B
ENCODING 859
SWIDTH 0 0
DWIDTH 0 0
BBX 2 3 -1 7
BITMAP
80
C0
40
ENDCHAR
STARTCHAR 035C
ENCODING 860
SWIDTH 0 0
DWIDTH 0 0
BBX 10 3 -5 -3
BITMAP
8040
4080
3F00
ENDCHAR
STARTCHAR 035D
ENCODING 861
SWIDTH 0 0
DWIDTH 0 0
BBX 10 3 -5 7
BITMAP
8040
4080
3F00
ENDCHAR
STARTCHAR 035E
ENCODING 862
SWIDTH 0 0
DWIDTH 0 0
BBX 8 1 -4 8
BITMAP
FF
ENDCHAR
STARTCHAR 035F
ENCODING 863
SWIDTH 0 0
DWIDTH 0 0
BBX 8 1 -4 -1
BITMAP
FF
ENDCHAR
STARTCHAR 0360
ENCODING 864
SWIDTH 0 0
DWIDTH 0 0
BBX 10 2 -5 8
BITMAP
7840
8780
ENDCHAR
STARTCHAR 0361
ENCODING 865
SWIDTH 0 0
DWIDTH 0 0
BBX 10 2 -5 9
BITMAP
3F00
C0C0
ENDCHAR
STARTCHAR 0362
ENCODING 866
SWIDTH 0 0
DWIDTH 0 0
BBX 10 3 -5 -3
BITMAP
0080
FFC0
0080
ENDCHAR
STARTCHAR 0363
ENCODING 867
SWIDTH 0 0
DWIDTH 0 0
BBX 2 3 -1 8
BITMAP
C0
C0
C0
ENDCHAR
STARTCHAR 0364
ENCODING 868
SWIDTH 0 0
DWIDTH 0 0
BBX 2 3 -1 8
BITMAP
C0
C0
C0
ENDCHAR
STARTCHAR 0365
ENCODING 869
SWIDTH 0 0
DWIDTH 0 0
BBX 1 3 0 9
BITMAP
80
80
80
ENDCHAR
STARTCHAR 0366
ENCODING 870
SWIDTH 0 0
DWIDTH 0 0
BBX 3 3 -1 8
BITMAP
C0
A0
C0
ENDCHAR
STARTCHAR 0367
ENCODING 871
SWIDTH 0 0
DWIDTH 0 0
BBX 2 3 -1 8
BITMAP
C0
C0
C0
ENDCHAR
STARTCHAR 0368
ENCODING 872
SWIDTH 0 0
DWIDTH 0 0
BBX 2 3 -1 8
BITMAP
40
80
C0
ENDCHAR
STARTCHAR 0369
ENCODING 873
SWIDTH 0 0
DWIDTH 0 0
BBX 2 4 -1 8
BITMAP
40
C0
C0
C0
ENDCHAR
STARTCHAR 036A
ENCODING 874
SWIDTH 0 0
DWIDTH 0 0
BBX 2 4 -1 8
BITMAP
80
C0
C0
C0
ENDCHAR
STARTCHAR 036B
ENCODING 875
SWIDTH 0 0
DWIDTH 0 0
BBX 4 3 -2 8
BITMAP
F0
B0
B0
ENDCHAR
STARTCHAR 036C
ENCODING 876
SWIDTH 0 0
DWIDTH 0 0
BBX 2 3 -1 8
BITMAP
C0
80
80
ENDCHAR
STARTCHAR 036D
ENCODING 877
SWIDTH 0 0
DWIDTH 0 0
BBX 2 3 -1 8
BITMAP
C0
80
C0
ENDCHAR
STARTCHAR 036E
ENCODING 878
SWIDTH 0 0
DWIDTH 0 0
BBX 3 3 -1 8
BITMAP
A0
C0
40
ENDCHAR
STARTCHAR 036F
ENCODING 879
SWIDTH 0 0
DWIDTH 0 0
BBX 3 3 -1 8
BITMAP
C0
40
E0
ENDCHAR
STARTCHAR 0370
ENCODING 880
SWIDTH 480 0
DWIDTH 6 0
BBX 4 9 1 0
BITMAP
80
80
80
80
F0
80
80
80
80
ENDCHAR
STARTCHAR 0371
ENCODING 881
SWIDTH 400 0
DWIDTH 5 0
BBX 3 7 1 0
BITMAP
80
80
80
E0
80
80
80
ENDCHAR
STARTCHAR 0372
ENCODING 882
SWIDTH 640 0
DWIDTH 8 0
BBX 8 9 0 0
BITMAP
FF
99
99
99
18
18
18
18
18
ENDCHAR
STARTCHAR 0373
ENCODING 883
SWIDTH 560 0
DWIDTH 7 0
BBX 6 10 0 0
BITMAP
FC
94
94
10
10
10
10
10
10
10
ENDCHAR
STARTCHAR 0374
ENCODING 884
SWIDTH 240 0
DWIDTH 3 0
BBX 3 2 0 7
BITMAP
60
C0
ENDCHAR
STARTCHAR 0375
ENCODING 885
SWIDTH 240 0
DWIDTH 3 0
BBX 3 2 0 -3
BITMAP
60
C0
ENDCHAR
STARTCHAR 0376
ENCODING 886
SWIDTH 800 0
DWIDTH 10 0
BBX 7 9 1 0
BITMAP
82
86
8E
8A
92
B2
A2
C2
C2
ENDCHAR
STARTCHAR 0377
ENCODING 887
SWIDTH 640 0
DWIDTH 8 0
BBX 6 7 1 0
BITMAP
8C
8C
94
B4
A4
C4
C4
ENDCHAR
STARTCHAR 037A
ENCODING 890
SWIDTH 560 0
DWIDTH 7 0
BBX 2 2 3 -3
BITMAP
80
C0
ENDCHAR
STARTCHAR 037B
ENCODING 891
SWIDTH 480 0
DWIDTH 6 0
BBX 5 7 0 0
BITMAP
F0
08
08
08
08
08
F0
ENDCHAR
STARTCHAR 037C
ENCODING 892
SWIDTH 480 0
DWIDTH 6 0
BBX 5 7 1 0
BITMAP
78
80
80
A0
80
80
70
ENDCHAR
STARTCHAR 037D
ENCODING 893
SWIDTH 480 0
DWIDTH 6 0
BBX 5 7 0 0
BITMAP
F0
08
08
28
08
08
F0
ENDCHAR
STARTCHAR 037E
ENCODING 894
SWIDTH 240 0
DWIDTH 3 0
BBX 2 9 0 -2
BITMAP
40
40
00
00
00
00
40
40
80
ENDCHAR
STARTCHAR 037F
ENCODING 895
SWIDTH 240 0
DWIDTH 3 0
BBX 3 12 -1 -3
BITMAP
20
20
20
20
20
20
20
20
20
20
20
C0
ENDCHAR
STARTCHAR 0384
ENCODING 900
SWIDTH 560 0
DWIDTH 7 0
BBX 2 3 3 8
BITMAP
40
C0
80
ENDCHAR
STARTCHAR 0385
ENCODING 901
SWIDTH 560 0
DWIDTH 7 0
BBX 4 2 2 8
BITMAP
20
F0
ENDCHAR
STARTCHAR 0386
ENCODING 902
SWIDTH 640 0
DWIDTH 8 0
BBX 8 10 0 0
BITMAP
40
98
98
18
24
24
7E
42
42
81
ENDCHAR
STARTCHAR 0387
ENCODING 903
SWIDTH 240 0
DWIDTH 3 0
BBX 1 2 1 6
BITMAP
80
80
ENDCHAR
STARTCHAR 0388
ENCODING 904
SWIDTH 640 0
DWIDTH 8 0
BBX 7 10 0 0
BITMAP
40
BE
A0
20
20
3E
20
20
20
3E
ENDCHAR
STARTCHAR 0389
ENCODING 905
SWIDTH 800 0
DWIDTH 10 0
BBX 9 10 0 0
BITMAP
4000
A080
A080
2080
2080
3F80
2080
2080
2080
2080
ENDCHAR
STARTCHAR 038A
ENCODING 906
SWIDTH 480 0
DWIDTH 6 0
BBX 5 10 0 0
BITMAP
40
B8
90
10
10
10
10
10
10
38
ENDCHAR
STARTCHAR 038C
ENCODING 908
SWIDTH 800 0
DWIDTH 10 0
BBX 10 10 0 0
BITMAP
4000
9F00
B180
2080
60C0
60C0
60C0
2080
3180
1F00
ENDCHAR
STARTCHAR 038E
ENCODING 910
SWIDTH 720 0
DWIDTH 9 0
BBX 9 10 0 0
BITMAP
4000
A080
9100
1300
0A00
0E00
0400
0400
0400
0400
ENDCHAR
STARTCHAR 038F
ENCODING 911
SWIDTH 800 0
DWIDTH 10 0
BBX 10 10 0 0
BITMAP
C000
9F00
A180
6080
4080
4080
6080
2080
1100
7BC0
ENDCHAR
STARTCHAR 0390
ENCODING 912
SWIDTH 320 0
DWIDTH 4 0
BBX 4 10 0 0
BITMAP
20
F0
00
40
40
40
40
40
40
30
ENDCHAR
STARTCHAR 0391
ENCODING 913
SWIDTH 640 0
DWIDTH 8 0
BBX 8 9 0 0
BITMAP
18
18
18
24
24
7E
42
42
81
ENDCHAR
STARTCHAR 0392
ENCODING 914
SWIDTH 640 0
DWIDTH 8 0
BBX 6 9 1 0
BITMAP
F8
84
84
84
F8
84
84
84
F8
ENDCHAR
STARTCHAR 0393
ENCODING 915
SWIDTH 560 0
DWIDTH 7 0
BBX 5 9 1 0
BITMAP
F8
80
80
80
80
80
80
80
80
ENDCHAR
STARTCHAR 0394
ENCODING 916
SWIDTH 560 0
DWIDTH 7 0
BBX 7 9 0 0
BITMAP
10
18
28
28
24
44
44
42
FE
ENDCHAR
STARTCHAR 0395
ENCODING 917
SWIDTH 560 0
DWIDTH 7 0
BBX 5 9 1 0
BITMAP
F8
80
80
80
F8
80
80
80
F8
ENDCHAR
STARTCHAR 0396
ENCODING 918
SWIDTH 560 0
DWIDTH 7 0
BBX 7 9 0 0
BITMAP
7E
04
08
08
10
20
20
40
FE
ENDCHAR
STARTCHAR 0397
ENCODING 919
SWIDTH 720 0
DWIDTH 9 0
BBX 7 9 1 0
BITMAP
82
82
82
82
FE
82
82
82
82
ENDCHAR
STARTCHAR 0398
ENCODING 920
SWIDTH 800 0
DWIDTH 10 0
BBX 8 9 1 0
BITMAP
3C
42
83
81
BD
81
83
42
3C
ENDCHAR
STARTCHAR 0399
ENCODING 921
SWIDTH 320 0
DWIDTH 4 0
BBX 4 9 0 0
BITMAP
F0
20
20
20
20
20
20
20
F0
ENDCHAR
STARTCHAR 039A
ENCODING 922
SWIDTH 640 0
DWIDTH 8 0
BBX 7 9 1 0
BITMAP
86
88
90
A0
E0
90
88
8C
86
ENDCHAR
STARTCHAR 039B
ENCODING 923
SWIDTH 640 0
DWIDTH 8 0
BBX 8 9 0 0
BITMAP
18
18
28
2C
24
44
42
42
83
ENDCHAR
STARTCHAR 039C
ENCODING 924
SWIDTH 880 0
DWIDTH 11 0
BBX 9 9 1 0
BITMAP
C180
C180
A180
A280
B280
9480
9480
8C80
8880
ENDCHAR
STARTCHAR 039D
ENCODING 925
SWIDTH 800 0
DWIDTH 10 0
BBX 7 9 1 0
BITMAP
C2
C2
A2
B2
92
8A
8E
86
82
ENDCHAR
STARTCHAR 039E
ENCODING 926
SWIDTH 560 0
DWIDTH 7 0
BBX 6 9 0 0
BITMAP
7C
00
00
00
7C
00
00
00
FC
ENDCHAR
STARTCHAR 039F
ENCODING 927
SWIDTH 800 0
DWIDTH 10 0
BBX 8 9 1 0
BITMAP
3C
42
83
81
81
81
83
42
3C
ENDCHAR
STARTCHAR 03A0
ENCODING 928
SWIDTH 720 0
DWIDTH 9 0
BBX 7 9 1 0
BITMAP
FE
82
82
82
82
82
82
82
82
ENDCHAR
STARTCHAR 03A1
ENCODING 929
SWIDTH 640 0
DWIDTH 8 0
BBX 6 9 1 0
BITMAP
F8
8C
84
8C
F8
80
80
80
80
ENDCHAR
STARTCHAR 03A3
ENCODING 931
SWIDTH 560 0
DWIDTH 7 0
BBX 7 9 0 0
BITMAP
7C
40
20
10
18
30
20
40
FE
ENDCHAR
STARTCHAR 03A4
ENCODING 932
SWIDTH 560 0
DWIDTH 7 0
BBX 7 9 0 0
BITMAP
FE
10
10
10
10
10
10
10
10
ENDCHAR
STARTCHAR 03A5
ENCODING 933
SWIDTH 560 0
DWIDTH 7 0
BBX 7 9 0 0
BITMAP
82
44
64
28
38
10
10
10
10
ENDCHAR
STARTCHAR 03A6
ENCODING 934
SWIDTH 800 0
DWIDTH 10 0
BBX 8 9 1 0
BITMAP
18
7E
D9
99
99
99
DB
7E
18
ENDCHAR
STARTCHAR 03A7
ENCODING 935
SWIDTH 560 0
DWIDTH 7 0
BBX 7 9 0 0
BITMAP
C2
44
28
38
10
28
2C
44
C2
ENDCHAR
STARTCHAR 03A8
ENCODING 936
SWIDTH 800 0
DWIDTH 10 0
BBX 8 9 1 0
BITMAP
99
99
99
99
99
7E
18
18
18
ENDCHAR
STARTCHAR 03A9
ENCODING 937
SWIDTH 800 0
DWIDTH 10 0
BBX 9 9 0 0
BITMAP
1E00
2100
4080
4080
4080
4080
6100
2300
F380
ENDCHAR
STARTCHAR 03AA
ENCODING 938
SWIDTH 320 0
DWIDTH 4 0
BBX 4 11 0 0
BITMAP
D0
00
F0
20
20
20
20
20
20
20
F0
ENDCHAR
STARTCHAR 03AB
ENCODING 939
SWIDTH 560 0
DWIDTH 7 0
BBX 7 11 0 0
BITMAP
28
00
82
44
64
28
38
10
10
10
10
ENDCHAR
STARTCHAR 03AC
ENCODING 940
SWIDTH 640 0
DWIDTH 8 0
BBX 7 11 1 0
BITMAP
10
10
20
00
74
8C
8C
84
8C
8C
76
ENDCHAR
STARTCHAR 03AD
ENCODING 941
SWIDTH 480 0
DWIDTH 6 0
BBX 5 11 1 0
BITMAP
30
20
20
00
F8
80
80
60
80
80
F8
ENDCHAR
STARTCHAR 03AE
ENCODING 942
SWIDTH 640 0
DWIDTH 8 0
BBX 6 14 1 -3
BITMAP
10
10
10
00
B8
CC
84
84
84
84
84
04
04
04
ENDCHAR
STARTCHAR 03AF
ENCODING 943
SWIDTH 320 0
DWIDTH 4 0
BBX 3 11 1 0
BITMAP
40
80
80
00
80
80
80
80
80
80
60
ENDCHAR
STARTCHAR 03B0
ENCODING 944
SWIDTH 640 0
DWIDTH 8 0
BBX 6 10 1 0
BITMAP
10
68
00
8C
84
84
84
84
CC
78
ENDCHAR
STARTCHAR 03B1
ENCODING 945
SWIDTH 640 0
DWIDTH 8 0
BBX 7 7 1 0
BITMAP
74
8C
8C
84
8C
8C
76
ENDCHAR
STARTCHAR 03B2
ENCODING 946
SWIDTH 640 0
DWIDTH 8 0
BBX 6 13 1 -3
BITMAP
78
C4
84
8C
B8
84
84
84
84
F8
80
80
80
ENDCHAR
STARTCHAR 03B3
ENCODING 947
SWIDTH 480 0
DWIDTH 6 0
BBX 6 10 0 -3
BITMAP
84
44
48
68
28
30
10
10
20
20
ENDCHAR
STARTCHAR 03B4
ENCODING 948
SWIDTH 640 0
DWIDTH 8 0
BBX 6 10 1 0
BITMAP
78
44
40
30
78
8C
84
84
8C
78
ENDCHAR
STARTCHAR 03B5
ENCODING 949
SWIDTH 480 0
DWIDTH 6 0
BBX 5 7 1 0
BITMAP
F8
80
80
60
80
80
F8
ENDCHAR
STARTCHAR 03B6
ENCODING 950
SWIDTH 480 0
DWIDTH 6 0
BBX 5 12 1 -2
BITMAP
F8
10
20
40
80
80
80
80
C0
70
08
10
ENDCHAR
STARTCHAR 03B7
ENCODING 951
SWIDTH 640 0
DWIDTH 8 0
BBX 6 10 1 -3
BITMAP
B8
CC
84
84
84
84
84
04
04
04
ENDCHAR
STARTCHAR 03B8
ENCODING 952
SWIDTH 560 0
DWIDTH 7 0
BBX 6 10 1 0
BITMAP
70
88
88
84
FC
84
84
88
C8
70
ENDCHAR
STARTCHAR 03B9
ENCODING 953
SWIDTH 320 0
DWIDTH 4 0
BBX 3 7 1 0
BITMAP
80
80
80
80
80
80
60
ENDCHAR
STARTCHAR 03BA
ENCODING 954
SWIDTH 560 0
DWIDTH 7 0
BBX 6 7 1 0
BITMAP
88
90
A0
E0
B0
98
8C
ENDCHAR
STARTCHAR 03BB
ENCODING 955
SWIDTH 560 0
DWIDTH 7 0
BBX 7 10 0 0
BITMAP
60
20
10
10
30
28
68
48
44
86
ENDCHAR
STARTCHAR 03BC
ENCODING 956
SWIDTH 640 0
DWIDTH 8 0
BBX 6 10 1 -3
BITMAP
84
84
84
84
84
8C
F4
80
80
80
ENDCHAR
STARTCHAR 03BD
ENCODING 957
SWIDTH 560 0
DWIDTH 7 0
BBX 6 7 0 0
BITMAP
84
44
44
44
28
28
30
ENDCHAR
STARTCHAR 03BE
ENCODING 958
SWIDTH 480 0
DWIDTH 6 0
BBX 5 12 1 -2
BITMAP
F0
40
80
80
70
80
80
80
C0
70
08
10
ENDCHAR
STARTCHAR 03BF
ENCODING 959
SWIDTH 640 0
DWIDTH 8 0
BBX 6 7 1 0
BITMAP
78
88
84
84
84
88
78
ENDCHAR
STARTCHAR 03C0
ENCODING 960
SWIDTH 640 0
DWIDTH 8 0
BBX 8 7 0 0
BITMAP
FF
26
26
26
26
26
23
ENDCHAR
STARTCHAR 03C1
ENCODING 961
SWIDTH 640 0
DWIDTH 8 0
BBX 6 10 1 -3
BITMAP
78
C8
84
84
84
88
F8
80
80
80
ENDCHAR
STARTCHAR 03C2
ENCODING 962
SWIDTH 480 0
DWIDTH 6 0
BBX 5 9 1 -2
BITMAP
78
80
80
80
80
C0
70
08
10
ENDCHAR
STARTCHAR 03C3
ENCODING 963
SWIDTH 640 0
DWIDTH 8 0
BBX 6 7 1 0
BITMAP
7C
88
84
84
84
88
78
ENDCHAR
STARTCHAR 03C4
ENCODING 964
SWIDTH 480 0
DWIDTH 6 0
BBX 6 7 0 0
BITMAP
FC
20
20
20
20
20
38
ENDCHAR
STARTCHAR 03C5
ENCODING 965
SWIDTH 640 0
DWIDTH 8 0
BBX 6 7 1 0
BITMAP
8C
84
84
84
84
CC
78
ENDCHAR
STARTCHAR 03C6
ENCODING 966
SWIDTH 720 0
DWIDTH 9 0
BBX 7 10 1 -3
BITMAP
4C
92
92
92
92
96
7C
10
10
10
ENDCHAR
STARTCHAR 03C7
ENCODING 967
SWIDTH 560 0
DWIDTH 7 0
BBX 7 10 0 -3
BITMAP
C6
64
28
28
10
30
38
48
48
86
ENDCHAR
STARTCHAR 03C8
ENCODING 968
SWIDTH 800 0
DWIDTH 10 0
BBX 8 13 1 -3
BITMAP
10
10
10
92
91
91
91
91
D2
7C
10
10
10
ENDCHAR
STARTCHAR 03C9
ENCODING 969
SWIDTH 800 0
DWIDTH 10 0
BBX 8 7 1 0
BITMAP
C3
81
91
91
91
99
6E
ENDCHAR
STARTCHAR 03CA
ENCODING 970
SWIDTH 320 0
DWIDTH 4 0
BBX 4 9 0 0
BITMAP
A0
00
40
40
40
40
40
40
30
ENDCHAR
STARTCHAR 03CB
ENCODING 971
SWIDTH 640 0
DWIDTH 8 0
BBX 6 9 1 0
BITMAP
58
00
8C
84
84
84
84
CC
78
ENDCHAR
STARTCHAR 03CC
ENCODING 972
SWIDTH 640 0
DWIDTH 8 0
BBX 6 11 1 0
BITMAP
10
10
20
00
78
88
84
84
84
88
78
ENDCHAR
STARTCHAR 03CD
ENCODING 973
SWIDTH 640 0
DWIDTH 8 0
BBX 6 11 1 0
BITMAP
10
10
20
00
8C
84
84
84
84
CC
78
ENDCHAR
STARTCHAR 03CE
ENCODING 974
SWIDTH 800 0
DWIDTH 10 0
BBX 8 11 1 0
BITMAP
08
08
10
00
C3
81
91
91
91
99
6E
ENDCHAR
STARTCHAR 03CF
ENCODING 975
SWIDTH 640 0
DWIDTH 8 0
BBX 7 12 1 -3
BITMAP
86
88
90
B0
F0
90
88
8C
84
06
04
F8
ENDCHAR
STARTCHAR 03D0
ENCODING 976
SWIDTH 560 0
DWIDTH 7 0
BBX 6 10 1 0
BITMAP
78
C8
F8
80
F8
88
84
84
88
70
ENDCHAR
STARTCHAR 03D1
ENCODING 977
SWIDTH 640 0
DWIDTH 8 0
BBX 8 10 0 0
BITMAP
38
64
64
22
DF
42
42
46
44
38
ENDCHAR
STARTCHAR 03D2
ENCODING 978
SWIDTH 560 0
DWIDTH 7 0
BBX 7 9 0 0
BITMAP
86
44
68
28
38
10
10
10
10
ENDCHAR
STARTCHAR 03D3
ENCODING 979
SWIDTH 720 0
DWIDTH 9 0
BBX 9 10 0 0
BITMAP
8000
A180
B300
1200
1A00
0C00
0C00
0400
0400
0400
ENDCHAR
STARTCHAR 03D4
ENCODING 980
SWIDTH 560 0
DWIDTH 7 0
BBX 7 11 0 0
BITMAP
28
00
86
44
68
28
38
10
10
10
10
ENDCHAR
STARTCHAR 03D5
ENCODING 981
SWIDTH 720 0
DWIDTH 9 0
BBX 7 13 1 -3
BITMAP
10
10
10
7C
92
92
92
92
D2
7C
10
10
10
ENDCHAR
STARTCHAR 03D6
ENCODING 982
SWIDTH 880 0
DWIDTH 11 0
BBX 10 7 0 0
BITMAP
FFC0
2080
4080
4480
4480
4480
3B80
ENDCHAR
STARTCHAR 03D7
ENCODING 983
SWIDTH 640 0
DWIDTH 8 0
BBX 8 10 0 -3
BITMAP
C2
26
2C
2C
34
66
43
01
01
03
ENDCHAR
STARTCHAR 03D8
ENCODING 984
SWIDTH 800 0
DWIDTH 10 0
BBX 8 9 1 0
BITMAP
7C
C2
83
81
83
C2
7C
10
10
ENDCHAR
STARTCHAR 03D9
ENCODING 985
SWIDTH 640 0
DWIDTH 8 0
BBX 6 10 1 -3
BITMAP
78
88
84
84
84
88
70
20
20
20
ENDCHAR
STARTCHAR 03DA
ENCODING 986
SWIDTH 640 0
DWIDTH 8 0
BBX 7 9 1 0
BITMAP
3E
C2
80
80
80
C0
70
10
10
ENDCHAR
STARTCHAR 03DB
ENCODING 987
SWIDTH 480 0
DWIDTH 6 0
BBX 5 10 1 -3
BITMAP
78
80
80
80
80
80
70
18
08
70
ENDCHAR
STARTCHAR 03DC
ENCODING 988
SWIDTH 560 0
DWIDTH 7 0
BBX 5 9 1 0
BITMAP
F8
80
80
80
F8
88
88
80
80
ENDCHAR
STARTCHAR 03DD
ENCODING 989
SWIDTH 480 0
DWIDTH 6 0
BBX 4 10 1 -3
BITMAP
F0
80
80
80
F0
90
90
80
80
80
ENDCHAR
STARTCHAR 03DE
ENCODING 990
SWIDTH 480 0
DWIDTH 6 0
BBX 6 9 0 0
BITMAP
C0
40
40
40
FC
08
08
08
0C
ENDCHAR
STARTCHAR 03DF
ENCODING 991
SWIDTH 560 0
DWIDTH 7 0
BBX 5 13 1 -3
BITMAP
C0
40
40
40
80
B8
C8
08
10
10
10
30
18
ENDCHAR
STARTCHAR 03E0
ENCODING 992
SWIDTH 560 0
DWIDTH 7 0
BBX 7 9 0 0
BITMAP
F0
8C
34
44
0E
36
04
04
04
ENDCHAR
STARTCHAR 03E1
ENCODING 993
SWIDTH 560 0
DWIDTH 7 0
BBX 7 13 -1 -3
BITMAP
80
60
18
08
74
04
0E
32
02
02
06
04
04
ENDCHAR
STARTCHAR 03F0
ENCODING 1008
SWIDTH 640 0
DWIDTH 8 0
BBX 8 7 0 0
BITMAP
C2
26
2C
3C
34
66
43
ENDCHAR
STARTCHAR 03F1
ENCODING 1009
SWIDTH 640 0
DWIDTH 8 0
BBX 6 10 1 -3
BITMAP
78
C8
84
84
84
88
F8
80
78
08
ENDCHAR
STARTCHAR 03F2
ENCODING 1010
SWIDTH 480 0
DWIDTH 6 0
BBX 5 7 1 0
BITMAP
78
80
80
80
80
80
70
ENDCHAR
STARTCHAR 03F3
ENCODING 1011
SWIDTH 240 0
DWIDTH 3 0
BBX 3 13 -1 -3
BITMAP
20
00
00
20
20
20
20
20
20
20
20
20
E0
ENDCHAR
STARTCHAR 03F4
ENCODING 1012
SWIDTH 800 0
DWIDTH 10 0
BBX 8 9 1 0
BITMAP
3C
42
83
81
FF
81
83
42
3C
ENDCHAR
STARTCHAR 03F5
ENCODING 1013
SWIDTH 480 0
DWIDTH 6 0
BBX 5 7 1 0
BITMAP
78
80
80
F0
80
80
78
ENDCHAR
STARTCHAR 03F6
ENCODING 1014
SWIDTH 480 0
DWIDTH 6 0
BBX 5 7 0 0
BITMAP
F0
08
08
78
08
08
F0
ENDCHAR
STARTCHAR 03F7
ENCODING 1015
SWIDTH 640 0
DWIDTH 8 0
BBX 6 9 1 0
BITMAP
80
F8
8C
84
84
8C
F8
80
80
ENDCHAR
STARTCHAR 03F8
ENCODING 1016
SWIDTH 640 0
DWIDTH 8 0
BBX 6 13 1 -3
BITMAP
80
80
80
B8
CC
84
84
84
CC
B8
80
80
80
ENDCHAR
STARTCHAR 03F9
ENCODING 1017
SWIDTH 640 0
DWIDTH 8 0
BBX 7 9 1 0
BITMAP
3E
40
80
80
80
80
80
40
3C
ENDCHAR
STARTCHAR 03FA
ENCODING 1018
SWIDTH 880 0
DWIDTH 11 0
BBX 9 9 1 0
BITMAP
C180
E180
A280
9680
9480
8880
8080
8080
8080
ENDCHAR
STARTCHAR 03FB
ENCODING 1019
SWIDTH 720 0
DWIDTH 9 0
BBX 7 10 1 -3
BITMAP
C6
C6
AA
BA
92
82
82
80
80
80
ENDCHAR
STARTCHAR 03FC
ENCODING 1020
SWIDTH 640 0
DWIDTH 8 0
BBX 7 10 0 -3
BITMAP
3C
64
42
42
42
44
7C
40
F8
40
ENDCHAR
STARTCHAR 03FD
ENCODING 1021
SWIDTH 640 0
DWIDTH 8 0
BBX 7 9 0 0
BITMAP
F8
04
02
02
02
02
02
04
78
ENDCHAR
STARTCHAR 03FE
ENCODING 1022
SWIDTH 640 0
DWIDTH 8 0
BBX 7 9 1 0
BITMAP
3E
40
80
98
98
80
80
40
3C
ENDCHAR
STARTCHAR 03FF
ENCODING 1023
SWIDTH 640 0
DWIDTH 8 0
BBX 7 9 0 0
BITMAP
F8
04
02
32
32
02
02
04
78
ENDCHAR
STARTCHAR 0400
ENCODING 1024
SWIDTH 560 0
DWIDTH 7 0
BBX 5 12 1 0
BITMAP
60
30
00
F8
80
80
80
F8
80
80
80
F8
ENDCHAR
STARTCHAR 0401
ENCODING 1025
SWIDTH 560 0
DWIDTH 7 0
BBX 5 11 1 0
BITMAP
58
00
F8
80
80
80
F8
80
80
80
F8
ENDCHAR
STARTCHAR 0402
ENCODING 1026
SWIDTH 720 0
DWIDTH 9 0
BBX 8 9 0 0
BITMAP
FC
20
20
3E
21
21
21
21
27
ENDCHAR
STARTCHAR 0403
ENCODING 1027
SWIDTH 560 0
DWIDTH 7 0
BBX 5 12 1 0
BITMAP
18
20
00
F8
80
80
80
80
80
80
80
80
ENDCHAR
STARTCHAR 0404
ENCODING 1028
SWIDTH 640 0
DWIDTH 8 0
BBX 7 9 1 0
BITMAP
3E
40
80
80
F8
80
80
40
3C
ENDCHAR
STARTCHAR 0405
ENCODING 1029
SWIDTH 560 0
DWIDTH 7 0
BBX 5 9 1 0
BITMAP
78
80
80
C0
70
08
08
08
F0
ENDCHAR
STARTCHAR 0406
ENCODING 1030
SWIDTH 320 0
DWIDTH 4 0
BBX 4 9 0 0
BITMAP
F0
20
20
20
20
20
20
20
F0
ENDCHAR
STARTCHAR 0407
ENCODING 1031
SWIDTH 320 0
DWIDTH 4 0
BBX 4 11 0 0
BITMAP
D0
00
F0
20
20
20
20
20
20
20
F0
ENDCHAR
STARTCHAR 0408
ENCODING 1032
SWIDTH 240 0
DWIDTH 3 0
BBX 3 12 -1 -3
BITMAP
20
20
20
20
20
20
20
20
20
20
20
C0
ENDCHAR
STARTCHAR 0409
ENCODING 1033
SWIDTH 960 0
DWIDTH 12 0
BBX 11 9 0 0
BITMAP
1E00
1200
2200
2200
23C0
2220
2220
6220
C3C0
ENDCHAR
STARTCHAR 040A
ENCODING 1034
SWIDTH 960 0
DWIDTH 12 0
BBX 11 9 1 0
BITMAP
8400
8400
8400
8400
FF80
8440
8460
8440
8780
ENDCHAR
STARTCHAR 040B
ENCODING 1035
SWIDTH 720 0
DWIDTH 9 0
BBX 8 9 0 0
BITMAP
FC
20
20
3E
21
21
21
21
21
ENDCHAR
STARTCHAR 040C
ENCODING 1036
SWIDTH 640 0
DWIDTH 8 0
BBX 7 12 1 0
BITMAP
18
30
00
86
88
90
A0
E0
B0
98
88
86
ENDCHAR
STARTCHAR 040D
ENCODING 1037
SWIDTH 800 0
DWIDTH 10 0
BBX 7 12 1 0
BITMAP
30
08
00
82
86
8E
8A
92
B2
A2
C2
C2
ENDCHAR
STARTCHAR 040E
ENCODING 1038
SWIDTH 640 0
DWIDTH 8 0
BBX 8 12 0 0
BITMAP
24
3C
00
C3
42
62
24
34
18
18
10
70
ENDCHAR
STARTCHAR 040F
ENCODING 1039
SWIDTH 720 0
DWIDTH 9 0
BBX 7 11 1 -2
BITMAP
82
82
82
82
82
82
82
82
FE
10
10
ENDCHAR
STARTCHAR 0410
ENCODING 1040
SWIDTH 640 0
DWIDTH 8 0
BBX 8 9 0 0
BITMAP
18
18
18
24
24
7E
42
42
81
ENDCHAR
STARTCHAR 0411
ENCODING 1041
SWIDTH 640 0
DWIDTH 8 0
BBX 6 9 1 0
BITMAP
FC
80
80
80
F8
84
84
84
F8
ENDCHAR
STARTCHAR 0412
ENCODING 1042
SWIDTH 640 0
DWIDTH 8 0
BBX 6 9 1 0
BITMAP
F8
84
84
84
F8
84
84
84
F8
ENDCHAR
STARTCHAR 0413
ENCODING 1043
SWIDTH 560 0
DWIDTH 7 0
BBX 5 9 1 0
BITMAP
F8
80
80
80
80
80
80
80
80
ENDCHAR
STARTCHAR 0414
ENCODING 1044
SWIDTH 720 0
DWIDTH 9 0
BBX 8 11 0 -2
BITMAP
1E
12
12
12
22
22
22
42
FF
81
81
ENDCHAR
STARTCHAR 0415
ENCODING 1045
SWIDTH 560 0
DWIDTH 7 0
BBX 5 9 1 0
BITMAP
F8
80
80
80
F8
80
80
80
F8
ENDCHAR
STARTCHAR 0416
ENCODING 1046
SWIDTH 880 0
DWIDTH 11 0
BBX 11 9 0 0
BITMAP
C460
6480
2580
1500
1E00
1500
2580
4480
C460
ENDCHAR
STARTCHAR 0417
ENCODING 1047
SWIDTH 560 0
DWIDTH 7 0
BBX 7 9 0 0
BITMAP
7C
44
04
04
78
04
06
04
F8
ENDCHAR
STARTCHAR 0418
ENCODING 1048
SWIDTH 800 0
DWIDTH 10 0
BBX 7 9 1 0
BITMAP
82
86
8E
8A
92
B2
A2
C2
C2
ENDCHAR
STARTCHAR 0419
ENCODING 1049
SWIDTH 800 0
DWIDTH 10 0
BBX 7 12 1 0
BITMAP
24
3C
00
82
86
8E
8A
92
B2
A2
C2
C2
ENDCHAR
STARTCHAR 041A
ENCODING 1050
SWIDTH 640 0
DWIDTH 8 0
BBX 7 9 1 0
BITMAP
86
88
90
A0
E0
B0
98
88
86
ENDCHAR
STARTCHAR 041B
ENCODING 1051
SWIDTH 720 0
DWIDTH 9 0
BBX 8 9 0 0
BITMAP
1F
11
21
21
21
21
21
61
C1
ENDCHAR
STARTCHAR 041C
ENCODING 1052
SWIDTH 880 0
DWIDTH 11 0
BBX 9 9 1 0
BITMAP
C180
C180
A180
A280
B280
9480
9480
8C80
8880
ENDCHAR
STARTCHAR 041D
ENCODING 1053
SWIDTH 720 0
DWIDTH 9 0
BBX 7 9 1 0
BITMAP
82
82
82
82
FE
82
82
82
82
ENDCHAR
STARTCHAR 041E
ENCODING 1054
SWIDTH 800 0
DWIDTH 10 0
BBX 8 9 1 0
BITMAP
3C
42
83
81
81
81
83
42
3C
ENDCHAR
STARTCHAR 041F
ENCODING 1055
SWIDTH 720 0
DWIDTH 9 0
BBX 7 9 1 0
BITMAP
FE
82
82
82
82
82
82
82
82
ENDCHAR
STARTCHAR 0420
ENCODING 1056
SWIDTH 640 0
DWIDTH 8 0
BBX 6 9 1 0
BITMAP
F8
8C
84
8C
F8
80
80
80
80
ENDCHAR
STARTCHAR 0421
ENCODING 1057
SWIDTH 640 0
DWIDTH 8 0
BBX 7 9 1 0
BITMAP
3E
40
80
80
80
80
80
40
3C
ENDCHAR
STARTCHAR 0422
ENCODING 1058
SWIDTH 560 0
DWIDTH 7 0
BBX 7 9 0 0
BITMAP
FE
10
10
10
10
10
10
10
10
ENDCHAR
STARTCHAR 0423
ENCODING 1059
SWIDTH 640 0
DWIDTH 8 0
BBX 8 9 0 0
BITMAP
C3
42
62
24
34
18
18
10
70
ENDCHAR
STARTCHAR 0424
ENCODING 1060
SWIDTH 800 0
DWIDTH 10 0
BBX 8 9 1 0
BITMAP
18
7E
D9
99
99
99
DB
7E
18
ENDCHAR
STARTCHAR 0425
ENCODING 1061
SWIDTH 560 0
DWIDTH 7 0
BBX 7 9 0 0
BITMAP
C2
44
28
38
10
28
2C
44
C2
ENDCHAR
STARTCHAR 0426
ENCODING 1062
SWIDTH 720 0
DWIDTH 9 0
BBX 8 11 1 -2
BITMAP
82
82
82
82
82
82
82
82
FF
01
01
ENDCHAR
STARTCHAR 0427
ENCODING 1063
SWIDTH 720 0
DWIDTH 9 0
BBX 7 9 1 0
BITMAP
86
86
86
86
86
7E
06
06
06
ENDCHAR
STARTCHAR 0428
ENCODING 1064
SWIDTH 1040 0
DWIDTH 13 0
BBX 11 9 1 0
BITMAP
8420
8420
8420
8420
8420
8420
8420
8420
FFE0
ENDCHAR
STARTCHAR 0429
ENCODING 1065
SWIDTH 1040 0
DWIDTH 13 0
BBX 12 11 1 -2
BITMAP
8460
8460
8460
8460
8460
8460
8460
8460
FFF0
0010
0010
ENDCHAR
STARTCHAR 042A
ENCODING 1066
SWIDTH 720 0
DWIDTH 9 0
BBX 8 9 0 0
BITMAP
E0
20
20
20
3E
21
21
21
3E
ENDCHAR
STARTCHAR 042B
ENCODING 1067
SWIDTH 880 0
DWIDTH 11 0
BBX 9 9 1 0
BITMAP
8180
8180
8180
8180
F980
8580
8580
8D80
F980
ENDCHAR
STARTCHAR 042C
ENCODING 1068
SWIDTH 640 0
DWIDTH 8 0
BBX 6 9 1 0
BITMAP
80
80
80
80
F8
84
84
84
F8
ENDCHAR
STARTCHAR 042D
ENCODING 1069
SWIDTH 640 0
DWIDTH 8 0
BBX 7 9 0 0
BITMAP
F8
04
02
02
3E
02
02
04
F8
ENDCHAR
STARTCHAR 042E
ENCODING 1070
SWIDTH 1040 0
DWIDTH 13 0
BBX 11 9 1 0
BITMAP
8780
8C60
8820
8820
F820
9820
8820
8C60
87C0
ENDCHAR
STARTCHAR 042F
ENCODING 1071
SWIDTH 640 0
DWIDTH 8 0
BBX 7 9 0 0
BITMAP
3E
42
42
62
3E
32
22
42
C2
ENDCHAR
STARTCHAR 0430
ENCODING 1072
SWIDTH 560 0
DWIDTH 7 0
BBX 5 7 1 0
BITMAP
F0
08
08
F8
88
98
E8
ENDCHAR
STARTCHAR 0431
ENCODING 1073
SWIDTH 560 0
DWIDTH 7 0
BBX 6 10 1 0
BITMAP
3C
40
80
B8
C8
84
84
84
C8
70
ENDCHAR
STARTCHAR 0432
ENCODING 1074
SWIDTH 560 0
DWIDTH 7 0
BBX 6 7 1 0
BITMAP
F8
88
88
F0
8C
8C
F8
ENDCHAR
STARTCHAR 0433
ENCODING 1075
SWIDTH 400 0
DWIDTH 5 0
BBX 4 7 1 0
BITMAP
F0
80
80
80
80
80
80
ENDCHAR
STARTCHAR 0434
ENCODING 1076
SWIDTH 560 0
DWIDTH 7 0
BBX 7 9 0 -2
BITMAP
1C
24
24
24
24
44
FE
82
82
ENDCHAR
STARTCHAR 0435
ENCODING 1077
SWIDTH 560 0
DWIDTH 7 0
BBX 5 7 1 0
BITMAP
70
88
88
F8
80
80
78
ENDCHAR
STARTCHAR 0436
ENCODING 1078
SWIDTH 720 0
DWIDTH 9 0
BBX 9 7 0 0
BITMAP
C880
6900
2A00
1C00
2A00
4900
C880
ENDCHAR
STARTCHAR 0437
ENCODING 1079
SWIDTH 480 0
DWIDTH 6 0
BBX 6 7 0 0
BITMAP
F8
08
08
30
08
0C
F8
ENDCHAR
STARTCHAR 0438
ENCODING 1080
SWIDTH 640 0
DWIDTH 8 0
BBX 6 7 1 0
BITMAP
8C
8C
94
B4
A4
C4
C4
ENDCHAR
STARTCHAR 0439
ENCODING 1081
SWIDTH 640 0
DWIDTH 8 0
BBX 6 10 1 0
BITMAP
48
78
00
8C
8C
94
B4
A4
C4
C4
ENDCHAR
STARTCHAR 043A
ENCODING 1082
SWIDTH 560 0
DWIDTH 7 0
BBX 5 7 1 0
BITMAP
88
90
A0
C0
A0
90
88
ENDCHAR
STARTCHAR 043B
ENCODING 1083
SWIDTH 560 0
DWIDTH 7 0
BBX 6 7 0 0
BITMAP
3C
24
24
24
24
44
C4
ENDCHAR
STARTCHAR 043C
ENCODING 1084
SWIDTH 720 0
DWIDTH 9 0
BBX 7 7 1 0
BITMAP
C2
C6
C6
AA
AA
9A
92
ENDCHAR
STARTCHAR 043D
ENCODING 1085
SWIDTH 640 0
DWIDTH 8 0
BBX 6 7 1 0
BITMAP
84
84
84
FC
84
84
84
ENDCHAR
STARTCHAR 043E
ENCODING 1086
SWIDTH 640 0
DWIDTH 8 0
BBX 6 7 1 0
BITMAP
78
88
84
84
84
88
78
ENDCHAR
STARTCHAR 043F
ENCODING 1087
SWIDTH 640 0
DWIDTH 8 0
BBX 6 7 1 0
BITMAP
FC
84
84
84
84
84
84
ENDCHAR
STARTCHAR 0440
ENCODING 1088
SWIDTH 640 0
DWIDTH 8 0
BBX 6 10 1 -3
BITMAP
B8
CC
84
84
84
CC
B8
80
80
80
ENDCHAR
STARTCHAR 0441
ENCODING 1089
SWIDTH 480 0
DWIDTH 6 0
BBX 5 7 1 0
BITMAP
78
80
80
80
80
80
70
ENDCHAR
STARTCHAR 0442
ENCODING 1090
SWIDTH 480 0
DWIDTH 6 0
BBX 6 7 0 0
BITMAP
FC
30
30
30
30
30
30
ENDCHAR
STARTCHAR 0443
ENCODING 1091
SWIDTH 480 0
DWIDTH 6 0
BBX 6 10 0 -3
BITMAP
84
44
48
48
28
30
10
10
20
E0
ENDCHAR
STARTCHAR 0444
ENCODING 1092
SWIDTH 720 0
DWIDTH 9 0
BBX 7 13 1 -3
BITMAP
10
10
10
7C
92
92
92
92
D2
7C
10
10
10
ENDCHAR
STARTCHAR 0445
ENCODING 1093
SWIDTH 560 0
DWIDTH 7 0
BBX 6 7 0 0
BITMAP
C4
68
38
10
38
48
C4
ENDCHAR
STARTCHAR 0446
ENCODING 1094
SWIDTH 640 0
DWIDTH 8 0
BBX 7 9 1 -2
BITMAP
84
84
84
84
84
84
FE
02
02
ENDCHAR
STARTCHAR 0447
ENCODING 1095
SWIDTH 640 0
DWIDTH 8 0
BBX 6 7 1 0
BITMAP
8C
8C
8C
8C
7C
0C
0C
ENDCHAR
STARTCHAR 0448
ENCODING 1096
SWIDTH 880 0
DWIDTH 11 0
BBX 9 7 1 0
BITMAP
8880
8880
8880
8880
8880
8880
FF80
ENDCHAR
STARTCHAR 0449
ENCODING 1097
SWIDTH 880 0
DWIDTH 11 0
BBX 10 9 1 -2
BITMAP
8880
8880
8880
8880
8880
8880
FFC0
0040
0040
ENDCHAR
STARTCHAR 044A
ENCODING 1098
SWIDTH 720 0
DWIDTH 9 0
BBX 8 7 0 0
BITMAP
E0
20
20
3E
21
21
3E
ENDCHAR
STARTCHAR 044B
ENCODING 1099
SWIDTH 800 0
DWIDTH 10 0
BBX 8 7 1 0
BITMAP
81
81
81
F9
89
89
F9
ENDCHAR
STARTCHAR 044C
ENCODING 1100
SWIDTH 560 0
DWIDTH 7 0
BBX 6 7 1 0
BITMAP
80
80
80
F8
84
84
F8
ENDCHAR
STARTCHAR 044D
ENCODING 1101
SWIDTH 480 0
DWIDTH 6 0
BBX 5 7 0 0
BITMAP
F0
08
08
78
08
08
F0
ENDCHAR
STARTCHAR 044E
ENCODING 1102
SWIDTH 800 0
DWIDTH 10 0
BBX 9 7 1 0
BITMAP
8E00
9100
9080
F080
9080
9100
8E00
ENDCHAR
STARTCHAR 044F
ENCODING 1103
SWIDTH 560 0
DWIDTH 7 0
BBX 6 7 0 0
BITMAP
7C
44
44
7C
24
44
C4
ENDCHAR
STARTCHAR 0450
ENCODING 1104
SWIDTH 560 0
DWIDTH 7 0
BBX 5 10 1 0
BITMAP
60
20
00
70
88
88
F8
80
80
78
ENDCHAR
STARTCHAR 0451
ENCODING 1105
SWIDTH 560 0
DWIDTH 7 0
BBX 5 9 1 0
BITMAP
50
00
70
88
88
F8
80
80
78
ENDCHAR
STARTCHAR 0452
ENCODING 1106
SWIDTH 640 0
DWIDTH 8 0
BBX 7 13 0 -3
BITMAP
40
F8
40
5C
66
42
42
42
42
42
02
02
0C
ENDCHAR
STARTCHAR 0453
ENCODING 1107
SWIDTH 400 0
DWIDTH 5 0
BBX 4 10 1 0
BITMAP
30
60
00
F0
80
80
80
80
80
80
ENDCHAR
STARTCHAR 0454
ENCODING 1108
SWIDTH 480 0
DWIDTH 6 0
BBX 5 7 1 0
BITMAP
78
80
80
F0
80
80
78
ENDCHAR
STARTCHAR 0455
ENCODING 1109
SWIDTH 480 0
DWIDTH 6 0
BBX 4 7 1 0
BITMAP
F0
80
80
60
10
10
F0
ENDCHAR
STARTCHAR 0456
ENCODING 1110
SWIDTH 240 0
DWIDTH 3 0
BBX 1 10 1 0
BITMAP
80
00
00
80
80
80
80
80
80
80
ENDCHAR
STARTCHAR 0457
ENCODING 1111
SWIDTH 240 0
DWIDTH 3 0
BBX 3 9 0 0
BITMAP
A0
00
40
40
40
40
40
40
40
ENDCHAR
STARTCHAR 0458
ENCODING 1112
SWIDTH 240 0
DWIDTH 3 0
BBX 3 13 -1 -3
BITMAP
20
00
00
20
20
20
20
20
20
20
20
20
E0
ENDCHAR
STARTCHAR 0459
ENCODING 1113
SWIDTH 880 0
DWIDTH 11 0
BBX 10 7 0 0
BITMAP
3C00
2400
2400
2780
2440
4440
C780
ENDCHAR
STARTCHAR 045A
ENCODING 1114
SWIDTH 880 0
DWIDTH 11 0
BBX 9 7 1 0
BITMAP
8800
8800
8800
FF80
8880
8880
8F80
ENDCHAR
STARTCHAR 045B
ENCODING 1115
SWIDTH 640 0
DWIDTH 8 0
BBX 7 10 0 0
BITMAP
40
F8
40
5C
66
42
42
42
42
42
ENDCHAR
STARTCHAR 045C
ENCODING 1116
SWIDTH 560 0
DWIDTH 7 0
BBX 5 10 1 0
BITMAP
10
20
00
88
90
A0
C0
A0
90
88
ENDCHAR
STARTCHAR 045D
ENCODING 1117
SWIDTH 640 0
DWIDTH 8 0
BBX 6 10 1 0
BITMAP
60
10
00
8C
8C
94
B4
A4
C4
C4
ENDCHAR
STARTCHAR 045E
ENCODING 1118
SWIDTH 480 0
DWIDTH 6 0
BBX 6 13 0 -3
BITMAP
4C
38
00
84
44
48
48
28
30
10
10
20
E0
ENDCHAR
STARTCHAR 045F
ENCODING 1119
SWIDTH 640 0
DWIDTH 8 0
BBX 6 9 1 -2
BITMAP
84
84
84
84
84
84
FC
20
20
ENDCHAR
STARTCHAR 0460
ENCODING 1120
SWIDTH 880 0
DWIDTH 11 0
BBX 11 9 0 0
BITMAP
C420
C420
4420
4620
4660
6A40
2940
29C0
1180
ENDCHAR
STARTCHAR 0461
ENCODING 1121
SWIDTH 800 0
DWIDTH 10 0
BBX 10 7 0 0
BITMAP
88C0
8880
4C80
4C80
4C80
3300
3300
ENDCHAR
STARTCHAR 0462
ENCODING 1122
SWIDTH 640 0
DWIDTH 8 0
BBX 8 9 0 0
BITMAP
20
FC
20
20
3E
23
21
23
3E
ENDCHAR
STARTCHAR 0463
ENCODING 1123
SWIDTH 640 0
DWIDTH 8 0
BBX 7 8 0 0
BITMAP
20
F8
20
20
3E
22
22
3E
ENDCHAR
STARTCHAR 0464
ENCODING 1124
SWIDTH 960 0
DWIDTH 12 0
BBX 10 9 1 0
BITMAP
83C0
8C00
8800
9800
FF80
9800
8800
8C00
87C0
ENDCHAR
STARTCHAR 0465
ENCODING 1125
SWIDTH 720 0
DWIDTH 9 0
BBX 8 7 1 0
BITMAP
8F
98
90
FE
90
98
8F
ENDCHAR
STARTCHAR 0466
ENCODING 1126
SWIDTH 720 0
DWIDTH 9 0
BBX 9 9 0 0
BITMAP
0800
1800
1400
2400
3E00
6A00
4A00
4900
8980
ENDCHAR
STARTCHAR 0467
ENCODING 1127
SWIDTH 560 0
DWIDTH 7 0
BBX 7 7 0 0
BITMAP
10
28
28
7C
54
54
92
ENDCHAR
STARTCHAR 0468
ENCODING 1128
SWIDTH 960 0
DWIDTH 12 0
BBX 11 9 1 0
BITMAP
8200
8700
8500
8D00
FF80
8A80
92C0
9240
A260
ENDCHAR
STARTCHAR 0469
ENCODING 1129
SWIDTH 800 0
DWIDTH 10 0
BBX 9 7 1 0
BITMAP
8C00
8C00
8A00
FE00
9500
A500
A580
ENDCHAR
STARTCHAR 046A
ENCODING 1130
SWIDTH 720 0
DWIDTH 9 0
BBX 9 9 0 0
BITMAP
7F00
2300
3200
1400
3E00
6900
4900
4980
8880
ENDCHAR
STARTCHAR 046B
ENCODING 1131
SWIDTH 640 0
DWIDTH 8 0
BBX 8 7 0 0
BITMAP
7E
24
18
3C
5A
5A
99
ENDCHAR
STARTCHAR 046C
ENCODING 1132
SWIDTH 960 0
DWIDTH 12 0
BBX 11 9 1 0
BITMAP
9FC0
8840
8480
8700
FF80
8A40
9240
9220
B220
ENDCHAR
STARTCHAR 046D
ENCODING 1133
SWIDTH 880 0
DWIDTH 11 0
BBX 10 7 1 0
BITMAP
9F80
9100
8A00
FF00
9580
A480
A4C0
ENDCHAR
STARTCHAR 046E
ENCODING 1134
SWIDTH 560 0
DWIDTH 7 0
BBX 7 13 0 -2
BITMAP
6C
38
FC
44
04
04
78
04
06
04
7C
C0
7C
ENDCHAR
STARTCHAR 046F
ENCODING 1135
SWIDTH 480 0
DWIDTH 6 0
BBX 6 11 0 -2
BITMAP
48
30
F8
08
08
30
08
0C
78
80
78
ENDCHAR
STARTCHAR 0470
ENCODING 1136
SWIDTH 800 0
DWIDTH 10 0
BBX 8 9 1 0
BITMAP
99
99
99
99
99
7E
18
18
18
ENDCHAR
STARTCHAR 0471
ENCODING 1137
SWIDTH 800 0
DWIDTH 10 0
BBX 8 13 1 -3
BITMAP
10
10
10
92
91
91
91
91
D2
7C
10
10
10
ENDCHAR
STARTCHAR 0472
ENCODING 1138
SWIDTH 800 0
DWIDTH 10 0
BBX 8 9 1 0
BITMAP
3C
42
83
81
FF
81
83
42
3C
ENDCHAR
STARTCHAR 0473
ENCODING 1139
SWIDTH 640 0
DWIDTH 8 0
BBX 6 7 1 0
BITMAP
78
88
84
FC
84
88
78
ENDCHAR
STARTCHAR 0474
ENCODING 1140
SWIDTH 640 0
DWIDTH 8 0
BBX 8 9 0 0
BITMAP
83
42
46
44
24
2C
28
18
18
ENDCHAR
STARTCHAR 0475
ENCODING 1141
SWIDTH 480 0
DWIDTH 6 0
BBX 7 7 0 0
BITMAP
86
44
48
48
28
30
30
ENDCHAR
STARTCHAR 0476
ENCODING 1142
SWIDTH 640 0
DWIDTH 8 0
BBX 8 12 0 0
BITMAP
78
2C
00
83
42
46
44
24
2C
28
18
18
ENDCHAR
STARTCHAR 0477
ENCODING 1143
SWIDTH 480 0
DWIDTH 6 0
BBX 7 10 0 0
BITMAP
D0
28
00
86
44
48
48
28
30
30
ENDCHAR
STARTCHAR 0478
ENCODING 1144
SWIDTH 1200 0
DWIDTH 15 0
BBX 14 12 1 -3
BITMAP
3C00
4600
8284
82C4
8248
8248
8228
4630
3C30
0020
0020
00C0
ENDCHAR
STARTCHAR 0479
ENCODING 1145
SWIDTH 1120 0
DWIDTH 14 0
BBX 13 10 1 -3
BITMAP
7B18
8910
8510
84A0
84A0
88A0
7840
0040
00C0
0380
ENDCHAR
STARTCHAR 047A
ENCODING 1146
SWIDTH 800 0
DWIDTH 10 0
BBX 9 11 1 -1
BITMAP
1800
7E00
4300
8100
8100
8180
8100
8100
4300
7E00
1800
ENDCHAR
STARTCHAR 047B
ENCODING 1147
SWIDTH 640 0
DWIDTH 8 0
BBX 7 8 1 -1
BITMAP
30
7C
84
86
86
84
7C
30
ENDCHAR
STARTCHAR 047C
ENCODING 1148
SWIDTH 1040 0
DWIDTH 13 0
BBX 11 13 1 0
BITMAP
1F00
0400
0400
0800
7B80
C040
8020
8020
8020
8420
8420
C440
7B80
ENDCHAR
STARTCHAR 047D
ENCODING 1149
SWIDTH 880 0
DWIDTH 11 0
BBX 10 11 1 0
BITMAP
3E00
0800
0800
0000
7700
8080
80C0
88C0
88C0
8880
7700
ENDCHAR
STARTCHAR 047E
ENCODING 1150
SWIDTH 880 0
DWIDTH 11 0
BBX 11 12 0 0
BITMAP
1F00
1500
0000
C420
C420
4420
4620
4660
6A40
2940
29C0
1180
ENDCHAR
STARTCHAR 047F
ENCODING 1151
SWIDTH 800 0
DWIDTH 10 0
BBX 10 9 0 0
BITMAP
3E00
2A00
88C0
8880
4C80
4C80
4C80
3300
3300
ENDCHAR
STARTCHAR 0480
ENCODING 1152
SWIDTH 640 0
DWIDTH 8 0
BBX 7 12 1 -3
BITMAP
3E
40
80
80
80
80
80
40
38
08
08
08
ENDCHAR
STARTCHAR 0481
ENCODING 1153
SWIDTH 480 0
DWIDTH 6 0
BBX 5 10 1 -3
BITMAP
78
80
80
80
80
80
70
10
10
10
ENDCHAR
STARTCHAR 0482
ENCODING 1154
SWIDTH 640 0
DWIDTH 8 0
BBX 6 8 1 0
BITMAP
08
48
30
1C
A0
60
50
80
ENDCHAR
STARTCHAR 0483
ENCODING 1155
SWIDTH 0 0
DWIDTH 0 0
BBX 5 1 -6 8
BITMAP
F8
ENDCHAR
STARTCHAR 0484
ENCODING 1156
SWIDTH 0 0
DWIDTH 0 0
BBX 5 2 -6 8
BITMAP
38
C8
ENDCHAR
STARTCHAR 0485
ENCODING 1157
SWIDTH 0 0
DWIDTH 0 0
BBX 1 2 -4 8
BITMAP
80
80
ENDCHAR
STARTCHAR 0486
ENCODING 1158
SWIDTH 0 0
DWIDTH 0 0
BBX 1 2 -4 8
BITMAP
80
80
ENDCHAR
STARTCHAR 0487
ENCODING 1159
SWIDTH 0 0
DWIDTH 0 0
BBX 4 2 -2 10
BITMAP
E0
B0
ENDCHAR
STARTCHAR 0488
ENCODING 1160
SWIDTH 0 0
DWIDTH 0 0
BBX 14 13 -7 -3
BITMAP
0300
0480
0000
7038
0000
0000
E01C
A014
0000
0000
3030
4008
0700
ENDCHAR
STARTCHAR 0489
ENCODING 1161
SWIDTH 0 0
DWIDTH 0 0
BBX 14 14 -7 -4
BITMAP
0100
0100
2210
1030
1000
0000
8010
600C
0000
0000
1020
2110
0210
0200
ENDCHAR
STARTCHAR 048A
ENCODING 1162
SWIDTH 800 0
DWIDTH 10 0
BBX 9 14 1 -2
BITMAP
6400
3800
0000
8200
8600
8E00
8A00
9200
9200
A200
C200
C380
0100
0300
ENDCHAR
STARTCHAR 048B
ENCODING 1163
SWIDTH 640 0
DWIDTH 8 0
BBX 7 12 1 -2
BITMAP
48
78
00
8C
8C
94
B4
A4
C4
C6
02
04
ENDCHAR
STARTCHAR 048C
ENCODING 1164
SWIDTH 640 0
DWIDTH 8 0
BBX 7 9 0 0
BITMAP
40
F0
40
40
7C
42
42
46
7C
ENDCHAR
STARTCHAR 048D
ENCODING 1165
SWIDTH 560 0
DWIDTH 7 0
BBX 7 10 0 0
BITMAP
40
40
F0
40
40
40
7C
42
42
7C
ENDCHAR
STARTCHAR 048E
ENCODING 1166
SWIDTH 640 0
DWIDTH 8 0
BBX 6 9 1 0
BITMAP
F8
84
84
9C
F8
88
80
80
80
ENDCHAR
STARTCHAR 048F
ENCODING 1167
SWIDTH 640 0
DWIDTH 8 0
BBX 6 10 1 -3
BITMAP
B8
CC
84
84
84
DC
B8
84
80
80
ENDCHAR
STARTCHAR 0490
ENCODING 1168
SWIDTH 560 0
DWIDTH 7 0
BBX 5 11 1 0
BITMAP
08
08
F8
80
80
80
80
80
80
80
80
ENDCHAR
STARTCHAR 0491
ENCODING 1169
SWIDTH 400 0
DWIDTH 5 0
BBX 4 9 1 0
BITMAP
10
10
F0
80
80
80
80
80
80
ENDCHAR
STARTCHAR 0492
ENCODING 1170
SWIDTH 560 0
DWIDTH 7 0
BBX 6 9 0 0
BITMAP
7C
40
40
40
F8
40
40
40
40
ENDCHAR
STARTCHAR 0493
ENCODING 1171
SWIDTH 400 0
DWIDTH 5 0
BBX 5 7 0 0
BITMAP
78
40
40
F0
40
40
40
ENDCHAR
STARTCHAR 0494
ENCODING 1172
SWIDTH 640 0
DWIDTH 8 0
BBX 7 12 1 -3
BITMAP
F8
80
80
80
F8
8C
84
86
86
06
04
38
ENDCHAR
STARTCHAR 0495
ENCODING 1173
SWIDTH 560 0
DWIDTH 7 0
BBX 5 10 1 -3
BITMAP
F0
80
80
F0
88
88
88
08
08
70
ENDCHAR
STARTCHAR 0496
ENCODING 1174
SWIDTH 880 0
DWIDTH 11 0
BBX 11 11 0 -2
BITMAP
C460
6480
2580
1500
0E00
1500
2580
4480
C460
0020
0020
ENDCHAR
STARTCHAR 0497
ENCODING 1175
SWIDTH 800 0
DWIDTH 10 0
BBX 10 9 0 -2
BITMAP
C880
6900
2A00
1C00
2A00
4900
C8C0
0040
0040
ENDCHAR
STARTCHAR 0498
ENCODING 1176
SWIDTH 560 0
DWIDTH 7 0
BBX 7 12 0 -3
BITMAP
7C
44
04
04
78
04
06
04
FC
10
10
30
ENDCHAR
STARTCHAR 0499
ENCODING 1177
SWIDTH 480 0
DWIDTH 6 0
BBX 6 10 0 -3
BITMAP
F8
08
08
30
08
0C
F8
10
10
30
ENDCHAR
STARTCHAR 049A
ENCODING 1178
SWIDTH 640 0
DWIDTH 8 0
BBX 7 11 1 -2
BITMAP
86
88
90
A0
E0
B0
98
88
86
02
02
ENDCHAR
STARTCHAR 049B
ENCODING 1179
SWIDTH 560 0
DWIDTH 7 0
BBX 6 9 1 -2
BITMAP
88
90
A0
C0
A0
90
8C
04
04
ENDCHAR
STARTCHAR 049C
ENCODING 1180
SWIDTH 640 0
DWIDTH 8 0
BBX 7 9 1 0
BITMAP
86
A8
B0
A0
E0
B0
B8
8C
86
ENDCHAR
STARTCHAR 049D
ENCODING 1181
SWIDTH 560 0
DWIDTH 7 0
BBX 5 7 1 0
BITMAP
88
B0
A0
E0
A0
B0
A8
ENDCHAR
STARTCHAR 049E
ENCODING 1182
SWIDTH 640 0
DWIDTH 8 0
BBX 8 9 0 0
BITMAP
43
F4
48
50
70
58
4C
44
43
ENDCHAR
STARTCHAR 049F
ENCODING 1183
SWIDTH 560 0
DWIDTH 7 0
BBX 6 10 0 0
BITMAP
40
F0
40
44
48
50
60
50
48
44
ENDCHAR
STARTCHAR 04A0
ENCODING 1184
SWIDTH 720 0
DWIDTH 9 0
BBX 9 9 0 0
BITMAP
E100
2200
2400
2800
3800
2C00
2400
2200
2180
ENDCHAR
STARTCHAR 04A1
ENCODING 1185
SWIDTH 640 0
DWIDTH 8 0
BBX 8 7 0 0
BITMAP
E3
24
28
38
2C
24
23
ENDCHAR
STARTCHAR 04A2
ENCODING 1186
SWIDTH 720 0
DWIDTH 9 0
BBX 8 11 1 -2
BITMAP
82
82
82
82
FE
82
82
82
83
01
01
ENDCHAR
STARTCHAR 04A3
ENCODING 1187
SWIDTH 640 0
DWIDTH 8 0
BBX 7 9 1 -2
BITMAP
84
84
84
FC
84
84
86
02
02
ENDCHAR
STARTCHAR 04A4
ENCODING 1188
SWIDTH 800 0
DWIDTH 10 0
BBX 9 9 1 0
BITMAP
8380
8200
8200
8200
FE00
8200
8200
8200
8200
ENDCHAR
STARTCHAR 04A5
ENCODING 1189
SWIDTH 720 0
DWIDTH 9 0
BBX 8 7 1 0
BITMAP
87
84
84
FC
84
84
84
ENDCHAR
STARTCHAR 04A6
ENCODING 1190
SWIDTH 1040 0
DWIDTH 13 0
BBX 12 12 1 -3
BITMAP
FE00
8600
8600
8600
87C0
8620
8630
8610
8610
0030
0020
01C0
ENDCHAR
STARTCHAR 04A7
ENCODING 1191
SWIDTH 880 0
DWIDTH 11 0
BBX 9 10 1 -3
BITMAP
F800
8800
8800
8F00
8880
8880
8880
0080
0080
0300
ENDCHAR
STARTCHAR 04A8
ENCODING 1192
SWIDTH 800 0
DWIDTH 10 0
BBX 8 9 1 0
BITMAP
38
4E
8B
99
99
99
8B
4A
3F
ENDCHAR
STARTCHAR 04A9
ENCODING 1193
SWIDTH 640 0
DWIDTH 8 0
BBX 7 7 1 0
BITMAP
70
9C
94
94
94
94
7E
ENDCHAR
STARTCHAR 04AA
ENCODING 1194
SWIDTH 640 0
DWIDTH 8 0
BBX 7 12 1 -3
BITMAP
3E
40
80
80
80
80
80
C0
7C
10
08
10
ENDCHAR
STARTCHAR 04AB
ENCODING 1195
SWIDTH 480 0
DWIDTH 6 0
BBX 5 10 1 -3
BITMAP
78
80
80
80
80
80
70
20
10
20
ENDCHAR
STARTCHAR 04AC
ENCODING 1196
SWIDTH 560 0
DWIDTH 7 0
BBX 7 11 0 -2
BITMAP
FE
10
10
10
10
10
10
10
18
08
08
ENDCHAR
STARTCHAR 04AD
ENCODING 1197
SWIDTH 480 0
DWIDTH 6 0
BBX 6 9 0 -2
BITMAP
FC
30
30
30
30
30
30
10
10
ENDCHAR
STARTCHAR 04AE
ENCODING 1198
SWIDTH 560 0
DWIDTH 7 0
BBX 7 9 0 0
BITMAP
82
44
64
28
38
10
10
10
10
ENDCHAR
STARTCHAR 04AF
ENCODING 1199
SWIDTH 480 0
DWIDTH 6 0
BBX 6 10 0 -3
BITMAP
84
44
48
48
28
30
30
10
10
10
ENDCHAR
STARTCHAR 04B0
ENCODING 1200
SWIDTH 560 0
DWIDTH 7 0
BBX 7 9 0 0
BITMAP
82
44
44
28
28
10
7C
10
10
ENDCHAR
STARTCHAR 04B1
ENCODING 1201
SWIDTH 480 0
DWIDTH 6 0
BBX 6 10 0 -3
BITMAP
84
44
48
48
28
30
30
78
10
10
ENDCHAR
STARTCHAR 04B2
ENCODING 1202
SWIDTH 640 0
DWIDTH 8 0
BBX 8 11 0 -2
BITMAP
C2
44
28
38
10
28
2C
44
C3
01
01
ENDCHAR
STARTCHAR 04B3
ENCODING 1203
SWIDTH 560 0
DWIDTH 7 0
BBX 7 9 0 -2
BITMAP
C4
68
38
10
28
48
C6
02
02
ENDCHAR
STARTCHAR 04B4
ENCODING 1204
SWIDTH 880 0
DWIDTH 11 0
BBX 10 11 0 -2
BITMAP
FE80
1080
1080
1080
1080
1080
1080
1080
1FC0
0040
0040
ENDCHAR
STARTCHAR 04B5
ENCODING 1205
SWIDTH 720 0
DWIDTH 9 0
BBX 9 9 0 -2
BITMAP
F900
2100
2100
2100
2100
2100
3F80
0080
0080
ENDCHAR
STARTCHAR 04B6
ENCODING 1206
SWIDTH 720 0
DWIDTH 9 0
BBX 8 11 1 -2
BITMAP
86
86
86
86
86
7E
06
06
07
01
01
ENDCHAR
STARTCHAR 04B7
ENCODING 1207
SWIDTH 640 0
DWIDTH 8 0
BBX 7 9 1 -2
BITMAP
8C
8C
8C
8C
7C
0C
0E
06
06
ENDCHAR
STARTCHAR 04B8
ENCODING 1208
SWIDTH 720 0
DWIDTH 9 0
BBX 7 9 1 0
BITMAP
86
86
86
96
96
7E
16
16
06
ENDCHAR
STARTCHAR 04B9
ENCODING 1209
SWIDTH 640 0
DWIDTH 8 0
BBX 6 7 1 0
BITMAP
8C
8C
AC
AC
7C
2C
0C
ENDCHAR
STARTCHAR 04BA
ENCODING 1210
SWIDTH 720 0
DWIDTH 9 0
BBX 7 9 1 0
BITMAP
80
80
80
FC
86
82
82
82
82
ENDCHAR
STARTCHAR 04BB
ENCODING 1211
SWIDTH 640 0
DWIDTH 8 0
BBX 6 10 1 0
BITMAP
80
80
80
B8
CC
84
84
84
84
84
ENDCHAR
STARTCHAR 04BC
ENCODING 1212
SWIDTH 880 0
DWIDTH 11 0
BBX 10 9 0 0
BITMAP
0F00
1080
10C0
A040
7FC0
2000
1000
1000
0F80
ENDCHAR
STARTCHAR 04BD
ENCODING 1213
SWIDTH 640 0
DWIDTH 8 0
BBX 8 7 0 0
BITMAP
1E
32
A3
7F
20
30
1E
ENDCHAR
STARTCHAR 04BE
ENCODING 1214
SWIDTH 880 0
DWIDTH 11 0
BBX 10 11 0 -2
BITMAP
0F00
1080
10C0
A040
7FC0
2000
3000
1000
0F80
0200
0200
ENDCHAR
STARTCHAR 04BF
ENCODING 1215
SWIDTH 640 0
DWIDTH 8 0
BBX 8 9 0 -2
BITMAP
1E
32
A3
7F
20
30
1E
0C
0C
ENDCHAR
STARTCHAR 04C0
ENCODING 1216
SWIDTH 320 0
DWIDTH 4 0
BBX 4 9 0 0
BITMAP
F0
20
20
20
20
20
20
20
F0
ENDCHAR
STARTCHAR 04C1
ENCODING 1217
SWIDTH 880 0
DWIDTH 11 0
BBX 11 12 0 0
BITMAP
1100
0E00
0000
C460
6480
2580
1500
1E00
1500
2580
4480
C460
ENDCHAR
STARTCHAR 04C2
ENCODING 1218
SWIDTH 720 0
DWIDTH 9 0
BBX 9 10 0 0
BITMAP
2200
1E00
0000
C880
6900
2A00
1C00
2A00
4900
C880
ENDCHAR
STARTCHAR 04C3
ENCODING 1219
SWIDTH 720 0
DWIDTH 9 0
BBX 7 12 1 -3
BITMAP
86
88
90
A0
F8
84
82
82
82
02
04
38
ENDCHAR
STARTCHAR 04C4
ENCODING 1220
SWIDTH 560 0
DWIDTH 7 0
BBX 6 10 1 -3
BITMAP
88
90
A0
F0
88
8C
8C
0C
08
70
ENDCHAR
STARTCHAR 04C5
ENCODING 1221
SWIDTH 720 0
DWIDTH 9 0
BBX 9 11 0 -2
BITMAP
1F00
1100
2100
2100
2100
2100
2100
6100
C180
0100
0100
ENDCHAR
STARTCHAR 04C6
ENCODING 1222
SWIDTH 560 0
DWIDTH 7 0
BBX 7 9 0 -2
BITMAP
3C
24
24
24
24
44
C6
02
06
ENDCHAR
STARTCHAR 04C7
ENCODING 1223
SWIDTH 720 0
DWIDTH 9 0
BBX 7 12 1 -3
BITMAP
82
82
82
82
FE
82
82
82
82
02
04
3C
ENDCHAR
STARTCHAR 04C8
ENCODING 1224
SWIDTH 640 0
DWIDTH 8 0
BBX 6 10 1 -3
BITMAP
84
84
84
FC
84
84
84
04
0C
38
ENDCHAR
STARTCHAR 04C9
ENCODING 1225
SWIDTH 720 0
DWIDTH 9 0
BBX 8 11 1 -2
BITMAP
82
82
82
82
FE
82
82
82
83
01
02
ENDCHAR
STARTCHAR 04CA
ENCODING 1226
SWIDTH 640 0
DWIDTH 8 0
BBX 7 9 1 -2
BITMAP
84
84
84
FC
84
84
86
02
04
ENDCHAR
STARTCHAR 04CB
ENCODING 1227
SWIDTH 720 0
DWIDTH 9 0
BBX 7 11 1 -2
BITMAP
86
86
86
86
86
7E
06
06
0E
08
08
ENDCHAR
STARTCHAR 04CC
ENCODING 1228
SWIDTH 640 0
DWIDTH 8 0
BBX 6 9 1 -2
BITMAP
8C
8C
8C
8C
7C
0C
0C
08
08
ENDCHAR
STARTCHAR 04CD
ENCODING 1229
SWIDTH 880 0
DWIDTH 11 0
BBX 10 11 1 -2
BITMAP
C180
C180
A180
A280
B280
9480
9480
8C80
88C0
0040
00C0
ENDCHAR
STARTCHAR 04CE
ENCODING 1230
SWIDTH 720 0
DWIDTH 9 0
BBX 8 9 1 -2
BITMAP
C2
C6
C6
AA
AA
9A
93
01
03
ENDCHAR
STARTCHAR 04CF
ENCODING 1231
SWIDTH 320 0
DWIDTH 4 0
BBX 4 9 0 0
BITMAP
F0
20
20
20
20
20
20
20
F0
ENDCHAR
STARTCHAR 04D0
ENCODING 1232
SWIDTH 640 0
DWIDTH 8 0
BBX 8 12 0 0
BITMAP
24
3C
00
18
18
18
24
24
7E
42
42
81
ENDCHAR
STARTCHAR 04D1
ENCODING 1233
SWIDTH 560 0
DWIDTH 7 0
BBX 5 10 1 0
BITMAP
88
70
00
F0
88
08
78
88
88
F8
ENDCHAR
STARTCHAR 04D2
ENCODING 1234
SWIDTH 640 0
DWIDTH 8 0
BBX 8 11 0 0
BITMAP
24
00
18
18
18
24
24
7E
42
42
81
ENDCHAR
STARTCHAR 04D3
ENCODING 1235
SWIDTH 560 0
DWIDTH 7 0
BBX 5 9 1 0
BITMAP
50
00
F0
08
08
F8
88
98
E8
ENDCHAR
STARTCHAR 04D4
ENCODING 1236
SWIDTH 880 0
DWIDTH 11 0
BBX 10 9 0 0
BITMAP
0FC0
0A00
1200
1200
23C0
3E00
4200
4200
83C0
ENDCHAR
STARTCHAR 04D5
ENCODING 1237
SWIDTH 880 0
DWIDTH 11 0
BBX 9 7 1 0
BITMAP
F700
0880
0880
FF80
8800
9800
E780
ENDCHAR
STARTCHAR 04D6
ENCODING 1238
SWIDTH 560 0
DWIDTH 7 0
BBX 5 12 1 0
BITMAP
48
78
00
F8
80
80
80
F8
80
80
80
F8
ENDCHAR
STARTCHAR 04D7
ENCODING 1239
SWIDTH 560 0
DWIDTH 7 0
BBX 5 10 1 0
BITMAP
88
70
00
70
88
88
F8
80
80
78
ENDCHAR
STARTCHAR 04D8
ENCODING 1240
SWIDTH 720 0
DWIDTH 9 0
BBX 7 9 1 0
BITMAP
F8
06
02
02
FE
82
82
C6
7C
ENDCHAR
STARTCHAR 04D9
ENCODING 1241
SWIDTH 560 0
DWIDTH 7 0
BBX 5 7 1 0
BITMAP
F0
08
08
F8
88
88
70
ENDCHAR
STARTCHAR 04DA
ENCODING 1242
SWIDTH 720 0
DWIDTH 9 0
BBX 7 11 1 0
BITMAP
28
00
F8
06
02
02
FE
82
82
C6
7C
ENDCHAR
STARTCHAR 04DB
ENCODING 1243
SWIDTH 560 0
DWIDTH 7 0
BBX 5 9 1 0
BITMAP
50
00
F0
08
08
F8
88
88
70
ENDCHAR
STARTCHAR 04DC
ENCODING 1244
SWIDTH 880 0
DWIDTH 11 0
BBX 11 11 0 0
BITMAP
0A00
0000
C460
6480
2580
1500
1E00
1500
2580
4480
C460
ENDCHAR
STARTCHAR 04DD
ENCODING 1245
SWIDTH 720 0
DWIDTH 9 0
BBX 9 9 0 0
BITMAP
1400
0000
C880
6900
2A00
1C00
2A00
4900
C880
ENDCHAR
STARTCHAR 04DE
ENCODING 1246
SWIDTH 560 0
DWIDTH 7 0
BBX 7 11 0 0
BITMAP
28
00
7C
44
04
04
78
04
06
04
F8
ENDCHAR
STARTCHAR 04DF
ENCODING 1247
SWIDTH 480 0
DWIDTH 6 0
BBX 6 9 0 0
BITMAP
48
00
F8
08
08
30
08
0C
F8
ENDCHAR
STARTCHAR 04E0
ENCODING 1248
SWIDTH 560 0
DWIDTH 7 0
BBX 7 9 0 0
BITMAP
7C
0C
18
30
38
04
06
04
F8
ENDCHAR
STARTCHAR 04E1
ENCODING 1249
SWIDTH 480 0
DWIDTH 6 0
BBX 6 10 0 -3
BITMAP
F8
08
10
20
78
08
04
04
08
F0
ENDCHAR
STARTCHAR 04E2
ENCODING 1250
SWIDTH 800 0
DWIDTH 10 0
BBX 7 11 1 0
BITMAP
3C
00
82
86
8E
8A
92
B2
A2
C2
C2
ENDCHAR
STARTCHAR 04E3
ENCODING 1251
SWIDTH 640 0
DWIDTH 8 0
BBX 6 9 1 0
BITMAP
78
00
8C
8C
94
B4
A4
C4
C4
ENDCHAR
STARTCHAR 04E4
ENCODING 1252
SWIDTH 800 0
DWIDTH 10 0
BBX 7 11 1 0
BITMAP
24
00
82
86
8E
8A
92
B2
A2
C2
C2
ENDCHAR
STARTCHAR 04E5
ENCODING 1253
SWIDTH 640 0
DWIDTH 8 0
BBX 6 9 1 0
BITMAP
68
00
8C
8C
94
B4
A4
C4
C4
ENDCHAR
STARTCHAR 04E6
ENCODING 1254
SWIDTH 800 0
DWIDTH 10 0
BBX 8 11 1 0
BITMAP
2C
00
3C
42
83
81
81
81
83
42
3C
ENDCHAR
STARTCHAR 04E7
ENCODING 1255
SWIDTH 640 0
DWIDTH 8 0
BBX 6 9 1 0
BITMAP
58
00
78
88
84
84
84
88
78
ENDCHAR
STARTCHAR 04E8
ENCODING 1256
SWIDTH 800 0
DWIDTH 10 0
BBX 8 9 1 0
BITMAP
3C
42
83
81
FF
81
83
42
3C
ENDCHAR
STARTCHAR 04E9
ENCODING 1257
SWIDTH 640 0
DWIDTH 8 0
BBX 6 7 1 0
BITMAP
78
88
84
FC
84
88
78
ENDCHAR
STARTCHAR 04EA
ENCODING 1258
SWIDTH 800 0
DWIDTH 10 0
BBX 8 11 1 0
BITMAP
2C
00
3C
42
83
81
FF
81
83
42
3C
ENDCHAR
STARTCHAR 04EB
ENCODING 1259
SWIDTH 640 0
DWIDTH 8 0
BBX 6 9 1 0
BITMAP
58
00
78
88
84
FC
84
88
78
ENDCHAR
STARTCHAR 04EC
ENCODING 1260
SWIDTH 640 0
DWIDTH 8 0
BBX 7 11 0 0
BITMAP
28
00
F8
04
02
02
3E
02
02
04
F8
ENDCHAR
STARTCHAR 04ED
ENCODING 1261
SWIDTH 480 0
DWIDTH 6 0
BBX 5 9 0 0
BITMAP
50
00
F0
08
08
78
08
08
F0
ENDCHAR
STARTCHAR 04EE
ENCODING 1262
SWIDTH 640 0
DWIDTH 8 0
BBX 8 11 0 0
BITMAP
3C
00
C3
42
62
24
34
18
18
10
70
ENDCHAR
STARTCHAR 04EF
ENCODING 1263
SWIDTH 480 0
DWIDTH 6 0
BBX 6 12 0 -3
BITMAP
78
00
84
44
48
48
28
30
10
10
20
E0
ENDCHAR
STARTCHAR 04F0
ENCODING 1264
SWIDTH 640 0
DWIDTH 8 0
BBX 8 11 0 0
BITMAP
24
00
C3
42
62
24
34
18
18
10
70
ENDCHAR
STARTCHAR 04F1
ENCODING 1265
SWIDTH 480 0
DWIDTH 6 0
BBX 6 12 0 -3
BITMAP
68
00
84
44
48
48
28
30
10
10
20
E0
ENDCHAR
STARTCHAR 04F2
ENCODING 1266
SWIDTH 640 0
DWIDTH 8 0
BBX 8 12 0 0
BITMAP
1A
14
00
C3
42
62
24
34
18
18
10
70
ENDCHAR
STARTCHAR 04F3
ENCODING 1267
SWIDTH 480 0
DWIDTH 6 0
BBX 6 13 0 -3
BITMAP
34
28
00
84
44
48
48
28
30
10
10
20
E0
ENDCHAR
STARTCHAR 04F4
ENCODING 1268
SWIDTH 720 0
DWIDTH 9 0
BBX 7 11 1 0
BITMAP
68
00
86
86
86
86
86
7E
06
06
06
ENDCHAR
STARTCHAR 04F5
ENCODING 1269
SWIDTH 640 0
DWIDTH 8 0
BBX 6 9 1 0
BITMAP
50
00
8C
8C
8C
8C
7C
0C
0C
ENDCHAR
STARTCHAR 04F6
ENCODING 1270
SWIDTH 560 0
DWIDTH 7 0
BBX 5 11 1 -2
BITMAP
F8
80
80
80
80
80
80
80
C0
40
40
ENDCHAR
STARTCHAR 04F7
ENCODING 1271
SWIDTH 400 0
DWIDTH 5 0
BBX 4 9 1 -2
BITMAP
F0
80
80
80
80
80
C0
40
40
ENDCHAR
STARTCHAR 04F8
ENCODING 1272
SWIDTH 880 0
DWIDTH 11 0
BBX 9 11 1 0
BITMAP
1400
0000
8180
8180
8180
8180
F980
8580
8580
8D80
F980
ENDCHAR
STARTCHAR 04F9
ENCODING 1273
SWIDTH 800 0
DWIDTH 10 0
BBX 8 9 1 0
BITMAP
2C
00
81
81
81
F9
89
89
F9
ENDCHAR
STARTCHAR 04FA
ENCODING 1274
SWIDTH 560 0
DWIDTH 7 0
BBX 6 12 0 -3
BITMAP
7C
40
40
40
F8
40
40
40
60
20
20
60
ENDCHAR
STARTCHAR 04FB
ENCODING 1275
SWIDTH 400 0
DWIDTH 5 0
BBX 5 10 0 -3
BITMAP
78
40
40
F0
40
40
60
20
20
60
ENDCHAR
STARTCHAR 04FC
ENCODING 1276
SWIDTH 640 0
DWIDTH 8 0
BBX 8 12 0 -3
BITMAP
C2
44
28
38
10
28
2C
44
C3
01
01
06
ENDCHAR
STARTCHAR 04FD
ENCODING 1277
SWIDTH 560 0
DWIDTH 7 0
BBX 7 10 0 -3
BITMAP
C4
68
38
10
38
48
C6
02
02
0C
ENDCHAR
STARTCHAR 04FE
ENCODING 1278
SWIDTH 560 0
DWIDTH 7 0
BBX 7 9 0 0
BITMAP
C2
44
2C
28
7E
38
2C
44
C2
ENDCHAR
STARTCHAR 04FF
ENCODING 1279
SWIDTH 560 0
DWIDTH 7 0
BBX 6 7 0 0
BITMAP
C4
68
38
7C
38
48
C4
ENDCHAR
STARTCHAR 0500
ENCODING 1280
SWIDTH 640 0
DWIDTH 8 0
BBX 6 9 1 0
BITMAP
0C
0C
0C
0C
7C
8C
8C
8C
7C
ENDCHAR
STARTCHAR 0501
ENCODING 1281
SWIDTH 640 0
DWIDTH 8 0
BBX 6 10 1 0
BITMAP
04
04
04
74
8C
8C
84
8C
8C
74
ENDCHAR
STARTCHAR 0502
ENCODING 1282
SWIDTH 880 0
DWIDTH 11 0
BBX 9 9 1 0
BITMAP
0800
0800
0800
0800
7880
8880
8880
8C80
7700
ENDCHAR
STARTCHAR 0503
ENCODING 1283
SWIDTH 880 0
DWIDTH 11 0
BBX 9 10 1 0
BITMAP
0800
0800
0800
7800
8800
8800
8880
8880
8C80
7700
ENDCHAR
STARTCHAR 0504
ENCODING 1284
SWIDTH 880 0
DWIDTH 11 0
BBX 10 9 0 0
BITMAP
F800
4400
0400
0C00
7840
0440
0440
0640
0380
ENDCHAR
STARTCHAR 0505
ENCODING 1285
SWIDTH 800 0
DWIDTH 10 0
BBX 9 7 0 0
BITMAP
F000
0800
0800
3080
0880
0880
0700
ENDCHAR
STARTCHAR 0506
ENCODING 1286
SWIDTH 640 0
DWIDTH 8 0
BBX 8 11 0 -2
BITMAP
F8
44
04
04
78
04
04
06
07
01
01
ENDCHAR
STARTCHAR 0507
ENCODING 1287
SWIDTH 560 0
DWIDTH 7 0
BBX 7 9 0 -2
BITMAP
F8
08
08
30
08
08
0E
06
06
ENDCHAR
STARTCHAR 0508
ENCODING 1288
SWIDTH 960 0
DWIDTH 12 0
BBX 11 9 0 0
BITMAP
1E00
1200
2200
2200
2220
2220
2220
6320
C1C0
ENDCHAR
STARTCHAR 0509
ENCODING 1289
SWIDTH 880 0
DWIDTH 11 0
BBX 10 7 0 0
BITMAP
3C00
2400
2440
2440
2440
44C0
C380
ENDCHAR
STARTCHAR 050A
ENCODING 1290
SWIDTH 1040 0
DWIDTH 13 0
BBX 11 9 1 0
BITMAP
8200
8200
8200
8200
FE60
8260
8260
8240
83C0
ENDCHAR
STARTCHAR 050B
ENCODING 1291
SWIDTH 880 0
DWIDTH 11 0
BBX 9 7 1 0
BITMAP
8400
8400
8400
FC80
8480
8480
8780
ENDCHAR
STARTCHAR 050C
ENCODING 1292
SWIDTH 800 0
DWIDTH 10 0
BBX 8 9 1 0
BITMAP
3E
40
80
80
8F
81
83
42
3C
ENDCHAR
STARTCHAR 050D
ENCODING 1293
SWIDTH 640 0
DWIDTH 8 0
BBX 6 7 1 0
BITMAP
7C
C0
80
9C
84
84
78
ENDCHAR
STARTCHAR 050E
ENCODING 1294
SWIDTH 720 0
DWIDTH 9 0
BBX 8 9 0 0
BITMAP
FE
10
10
10
11
11
11
13
0E
ENDCHAR
STARTCHAR 050F
ENCODING 1295
SWIDTH 640 0
DWIDTH 8 0
BBX 7 7 0 0
BITMAP
FC
20
22
22
22
32
1C
ENDCHAR
STARTCHAR 0510
ENCODING 1296
SWIDTH 560 0
DWIDTH 7 0
BBX 6 9 1 0
BITMAP
78
84
80
C0
78
80
80
80
7C
ENDCHAR
STARTCHAR 0511
ENCODING 1297
SWIDTH 480 0
DWIDTH 6 0
BBX 5 7 1 0
BITMAP
F8
80
80
60
80
80
F8
ENDCHAR
STARTCHAR 0512
ENCODING 1298
SWIDTH 720 0
DWIDTH 9 0
BBX 9 12 0 -3
BITMAP
1F00
1100
2100
2100
2100
2100
2100
6100
C180
0080
0080
0300
ENDCHAR
STARTCHAR 0513
ENCODING 1299
SWIDTH 560 0
DWIDTH 7 0
BBX 7 10 0 -3
BITMAP
3C
24
24
24
24
44
C6
02
02
06
ENDCHAR
STARTCHAR 0514
ENCODING 1300
SWIDTH 960 0
DWIDTH 12 0
BBX 12 9 0 0
BITMAP
1C30
1260
2340
2180
2180
21C0
2240
6620
C430
ENDCHAR
STARTCHAR 0515
ENCODING 1301
SWIDTH 800 0
DWIDTH 10 0
BBX 10 7 0 0
BITMAP
38C0
2480
2300
2300
2700
4480
C8C0
ENDCHAR
STARTCHAR 0516
ENCODING 1302
SWIDTH 800 0
DWIDTH 10 0
BBX 9 9 1 0
BITMAP
F980
8D00
8600
8C00
FC00
8200
8300
8100
8180
ENDCHAR
STARTCHAR 0517
ENCODING 1303
SWIDTH 800 0
DWIDTH 10 0
BBX 9 10 1 -3
BITMAP
B980
CD00
8600
8600
8600
CD00
B980
8000
8000
8000
ENDCHAR
STARTCHAR 0518
ENCODING 1304
SWIDTH 880 0
DWIDTH 11 0
BBX 11 9 0 0
BITMAP
3FE0
4200
4200
6200
3FC0
1200
2200
4200
C3E0
ENDCHAR
STARTCHAR 0519
ENCODING 1305
SWIDTH 880 0
DWIDTH 11 0
BBX 10 7 0 0
BITMAP
7F80
4440
4440
7FC0
2400
4400
C3C0
ENDCHAR
STARTCHAR 051A
ENCODING 1306
SWIDTH 800 0
DWIDTH 10 0
BBX 8 11 1 -2
BITMAP
3C
42
83
81
81
81
83
42
3C
04
03
ENDCHAR
STARTCHAR 051B
ENCODING 1307
SWIDTH 640 0
DWIDTH 8 0
BBX 6 10 1 -3
BITMAP
74
8C
8C
84
8C
8C
74
04
04
04
ENDCHAR
STARTCHAR 051C
ENCODING 1308
SWIDTH 960 0
DWIDTH 12 0
BBX 11 9 0 0
BITMAP
8420
4620
4E20
4A60
4940
2940
3140
3080
3080
ENDCHAR
STARTCHAR 051D
ENCODING 1309
SWIDTH 800 0
DWIDTH 10 0
BBX 10 7 0 0
BITMAP
8CC0
4C80
4C80
5280
5300
3300
2300
ENDCHAR
STARTCHAR 051E
ENCODING 1310
SWIDTH 640 0
DWIDTH 8 0
BBX 7 9 1 0
BITMAP
B6
98
98
A4
E0
B0
98
88
86
ENDCHAR
STARTCHAR 051F
ENCODING 1311
SWIDTH 560 0
DWIDTH 7 0
BBX 5 7 1 0
BITMAP
A8
90
A8
C0
A0
90
88
ENDCHAR
STARTCHAR 0520
ENCODING 1312
SWIDTH 1040 0
DWIDTH 13 0
BBX 12 12 0 -3
BITMAP
1E00
1200
2200
2200
23C0
2220
2210
6210
C210
0010
0030
01E0
ENDCHAR
STARTCHAR 0521
ENCODING 1313
SWIDTH 800 0
DWIDTH 10 0
BBX 10 10 0 -3
BITMAP
3C00
2400
2400
2780
2480
4440
C440
0040
00C0
0380
ENDCHAR
STARTCHAR 0522
ENCODING 1314
SWIDTH 1120 0
DWIDTH 14 0
BBX 12 12 1 -3
BITMAP
8200
8200
8200
8200
FFC0
8230
8210
8210
8210
0010
0030
01E0
ENDCHAR
STARTCHAR 0523
ENCODING 1315
SWIDTH 880 0
DWIDTH 11 0
BBX 10 10 1 -3
BITMAP
8800
8800
8800
FF00
8880
8880
88C0
0080
0080
0700
ENDCHAR
STARTCHAR 0524
ENCODING 1316
SWIDTH 720 0
DWIDTH 9 0
BBX 8 11 1 -2
BITMAP
FE
82
82
82
82
82
82
82
83
01
01
ENDCHAR
STARTCHAR 0525
ENCODING 1317
SWIDTH 640 0
DWIDTH 8 0
BBX 7 9 1 -2
BITMAP
FC
84
84
84
84
84
86
02
02
ENDCHAR
STARTCHAR 0526
ENCODING 1318
SWIDTH 720 0
DWIDTH 9 0
BBX 8 11 1 -2
BITMAP
80
80
80
BC
C6
82
82
82
83
01
01
ENDCHAR
STARTCHAR 0527
ENCODING 1319
SWIDTH 640 0
DWIDTH 8 0
BBX 7 12 1 -2
BITMAP
80
80
80
B8
CC
84
84
84
84
86
02
02
ENDCHAR
STARTCHAR 0528
ENCODING 1320
SWIDTH 720 0
DWIDTH 9 0
BBX 8 12 0 -3
BITMAP
41
41
41
41
7F
41
41
41
41
40
40
C0
ENDCHAR
STARTCHAR 0529
ENCODING 1321
SWIDTH 640 0
DWIDTH 8 0
BBX 8 10 -1 -3
BITMAP
21
21
21
3F
21
21
21
20
20
E0
ENDCHAR
STARTCHAR 052A
ENCODING 1322
SWIDTH 1440 0
DWIDTH 18 0
BBX 18 11 0 -2
BITMAP
1E1080
121100
121200
121400
23FC00
221400
221200
421100
FF10C0
810000
810000
ENDCHAR
STARTCHAR 052B
ENCODING 1323
SWIDTH 1200 0
DWIDTH 15 0
BBX 14 9 0 -2
BITMAP
1C44
2448
2450
27E0
2450
4448
FE44
8200
8200
ENDCHAR
STARTCHAR 052C
ENCODING 1324
SWIDTH 720 0
DWIDTH 9 0
BBX 8 11 0 -2
BITMAP
4E
4A
52
52
52
7E
22
22
FF
81
81
ENDCHAR
STARTCHAR 052D
ENCODING 1325
SWIDTH 560 0
DWIDTH 7 0
BBX 7 9 0 -2
BITMAP
9C
94
94
64
7C
24
FE
82
82
ENDCHAR
STARTCHAR 052E
ENCODING 1326
SWIDTH 720 0
DWIDTH 9 0
BBX 9 11 0 -2
BITMAP
1F00
1100
2100
2100
2100
2100
2100
6100
C180
0080
0080
ENDCHAR
STARTCHAR 052F
ENCODING 1327
SWIDTH 560 0
DWIDTH 7 0
BBX 7 9 0 -2
BITMAP
3C
24
24
24
24
44
C6
02
02
ENDCHAR
STARTCHAR 1AB0
ENCODING 6832
SWIDTH 0 0
DWIDTH 0 0
BBX 8 2 -4 8
BITMAP
66
99
ENDCHAR
STARTCHAR 1AB1
ENCODING 6833
SWIDTH 0 0
DWIDTH 0 0
BBX 6 3 -3 8
BITMAP
30
CC
30
ENDCHAR
STARTCHAR 1AB2
ENCODING 6834
SWIDTH 0 0
DWIDTH 0 0
BBX 6 3 -3 8
BITMAP
58
A4
D8
ENDCHAR
STARTCHAR 1AB3
ENCODING 6835
SWIDTH 0 0
DWIDTH 0 0
BBX 2 3 -1 8
BITMAP
80
C0
80
ENDCHAR
STARTCHAR 1AB4
ENCODING 6836
SWIDTH 0 0
DWIDTH 0 0
BBX 4 3 -2 8
BITMAP
60
00
90
ENDCHAR
STARTCHAR 1AB5
ENCODING 6837
SWIDTH 0 0
DWIDTH 0 0
BBX 6 2 -3 -3
BITMAP
FC
B4
ENDCHAR
STARTCHAR 1AB6
ENCODING 6838
SWIDTH 0 0
DWIDTH 0 0
BBX 12 3 -6 -4
BITMAP
6660
A950
9990
ENDCHAR
STARTCHAR 1AB7
ENCODING 6839
SWIDTH 0 0
DWIDTH 0 0
BBX 2 3 -1 -3
BITMAP
80
80
40
ENDCHAR
STARTCHAR 1AB8
ENCODING 6840
SWIDTH 0 0
DWIDTH 0 0
BBX 4 3 -2 -3
BITMAP
A0
A0
D0
ENDCHAR
STARTCHAR 1AB9
ENCODING 6841
SWIDTH 0 0
DWIDTH 0 0
BBX 3 4 -8 -3
BITMAP
20
40
40
C0
ENDCHAR
STARTCHAR 1ABA
ENCODING 6842
SWIDTH 0 0
DWIDTH 0 0
BBX 3 4 -7 -3
BITMAP
20
40
40
C0
ENDCHAR
STARTCHAR 1ABB
ENCODING 6843
SWIDTH 0 0
DWIDTH 0 0
BBX 6 3 -3 8
BITMAP
48
84
C8
ENDCHAR
STARTCHAR 1ABC
ENCODING 6844
SWIDTH 0 0
DWIDTH 0 0
BBX 8 3 -4 8
BITMAP
A5
C3
E5
ENDCHAR
STARTCHAR 1ABD
ENCODING 6845
SWIDTH 0 0
DWIDTH 0 0
BBX 6 3 -3 -3
BITMAP
48
84
C8
ENDCHAR
STARTCHAR 1ABE
ENCODING 6846
SWIDTH 0 0
DWIDTH 0 0
BBX 10 3 -5 1
BITMAP
8040
8040
8040
ENDCHAR
STARTCHAR 1ABF
ENCODING 6847
SWIDTH 0 0
DWIDTH 0 0
BBX 4 3 -2 -3
BITMAP
B0
F0
A0
ENDCHAR
STARTCHAR 1AC0
ENCODING 6848
SWIDTH 0 0
DWIDTH 0 0
BBX 4 3 -2 -3
BITMAP
90
F0
D0
ENDCHAR
STARTCHAR 1C80
ENCODING 7296
SWIDTH 560 0
DWIDTH 7 0
BBX 5 10 1 0
BITMAP
38
48
88
F0
80
80
F8
88
C8
78
ENDCHAR
STARTCHAR 1C81
ENCODING 7297
SWIDTH 560 0
DWIDTH 7 0
BBX 7 9 0 -3
BITMAP
3C
24
24
24
44
FE
82
82
82
ENDCHAR
STARTCHAR 1C82
ENCODING 7298
SWIDTH 480 0
DWIDTH 6 0
BBX 4 7 1 0
BITMAP
60
90
90
90
90
90
60
ENDCHAR
STARTCHAR 1C83
ENCODING 7299
SWIDTH 640 0
DWIDTH 8 0
BBX 6 7 1 0
BITMAP
7C
C0
80
80
80
C0
7C
ENDCHAR
STARTCHAR 1C84
ENCODING 7300
SWIDTH 400 0
DWIDTH 5 0
BBX 5 9 -1 0
BITMAP
F8
08
08
08
10
10
10
10
10
ENDCHAR
STARTCHAR 1C85
ENCODING 7301
SWIDTH 880 0
DWIDTH 11 0
BBX 9 7 1 0
BITMAP
FF80
8880
8880
8880
8880
8880
8880
ENDCHAR
STARTCHAR 1C86
ENCODING 7302
SWIDTH 640 0
DWIDTH 8 0
BBX 8 10 -1 0
BITMAP
F0
10
10
10
10
10
1F
11
11
1E
ENDCHAR
STARTCHAR 1C87
ENCODING 7303
SWIDTH 640 0
DWIDTH 8 0
BBX 7 10 0 0
BITMAP
20
20
20
F8
20
20
3E
22
22
3C
ENDCHAR
STARTCHAR 1C88
ENCODING 7304
SWIDTH 640 0
DWIDTH 8 0
BBX 6 10 1 0
BITMAP
84
88
50
30
D8
8C
84
84
88
78
ENDCHAR
STARTCHAR 1D00
ENCODING 7424
SWIDTH 560 0
DWIDTH 7 0
BBX 6 7 0 0
BITMAP
10
30
28
68
78
44
84
ENDCHAR
STARTCHAR 1D01
ENCODING 7425
SWIDTH 720 0
DWIDTH 9 0
BBX 8 7 0 0
BITMAP
1F
18
28
2F
78
48
CF
ENDCHAR
STARTCHAR 1D02
ENCODING 7426
SWIDTH 880 0
DWIDTH 11 0
BBX 9 7 1 0
BITMAP
F780
1880
0880
FF00
8800
9800
7780
ENDCHAR
STARTCHAR 1D03
ENCODING 7427
SWIDTH 560 0
DWIDTH 7 0
BBX 7 7 0 0
BITMAP
7C
44
44
FE
46
46
7C
ENDCHAR
STARTCHAR 1D04
ENCODING 7428
SWIDTH 560 0
DWIDTH 7 0
BBX 5 7 1 0
BITMAP
78
C0
80
80
80
C0
78
ENDCHAR
STARTCHAR 1D05
ENCODING 7429
SWIDTH 560 0
DWIDTH 7 0
BBX 6 7 1 0
BITMAP
F0
88
8C
84
8C
88
F0
ENDCHAR
STARTCHAR 1D06
ENCODING 7430
SWIDTH 560 0
DWIDTH 7 0
BBX 7 7 0 0
BITMAP
78
44
46
F2
46
44
78
ENDCHAR
STARTCHAR 1D07
ENCODING 7431
SWIDTH 480 0
DWIDTH 6 0
BBX 4 7 1 0
BITMAP
F0
80
80
F0
80
80
F0
ENDCHAR
STARTCHAR 1D08
ENCODING 7432
SWIDTH 480 0
DWIDTH 6 0
BBX 6 7 0 0
BITMAP
F8
0C
08
30
08
08
F8
ENDCHAR
STARTCHAR 1D09
ENCODING 7433
SWIDTH 240 0
DWIDTH 3 0
BBX 1 9 1 -2
BITMAP
80
80
80
80
80
80
80
00
80
ENDCHAR
STARTCHAR 1D0A
ENCODING 7434
SWIDTH 320 0
DWIDTH 4 0
BBX 2 7 1 0
BITMAP
40
40
40
40
40
40
C0
ENDCHAR
STARTCHAR 1D0B
ENCODING 7435
SWIDTH 480 0
DWIDTH 6 0
BBX 5 7 1 0
BITMAP
88
90
A0
E0
B0
90
88
ENDCHAR
STARTCHAR 1D0C
ENCODING 7436
SWIDTH 480 0
DWIDTH 6 0
BBX 5 7 0 0
BITMAP
40
40
50
60
C0
40
78
ENDCHAR
STARTCHAR 1D0D
ENCODING 7437
SWIDTH 720 0
DWIDTH 9 0
BBX 7 7 1 0
BITMAP
C6
C6
C6
AA
AA
BA
92
ENDCHAR
STARTCHAR 1D0E
ENCODING 7438
SWIDTH 640 0
DWIDTH 8 0
BBX 6 7 1 0
BITMAP
8C
8C
94
B4
A4
C4
C4
ENDCHAR
STARTCHAR 1D0F
ENCODING 7439
SWIDTH 640 0
DWIDTH 8 0
BBX 6 7 1 0
BITMAP
78
8C
84
84
84
8C
78
ENDCHAR
STARTCHAR 1D10
ENCODING 7440
SWIDTH 560 0
DWIDTH 7 0
BBX 6 7 0 0
BITMAP
F0
08
04
04
04
08
70
ENDCHAR
STARTCHAR 1D11
ENCODING 7441
SWIDTH 640 0
DWIDTH 8 0
BBX 7 6 0 0
BITMAP
7C
42
82
82
46
3C
ENDCHAR
STARTCHAR 1D12
ENCODING 7442
SWIDTH 640 0
DWIDTH 8 0
BBX 7 5 0 0
BITMAP
7E
42
82
82
42
ENDCHAR
STARTCHAR 1D13
ENCODING 7443
SWIDTH 640 0
DWIDTH 8 0
BBX 8 6 0 0
BITMAP
FE
62
92
8E
46
3D
ENDCHAR
STARTCHAR 1D14
ENCODING 7444
SWIDTH 960 0
DWIDTH 12 0
BBX 10 7 1 0
BITMAP
F780
0CC0
0840
F840
8840
8C40
7780
ENDCHAR
STARTCHAR 1D15
ENCODING 7445
SWIDTH 560 0
DWIDTH 7 0
BBX 5 7 1 0
BITMAP
88
88
70
88
88
88
70
ENDCHAR
STARTCHAR 1D16
ENCODING 7446
SWIDTH 640 0
DWIDTH 8 0
BBX 6 3 1 4
BITMAP
78
8C
84
ENDCHAR
STARTCHAR 1D17
ENCODING 7447
SWIDTH 640 0
DWIDTH 8 0
BBX 6 4 1 0
BITMAP
84
84
8C
78
ENDCHAR
STARTCHAR 1D18
ENCODING 7448
SWIDTH 480 0
DWIDTH 6 0
BBX 5 7 1 0
BITMAP
F0
98
98
F0
80
80
80
ENDCHAR
STARTCHAR 1D19
ENCODING 7449
SWIDTH 560 0
DWIDTH 7 0
BBX 6 7 0 0
BITMAP
3C
4C
4C
7C
2C
4C
CC
ENDCHAR
STARTCHAR 1D1A
ENCODING 7450
SWIDTH 560 0
DWIDTH 7 0
BBX 6 7 0 0
BITMAP
CC
4C
2C
3C
4C
4C
3C
ENDCHAR
STARTCHAR 1D1B
ENCODING 7451
SWIDTH 480 0
DWIDTH 6 0
BBX 6 7 0 0
BITMAP
FC
20
20
20
20
20
20
ENDCHAR
STARTCHAR 1D1C
ENCODING 7452
SWIDTH 560 0
DWIDTH 7 0
BBX 5 7 1 0
BITMAP
88
88
88
88
88
88
70
ENDCHAR
STARTCHAR 1D1D
ENCODING 7453
SWIDTH 640 0
DWIDTH 8 0
BBX 7 6 0 0
BITMAP
FE
02
02
02
02
FC
ENDCHAR
STARTCHAR 1D1E
ENCODING 7454
SWIDTH 800 0
DWIDTH 10 0
BBX 9 6 0 1
BITMAP
3F80
8100
8080
0080
8080
3F80
ENDCHAR
STARTCHAR 1D1F
ENCODING 7455
SWIDTH 640 0
DWIDTH 8 0
BBX 8 10 0 -2
BITMAP
FF
02
02
03
FE
06
02
01
02
FC
ENDCHAR
STARTCHAR 1D20
ENCODING 7456
SWIDTH 480 0
DWIDTH 6 0
BBX 6 7 0 0
BITMAP
84
48
48
48
30
30
30
ENDCHAR
STARTCHAR 1D21
ENCODING 7457
SWIDTH 720 0
DWIDTH 9 0
BBX 9 7 0 0
BITMAP
8880
9900
5500
5500
5500
6600
2200
ENDCHAR
STARTCHAR 1D22
ENCODING 7458
SWIDTH 480 0
DWIDTH 6 0
BBX 5 7 0 0
BITMAP
78
08
10
30
20
40
F8
ENDCHAR
STARTCHAR 1D23
ENCODING 7459
SWIDTH 480 0
DWIDTH 6 0
BBX 6 7 0 0
BITMAP
78
18
20
38
0C
08
F8
ENDCHAR
STARTCHAR 1D24
ENCODING 7460
SWIDTH 400 0
DWIDTH 5 0
BBX 5 10 0 0
BITMAP
70
88
08
18
30
20
40
80
C8
78
ENDCHAR
STARTCHAR 1D25
ENCODING 7461
SWIDTH 480 0
DWIDTH 6 0
BBX 6 7 0 0
BITMAP
38
78
78
78
30
30
CC
ENDCHAR
STARTCHAR 1D26
ENCODING 7462
SWIDTH 480 0
DWIDTH 6 0
BBX 4 7 1 0
BITMAP
F0
80
80
80
80
80
80
ENDCHAR
STARTCHAR 1D27
ENCODING 7463
SWIDTH 480 0
DWIDTH 6 0
BBX 6 7 0 0
BITMAP
30
30
38
68
48
4C
84
ENDCHAR
STARTCHAR 1D28
ENCODING 7464
SWIDTH 560 0
DWIDTH 7 0
BBX 5 7 1 0
BITMAP
F8
88
88
88
88
88
88
ENDCHAR
STARTCHAR 1D29
ENCODING 7465
SWIDTH 480 0
DWIDTH 6 0
BBX 5 7 1 0
BITMAP
F0
98
98
F0
80
80
80
ENDCHAR
STARTCHAR 1D2A
ENCODING 7466
SWIDTH 640 0
DWIDTH 8 0
BBX 6 7 1 0
BITMAP
94
94
94
94
78
10
10
ENDCHAR
STARTCHAR 1D2B
ENCODING 7467
SWIDTH 560 0
DWIDTH 7 0
BBX 6 7 0 0
BITMAP
3C
24
24
24
24
44
C4
ENDCHAR
STARTCHAR 1D2C
ENCODING 7468
SWIDTH 400 0
DWIDTH 5 0
BBX 5 5 0 4
BITMAP
20
50
70
88
88
ENDCHAR
STARTCHAR 1D2D
ENCODING 7469
SWIDTH 560 0
DWIDTH 7 0
BBX 7 5 0 4
BITMAP
3E
28
7E
48
8E
ENDCHAR
STARTCHAR 1D2E
ENCODING 7470
SWIDTH 400 0
DWIDTH 5 0
BBX 4 5 1 4
BITMAP
F0
90
E0
90
E0
ENDCHAR
STARTCHAR 1D2F
ENCODING 7471
SWIDTH 400 0
DWIDTH 5 0
BBX 5 5 0 4
BITMAP
70
48
F8
48
70
ENDCHAR
STARTCHAR 1D30
ENCODING 7472
SWIDTH 480 0
DWIDTH 6 0
BBX 4 5 1 4
BITMAP
F0
90
90
90
E0
ENDCHAR
STARTCHAR 1D31
ENCODING 7473
SWIDTH 400 0
DWIDTH 5 0
BBX 3 5 1 4
BITMAP
E0
80
E0
80
E0
ENDCHAR
STARTCHAR 1D32
ENCODING 7474
SWIDTH 400 0
DWIDTH 5 0
BBX 4 5 0 4
BITMAP
F0
10
70
10
F0
ENDCHAR
STARTCHAR 1D33
ENCODING 7475
SWIDTH 480 0
DWIDTH 6 0
BBX 5 5 0 4
BITMAP
78
80
98
48
78
ENDCHAR
STARTCHAR 1D34
ENCODING 7476
SWIDTH 480 0
DWIDTH 6 0
BBX 4 5 1 4
BITMAP
90
90
F0
90
90
ENDCHAR
STARTCHAR 1D35
ENCODING 7477
SWIDTH 240 0
DWIDTH 3 0
BBX 2 5 0 4
BITMAP
C0
40
40
40
C0
ENDCHAR
STARTCHAR 1D36
ENCODING 7478
SWIDTH 160 0
DWIDTH 2 0
BBX 2 7 -1 2
BITMAP
40
40
40
40
40
40
C0
ENDCHAR
STARTCHAR 1D37
ENCODING 7479
SWIDTH 400 0
DWIDTH 5 0
BBX 4 5 1 4
BITMAP
B0
C0
C0
A0
90
ENDCHAR
STARTCHAR 1D38
ENCODING 7480
SWIDTH 320 0
DWIDTH 4 0
BBX 3 5 1 4
BITMAP
80
80
80
80
E0
ENDCHAR
STARTCHAR 1D39
ENCODING 7481
SWIDTH 560 0
DWIDTH 7 0
BBX 6 5 1 4
BITMAP
8C
CC
D4
B4
A4
ENDCHAR
STARTCHAR 1D3A
ENCODING 7482
SWIDTH 480 0
DWIDTH 6 0
BBX 4 5 1 4
BITMAP
90
D0
B0
B0
90
ENDCHAR
STARTCHAR 1D3B
ENCODING 7483
SWIDTH 480 0
DWIDTH 6 0
BBX 4 5 1 4
BITMAP
90
B0
B0
D0
90
ENDCHAR
STARTCHAR 1D3C
ENCODING 7484
SWIDTH 480 0
DWIDTH 6 0
BBX 6 5 0 4
BITMAP
78
84
84
44
78
ENDCHAR
STARTCHAR 1D3D
ENCODING 7485
SWIDTH 400 0
DWIDTH 5 0
BBX 5 5 0 4
BITMAP
48
70
48
88
70
ENDCHAR
STARTCHAR 1D3E
ENCODING 7486
SWIDTH 400 0
DWIDTH 5 0
BBX 4 5 1 4
BITMAP
E0
90
E0
80
80
ENDCHAR
STARTCHAR 1D3F
ENCODING 7487
SWIDTH 400 0
DWIDTH 5 0
BBX 4 5 1 4
BITMAP
E0
90
E0
A0
90
ENDCHAR
STARTCHAR 1D40
ENCODING 7488
SWIDTH 400 0
DWIDTH 5 0
BBX 4 5 0 4
BITMAP
F0
20
20
20
20
ENDCHAR
STARTCHAR 1D41
ENCODING 7489
SWIDTH 480 0
DWIDTH 6 0
BBX 4 5 1 4
BITMAP
90
90
90
90
F0
ENDCHAR
STARTCHAR 1D42
ENCODING 7490
SWIDTH 640 0
DWIDTH 8 0
BBX 7 5 0 4
BITMAP
92
5A
6A
64
64
ENDCHAR
STARTCHAR 1D43
ENCODING 7491
SWIDTH 400 0
DWIDTH 5 0
BBX 4 4 0 4
BITMAP
70
30
D0
70
ENDCHAR
STARTCHAR 1D44
ENCODING 7492
SWIDTH 400 0
DWIDTH 5 0
BBX 3 4 1 4
BITMAP
E0
E0
80
E0
ENDCHAR
STARTCHAR 1D45
ENCODING 7493
SWIDTH 400 0
DWIDTH 5 0
BBX 5 4 0 4
BITMAP
70
90
90
68
ENDCHAR
STARTCHAR 1D46
ENCODING 7494
SWIDTH 560 0
DWIDTH 7 0
BBX 7 4 0 4
BITMAP
FE
7E
90
6C
ENDCHAR
STARTCHAR 1D47
ENCODING 7495
SWIDTH 400 0
DWIDTH 5 0
BBX 4 6 1 4
BITMAP
80
80
E0
90
90
E0
ENDCHAR
STARTCHAR 1D48
ENCODING 7496
SWIDTH 400 0
DWIDTH 5 0
BBX 4 6 0 4
BITMAP
10
10
70
90
90
70
ENDCHAR
STARTCHAR 1D49
ENCODING 7497
SWIDTH 400 0
DWIDTH 5 0
BBX 4 4 0 4
BITMAP
70
F0
80
70
ENDCHAR
STARTCHAR 1D4A
ENCODING 7498
SWIDTH 400 0
DWIDTH 5 0
BBX 4 4 0 4
BITMAP
F0
70
90
70
ENDCHAR
STARTCHAR 1D4B
ENCODING 7499
SWIDTH 320 0
DWIDTH 4 0
BBX 4 4 0 4
BITMAP
70
60
80
70
ENDCHAR
STARTCHAR 1D4C
ENCODING 7500
SWIDTH 320 0
DWIDTH 4 0
BBX 4 4 0 4
BITMAP
F0
60
10
E0
ENDCHAR
STARTCHAR 1D4D
ENCODING 7501
SWIDTH 400 0
DWIDTH 5 0
BBX 4 6 0 2
BITMAP
70
90
90
70
10
70
ENDCHAR
STARTCHAR 1D4E
ENCODING 7502
SWIDTH 160 0
DWIDTH 2 0
BBX 1 5 1 3
BITMAP
80
80
80
80
80
ENDCHAR
STARTCHAR 1D4F
ENCODING 7503
SWIDTH 320 0
DWIDTH 4 0
BBX 3 6 1 4
BITMAP
80
80
A0
C0
C0
A0
ENDCHAR
STARTCHAR 1D50
ENCODING 7504
SWIDTH 640 0
DWIDTH 8 0
BBX 6 4 1 4
BITMAP
FC
A4
A4
A4
ENDCHAR
STARTCHAR 1D51
ENCODING 7505
SWIDTH 400 0
DWIDTH 5 0
BBX 3 6 1 2
BITMAP
E0
A0
A0
A0
20
20
ENDCHAR
STARTCHAR 1D52
ENCODING 7506
SWIDTH 400 0
DWIDTH 5 0
BBX 4 4 0 4
BITMAP
70
90
90
70
ENDCHAR
STARTCHAR 1D53
ENCODING 7507
SWIDTH 320 0
DWIDTH 4 0
BBX 3 4 0 4
BITMAP
E0
20
20
E0
ENDCHAR
STARTCHAR 1D54
ENCODING 7508
SWIDTH 400 0
DWIDTH 5 0
BBX 5 2 0 6
BITMAP
70
88
ENDCHAR
STARTCHAR 1D55
ENCODING 7509
SWIDTH 400 0
DWIDTH 5 0
BBX 5 2 0 4
BITMAP
88
70
ENDCHAR
STARTCHAR 1D56
ENCODING 7510
SWIDTH 400 0
DWIDTH 5 0
BBX 4 6 1 2
BITMAP
E0
90
90
E0
80
80
ENDCHAR
STARTCHAR 1D57
ENCODING 7511
SWIDTH 240 0
DWIDTH 3 0
BBX 3 5 0 4
BITMAP
40
E0
40
40
60
ENDCHAR
STARTCHAR 1D58
ENCODING 7512
SWIDTH 400 0
DWIDTH 5 0
BBX 3 4 1 4
BITMAP
A0
A0
A0
E0
ENDCHAR
STARTCHAR 1D59
ENCODING 7513
SWIDTH 400 0
DWIDTH 5 0
BBX 5 4 0 4
BITMAP
F8
08
08
F0
ENDCHAR
STARTCHAR 1D5A
ENCODING 7514
SWIDTH 640 0
DWIDTH 8 0
BBX 6 4 1 4
BITMAP
A4
A4
A4
DC
ENDCHAR
STARTCHAR 1D5B
ENCODING 7515
SWIDTH 320 0
DWIDTH 4 0
BBX 4 4 0 4
BITMAP
90
50
60
60
ENDCHAR
STARTCHAR 1D5C
ENCODING 7516
SWIDTH 320 0
DWIDTH 4 0
BBX 4 4 0 4
BITMAP
60
70
60
F0
ENDCHAR
STARTCHAR 1D5D
ENCODING 7517
SWIDTH 400 0
DWIDTH 5 0
BBX 4 8 1 2
BITMAP
E0
90
E0
90
90
E0
80
80
ENDCHAR
STARTCHAR 1D5E
ENCODING 7518
SWIDTH 320 0
DWIDTH 4 0
BBX 4 6 0 2
BITMAP
90
50
60
20
40
40
ENDCHAR
STARTCHAR 1D5F
ENCODING 7519
SWIDTH 400 0
DWIDTH 5 0
BBX 4 6 0 4
BITMAP
70
40
30
50
90
70
ENDCHAR
STARTCHAR 1D60
ENCODING 7520
SWIDTH 480 0
DWIDTH 6 0
BBX 5 6 0 2
BITMAP
58
A8
A8
78
20
20
ENDCHAR
STARTCHAR 1D61
ENCODING 7521
SWIDTH 320 0
DWIDTH 4 0
BBX 4 6 0 2
BITMAP
D0
60
20
60
60
90
ENDCHAR
STARTCHAR 1D62
ENCODING 7522
SWIDTH 160 0
DWIDTH 2 0
BBX 1 6 1 -1
BITMAP
80
00
80
80
80
80
ENDCHAR
STARTCHAR 1D63
ENCODING 7523
SWIDTH 240 0
DWIDTH 3 0
BBX 2 4 1 -1
BITMAP
C0
80
80
80
ENDCHAR
STARTCHAR 1D64
ENCODING 7524
SWIDTH 400 0
DWIDTH 5 0
BBX 3 4 1 -1
BITMAP
A0
A0
A0
E0
ENDCHAR
STARTCHAR 1D65
ENCODING 7525
SWIDTH 320 0
DWIDTH 4 0
BBX 4 4 0 -1
BITMAP
90
50
60
60
ENDCHAR
STARTCHAR 1D66
ENCODING 7526
SWIDTH 400 0
DWIDTH 5 0
BBX 4 8 1 -3
BITMAP
E0
90
E0
90
90
E0
80
80
ENDCHAR
STARTCHAR 1D67
ENCODING 7527
SWIDTH 320 0
DWIDTH 4 0
BBX 4 6 0 -3
BITMAP
90
50
60
20
40
40
ENDCHAR
STARTCHAR 1D68
ENCODING 7528
SWIDTH 400 0
DWIDTH 5 0
BBX 3 6 1 -3
BITMAP
E0
A0
A0
E0
80
80
ENDCHAR
STARTCHAR 1D69
ENCODING 7529
SWIDTH 480 0
DWIDTH 6 0
BBX 5 6 0 -3
BITMAP
58
A8
A8
78
20
20
ENDCHAR
STARTCHAR 1D6A
ENCODING 7530
SWIDTH 320 0
DWIDTH 4 0
BBX 4 6 0 -3
BITMAP
D0
60
20
60
60
90
ENDCHAR
STARTCHAR 1D6B
ENCODING 7531
SWIDTH 960 0
DWIDTH 12 0
BBX 10 7 1 0
BITMAP
8B80
8CC0
8C40
8FC0
8800
8C00
73C0
ENDCHAR
STARTCHAR 1D6C
ENCODING 7532
SWIDTH 640 0
DWIDTH 8 0
BBX 7 10 0 0
BITMAP
40
D0
E0
5C
66
42
42
42
66
5C
ENDCHAR
STARTCHAR 1D6D
ENCODING 7533
SWIDTH 640 0
DWIDTH 8 0
BBX 7 10 1 0
BITMAP
04
1E
16
74
8C
8C
84
8C
8C
74
ENDCHAR
STARTCHAR 1D6E
ENCODING 7534
SWIDTH 320 0
DWIDTH 4 0
BBX 5 10 0 0
BITMAP
38
60
40
F0
40
40
F0
40
40
40
ENDCHAR
STARTCHAR 1D6F
ENCODING 7535
SWIDTH 960 0
DWIDTH 12 0
BBX 12 7 0 0
BITMAP
5DC0
6660
4420
7C30
C7E0
4420
4420
ENDCHAR
STARTCHAR 1D70
ENCODING 7536
SWIDTH 640 0
DWIDTH 8 0
BBX 8 7 0 0
BITMAP
5C
66
42
FF
C2
42
42
ENDCHAR
STARTCHAR 1D71
ENCODING 7537
SWIDTH 640 0
DWIDTH 8 0
BBX 7 10 0 -3
BITMAP
5C
66
42
42
42
66
5C
D0
E0
40
ENDCHAR
STARTCHAR 1D72
ENCODING 7538
SWIDTH 400 0
DWIDTH 5 0
BBX 5 7 0 0
BITMAP
58
60
40
D0
E0
40
40
ENDCHAR
STARTCHAR 1D73
ENCODING 7539
SWIDTH 320 0
DWIDTH 4 0
BBX 4 7 0 0
BITMAP
30
40
40
D0
E0
40
40
ENDCHAR
STARTCHAR 1D74
ENCODING 7540
SWIDTH 480 0
DWIDTH 6 0
BBX 6 7 0 0
BITMAP
78
40
40
FC
08
08
78
ENDCHAR
STARTCHAR 1D75
ENCODING 7541
SWIDTH 400 0
DWIDTH 5 0
BBX 4 9 0 0
BITMAP
40
40
F0
40
40
F0
40
40
30
ENDCHAR
STARTCHAR 1D76
ENCODING 7542
SWIDTH 480 0
DWIDTH 6 0
BBX 5 7 0 0
BITMAP
78
08
10
F8
20
40
F8
ENDCHAR
STARTCHAR 1D77
ENCODING 7543
SWIDTH 640 0
DWIDTH 8 0
BBX 6 10 1 0
BITMAP
78
C0
80
B8
CC
84
84
84
CC
B8
ENDCHAR
STARTCHAR 1D78
ENCODING 7544
SWIDTH 400 0
DWIDTH 5 0
BBX 3 4 1 4
BITMAP
A0
E0
A0
A0
ENDCHAR
STARTCHAR 1D79
ENCODING 7545
SWIDTH 560 0
DWIDTH 7 0
BBX 6 10 1 -3
BITMAP
F8
10
60
20
78
88
84
84
88
70
ENDCHAR
STARTCHAR 1D7A
ENCODING 7546
SWIDTH 960 0
DWIDTH 12 0
BBX 11 11 0 -1
BITMAP
02C0
4280
4300
F3E0
4620
4620
4A20
5220
6220
3220
C000
ENDCHAR
STARTCHAR 1D7B
ENCODING 7547
SWIDTH 320 0
DWIDTH 4 0
BBX 4 7 0 0
BITMAP
F0
60
60
60
60
60
F0
ENDCHAR
STARTCHAR 1D7C
ENCODING 7548
SWIDTH 320 0
DWIDTH 4 0
BBX 4 7 0 0
BITMAP
40
40
40
F0
40
40
70
ENDCHAR
STARTCHAR 1D7D
ENCODING 7549
SWIDTH 640 0
DWIDTH 8 0
BBX 8 10 0 -3
BITMAP
5C
66
42
FF
42
66
5C
40
40
40
ENDCHAR
STARTCHAR 1D7E
ENCODING 7550
SWIDTH 560 0
DWIDTH 7 0
BBX 7 7 0 0
BITMAP
44
44
44
FE
44
44
3C
ENDCHAR
STARTCHAR 1D7F
ENCODING 7551
SWIDTH 640 0
DWIDTH 8 0
BBX 7 7 0 0
BITMAP
EE
64
46
FE
42
46
3C
ENDCHAR
STARTCHAR 1D80
ENCODING 7552
SWIDTH 640 0
DWIDTH 8 0
BBX 6 12 1 -2
BITMAP
80
80
80
B8
CC
84
84
84
CC
B8
08
18
ENDCHAR
STARTCHAR 1D81
ENCODING 7553
SWIDTH 640 0
DWIDTH 8 0
BBX 6 12 1 -2
BITMAP
04
04
04
74
8C
8C
84
8C
8C
74
04
0C
ENDCHAR
STARTCHAR 1D82
ENCODING 7554
SWIDTH 320 0
DWIDTH 4 0
BBX 5 13 0 -3
BITMAP
38
60
40
F0
40
40
40
40
40
60
20
20
60
ENDCHAR
STARTCHAR 1D83
ENCODING 7555
SWIDTH 800 0
DWIDTH 10 0
BBX 8 10 1 -3
BITMAP
74
8C
8C
84
8C
8F
75
05
8B
78
ENDCHAR
STARTCHAR 1D84
ENCODING 7556
SWIDTH 560 0
DWIDTH 7 0
BBX 6 13 1 -3
BITMAP
80
80
80
88
90
A0
E0
B0
90
8C
04
04
18
ENDCHAR
STARTCHAR 1D85
ENCODING 7557
SWIDTH 240 0
DWIDTH 3 0
BBX 3 13 0 -3
BITMAP
40
40
40
40
40
40
40
40
40
60
20
20
C0
ENDCHAR
STARTCHAR 1D86
ENCODING 7558
SWIDTH 960 0
DWIDTH 12 0
BBX 10 10 1 -3
BITMAP
BB80
CCC0
8840
8840
8840
8840
8840
0040
0040
00C0
ENDCHAR
STARTCHAR 1D87
ENCODING 7559
SWIDTH 640 0
DWIDTH 8 0
BBX 6 10 1 -3
BITMAP
B8
CC
84
84
84
84
84
04
04
0C
ENDCHAR
STARTCHAR 1D88
ENCODING 7560
SWIDTH 640 0
DWIDTH 8 0
BBX 6 10 1 -3
BITMAP
B8
CC
84
84
84
CC
B8
88
98
80
ENDCHAR
STARTCHAR 1D89
ENCODING 7561
SWIDTH 400 0
DWIDTH 5 0
BBX 5 10 0 -3
BITMAP
58
60
40
40
40
40
60
20
20
C0
ENDCHAR
STARTCHAR 1D8A
ENCODING 7562
SWIDTH 480 0
DWIDTH 6 0
BBX 4 9 1 -2
BITMAP
F0
80
80
60
10
10
F0
10
20
ENDCHAR
STARTCHAR 1D8B
ENCODING 7563
SWIDTH 400 0
DWIDTH 5 0
BBX 5 13 0 -3
BITMAP
30
40
40
40
40
40
40
40
78
48
48
58
C0
ENDCHAR
STARTCHAR 1D8C
ENCODING 7564
SWIDTH 480 0
DWIDTH 6 0
BBX 6 10 0 -3
BITMAP
84
44
48
48
28
30
3C
04
04
08
ENDCHAR
STARTCHAR 1D8D
ENCODING 7565
SWIDTH 560 0
DWIDTH 7 0
BBX 6 10 0 -3
BITMAP
C4
68
38
10
38
48
C4
04
04
0C
ENDCHAR
STARTCHAR 1D8E
ENCODING 7566
SWIDTH 480 0
DWIDTH 6 0
BBX 5 10 0 -3
BITMAP
78
08
10
30
20
40
F8
08
08
18
ENDCHAR
STARTCHAR 1D8F
ENCODING 7567
SWIDTH 560 0
DWIDTH 7 0
BBX 7 10 1 -3
BITMAP
F0
08
08
F8
88
88
FC
04
04
06
ENDCHAR
STARTCHAR 1D90
ENCODING 7568
SWIDTH 640 0
DWIDTH 8 0
BBX 8 9 1 -2
BITMAP
74
8C
8C
84
8C
8C
76
02
03
ENDCHAR
STARTCHAR 1D91
ENCODING 7569
SWIDTH 640 0
DWIDTH 8 0
BBX 7 13 1 -3
BITMAP
06
04
04
74
8C
8C
84
8C
8C
74
04
04
06
ENDCHAR
STARTCHAR 1D92
ENCODING 7570
SWIDTH 560 0
DWIDTH 7 0
BBX 6 9 1 -2
BITMAP
70
88
88
F8
80
80
78
08
0C
ENDCHAR
STARTCHAR 1D93
ENCODING 7571
SWIDTH 480 0
DWIDTH 6 0
BBX 6 9 1 -2
BITMAP
F8
80
80
60
80
80
F8
08
0C
ENDCHAR
STARTCHAR 1D94
ENCODING 7572
SWIDTH 480 0
DWIDTH 6 0
BBX 6 9 0 -2
BITMAP
F8
08
08
30
08
0C
F8
80
60
ENDCHAR
STARTCHAR 1D95
ENCODING 7573
SWIDTH 640 0
DWIDTH 8 0
BBX 8 9 1 -2
BITMAP
F0
08
08
FC
8C
8C
74
04
03
ENDCHAR
STARTCHAR 1D96
ENCODING 7574
SWIDTH 240 0
DWIDTH 3 0
BBX 3 13 1 -3
BITMAP
80
00
00
80
80
80
80
80
80
C0
40
40
60
ENDCHAR
STARTCHAR 1D97
ENCODING 7575
SWIDTH 480 0
DWIDTH 6 0
BBX 5 9 0 -2
BITMAP
F0
08
08
08
08
08
70
40
60
ENDCHAR
STARTCHAR 1D98
ENCODING 7576
SWIDTH 240 0
DWIDTH 3 0
BBX 4 12 0 -2
BITMAP
30
40
40
40
40
40
40
40
40
C0
80
C0
ENDCHAR
STARTCHAR 1D99
ENCODING 7577
SWIDTH 640 0
DWIDTH 8 0
BBX 7 10 1 -3
BITMAP
84
84
84
84
8C
8C
74
04
04
02
ENDCHAR
STARTCHAR 1D9A
ENCODING 7578
SWIDTH 480 0
DWIDTH 6 0
BBX 6 9 0 -2
BITMAP
78
18
30
38
0C
08
F8
80
60
ENDCHAR
STARTCHAR 1D9B
ENCODING 7579
SWIDTH 400 0
DWIDTH 5 0
BBX 5 4 0 4
BITMAP
F0
48
48
70
ENDCHAR
STARTCHAR 1D9C
ENCODING 7580
SWIDTH 320 0
DWIDTH 4 0
BBX 4 4 0 4
BITMAP
70
80
80
70
ENDCHAR
STARTCHAR 1D9D
ENCODING 7581
SWIDTH 320 0
DWIDTH 4 0
BBX 4 4 0 4
BITMAP
70
80
B0
F0
ENDCHAR
STARTCHAR 1D9E
ENCODING 7582
SWIDTH 400 0
DWIDTH 5 0
BBX 4 6 0 4
BITMAP
50
70
70
90
90
70
ENDCHAR
STARTCHAR 1D9F
ENCODING 7583
SWIDTH 320 0
DWIDTH 4 0
BBX 4 4 0 4
BITMAP
E0
60
10
E0
ENDCHAR
STARTCHAR 1DA0
ENCODING 7584
SWIDTH 240 0
DWIDTH 3 0
BBX 3 6 0 4
BITMAP
60
40
E0
40
40
40
ENDCHAR
STARTCHAR 1DA1
ENCODING 7585
SWIDTH 160 0
DWIDTH 2 0
BBX 2 6 0 2
BITMAP
40
C0
40
40
40
80
ENDCHAR
STARTCHAR 1DA2
ENCODING 7586
SWIDTH 400 0
DWIDTH 5 0
BBX 4 6 0 2
BITMAP
70
90
90
70
10
70
ENDCHAR
STARTCHAR 1DA3
ENCODING 7587
SWIDTH 400 0
DWIDTH 5 0
BBX 3 6 1 2
BITMAP
A0
A0
A0
E0
20
20
ENDCHAR
STARTCHAR 1DA4
ENCODING 7588
SWIDTH 160 0
DWIDTH 2 0
BBX 2 6 0 4
BITMAP
40
00
40
C0
40
40
ENDCHAR
STARTCHAR 1DA5
ENCODING 7589
SWIDTH 240 0
DWIDTH 3 0
BBX 2 4 1 4
BITMAP
80
80
80
C0
ENDCHAR
STARTCHAR 1DA6
ENCODING 7590
SWIDTH 240 0
DWIDTH 3 0
BBX 2 4 0 4
BITMAP
C0
40
40
C0
ENDCHAR
STARTCHAR 1DA7
ENCODING 7591
SWIDTH 240 0
DWIDTH 3 0
BBX 2 4 0 4
BITMAP
C0
C0
40
C0
ENDCHAR
STARTCHAR 1DA8
ENCODING 7592
SWIDTH 160 0
DWIDTH 2 0
BBX 3 8 -1 2
BITMAP
20
00
20
20
20
20
E0
C0
ENDCHAR
STARTCHAR 1DA9
ENCODING 7593
SWIDTH 160 0
DWIDTH 2 0
BBX 2 8 1 2
BITMAP
80
80
80
80
80
80
80
C0
ENDCHAR
STARTCHAR 1DAA
ENCODING 7594
SWIDTH 160 0
DWIDTH 2 0
BBX 2 8 0 2
BITMAP
40
40
40
40
40
40
40
C0
ENDCHAR
STARTCHAR 1DAB
ENCODING 7595
SWIDTH 320 0
DWIDTH 4 0
BBX 2 4 1 4
BITMAP
80
80
80
C0
ENDCHAR
STARTCHAR 1DAC
ENCODING 7596
SWIDTH 640 0
DWIDTH 8 0
BBX 6 6 1 2
BITMAP
FC
A4
A4
A4
04
0C
ENDCHAR
STARTCHAR 1DAD
ENCODING 7597
SWIDTH 640 0
DWIDTH 8 0
BBX 6 6 1 2
BITMAP
A4
A4
A4
DC
04
04
ENDCHAR
STARTCHAR 1DAE
ENCODING 7598
SWIDTH 400 0
DWIDTH 5 0
BBX 4 6 0 2
BITMAP
70
50
50
50
40
80
ENDCHAR
STARTCHAR 1DAF
ENCODING 7599
SWIDTH 400 0
DWIDTH 5 0
BBX 4 6 1 2
BITMAP
E0
90
90
90
10
10
ENDCHAR
STARTCHAR 1DB0
ENCODING 7600
SWIDTH 400 0
DWIDTH 5 0
BBX 3 4 1 4
BITMAP
A0
E0
E0
A0
ENDCHAR
STARTCHAR 1DB1
ENCODING 7601
SWIDTH 400 0
DWIDTH 5 0
BBX 4 4 0 4
BITMAP
70
F0
90
70
ENDCHAR
STARTCHAR 1DB2
ENCODING 7602
SWIDTH 480 0
DWIDTH 6 0
BBX 5 8 0 2
BITMAP
20
20
78
A8
A8
78
20
20
ENDCHAR
STARTCHAR 1DB3
ENCODING 7603
SWIDTH 320 0
DWIDTH 4 0
BBX 4 5 0 3
BITMAP
F0
40
30
E0
C0
ENDCHAR
STARTCHAR 1DB4
ENCODING 7604
SWIDTH 160 0
DWIDTH 2 0
BBX 2 8 0 2
BITMAP
40
40
40
40
40
40
40
80
ENDCHAR
STARTCHAR 1DB5
ENCODING 7605
SWIDTH 240 0
DWIDTH 3 0
BBX 3 7 0 2
BITMAP
40
E0
40
40
60
20
60
ENDCHAR
STARTCHAR 1DB6
ENCODING 7606
SWIDTH 400 0
DWIDTH 5 0
BBX 5 4 0 4
BITMAP
90
F8
90
70
ENDCHAR
STARTCHAR 1DB7
ENCODING 7607
SWIDTH 400 0
DWIDTH 5 0
BBX 5 4 0 4
BITMAP
D8
88
88
70
ENDCHAR
STARTCHAR 1DB8
ENCODING 7608
SWIDTH 400 0
DWIDTH 5 0
BBX 3 4 1 4
BITMAP
A0
A0
A0
E0
ENDCHAR
STARTCHAR 1DB9
ENCODING 7609
SWIDTH 400 0
DWIDTH 5 0
BBX 3 4 1 4
BITMAP
A0
A0
A0
E0
ENDCHAR
STARTCHAR 1DBA
ENCODING 7610
SWIDTH 320 0
DWIDTH 4 0
BBX 4 4 0 4
BITMAP
60
60
90
90
ENDCHAR
STARTCHAR 1DBB
ENCODING 7611
SWIDTH 320 0
DWIDTH 4 0
BBX 4 4 0 4
BITMAP
E0
20
40
F0
ENDCHAR
STARTCHAR 1DBC
ENCODING 7612
SWIDTH 320 0
DWIDTH 4 0
BBX 4 6 0 2
BITMAP
E0
20
40
F0
10
10
ENDCHAR
STARTCHAR 1DBD
ENCODING 7613
SWIDTH 320 0
DWIDTH 4 0
BBX 4 5 0 3
BITMAP
E0
20
50
F0
40
ENDCHAR
STARTCHAR 1DBE
ENCODING 7614
SWIDTH 320 0
DWIDTH 4 0
BBX 4 6 0 2
BITMAP
F0
20
60
10
10
E0
ENDCHAR
STARTCHAR 1DBF
ENCODING 7615
SWIDTH 400 0
DWIDTH 5 0
BBX 4 6 0 4
BITMAP
70
90
F0
90
90
70
ENDCHAR
STARTCHAR 1DC0
ENCODING 7616
SWIDTH 0 0
DWIDTH 0 0
BBX 4 2 -2 8
BITMAP
50
A0
ENDCHAR
STARTCHAR 1DC1
ENCODING 7617
SWIDTH 0 0
DWIDTH 0 0
BBX 4 2 -2 8
BITMAP
30
C0
ENDCHAR
STARTCHAR 1DC2
ENCODING 7618
SWIDTH 0 0
DWIDTH 0 0
BBX 2 3 -1 -3
BITMAP
C0
80
40
ENDCHAR
STARTCHAR 1DC3
ENCODING 7619
SWIDTH 0 0
DWIDTH 0 0
BBX 4 2 -2 8
BITMAP
B0
C0
ENDCHAR
STARTCHAR 1DC4
ENCODING 7620
SWIDTH 0 0
DWIDTH 0 0
BBX 4 2 -2 8
BITMAP
10
E0
ENDCHAR
STARTCHAR 1DC5
ENCODING 7621
SWIDTH 0 0
DWIDTH 0 0
BBX 4 2 -2 8
BITMAP
80
70
ENDCHAR
STARTCHAR 1DC6
ENCODING 7622
SWIDTH 0 0
DWIDTH 0 0
BBX 4 2 -2 7
BITMAP
E0
10
ENDCHAR
STARTCHAR 1DC7
ENCODING 7623
SWIDTH 0 0
DWIDTH 0 0
BBX 4 2 -2 7
BITMAP
70
80
ENDCHAR
STARTCHAR 1DC8
ENCODING 7624
SWIDTH 0 0
DWIDTH 0 0
BBX 6 2 -3 7
BITMAP
F8
24
ENDCHAR
STARTCHAR 1DC9
ENCODING 7625
SWIDTH 0 0
DWIDTH 0 0
BBX 6 2 -3 7
BITMAP
7C
90
ENDCHAR
STARTCHAR 1DCA
ENCODING 7626
SWIDTH 0 0
DWIDTH 0 0
BBX 2 3 -1 -3
BITMAP
C0
80
80
ENDCHAR
STARTCHAR 1DCB
ENCODING 7627
SWIDTH 0 0
DWIDTH 0 0
BBX 7 2 -7 8
BITMAP
9E
60
ENDCHAR
STARTCHAR 1DCC
ENCODING 7628
SWIDTH 0 0
DWIDTH 0 0
BBX 7 2 -7 7
BITMAP
F2
0C
ENDCHAR
STARTCHAR 1DCD
ENCODING 7629
SWIDTH 0 0
DWIDTH 0 0
BBX 10 2 -5 8
BITMAP
1E00
E1C0
ENDCHAR
STARTCHAR 1DCE
ENCODING 7630
SWIDTH 0 0
DWIDTH 0 0
BBX 2 3 -4 7
BITMAP
80
40
80
ENDCHAR
STARTCHAR 1DCF
ENCODING 7631
SWIDTH 0 0
DWIDTH 0 0
BBX 2 3 -4 -3
BITMAP
80
C0
40
ENDCHAR
STARTCHAR 1DD0
ENCODING 7632
SWIDTH 0 0
DWIDTH 0 0
BBX 6 3 -3 -3
BITMAP
44
64
9C
ENDCHAR
STARTCHAR 1DD1
ENCODING 7633
SWIDTH 0 0
DWIDTH 0 0
BBX 4 3 -2 8
BITMAP
D0
B0
B0
ENDCHAR
STARTCHAR 1DD2
ENCODING 7634
SWIDTH 0 0
DWIDTH 0 0
BBX 2 4 -1 7
BITMAP
C0
C0
C0
40
ENDCHAR
STARTCHAR 1DD3
ENCODING 7635
SWIDTH 0 0
DWIDTH 0 0
BBX 8 2 -4 8
BITMAP
89
7E
ENDCHAR
STARTCHAR 1DD4
ENCODING 7636
SWIDTH 0 0
DWIDTH 0 0
BBX 4 3 -2 8
BITMAP
F0
70
F0
ENDCHAR
STARTCHAR 1DD5
ENCODING 7637
SWIDTH 0 0
DWIDTH 0 0
BBX 4 3 -2 8
BITMAP
F0
D0
F0
ENDCHAR
STARTCHAR 1DD6
ENCODING 7638
SWIDTH 0 0
DWIDTH 0 0
BBX 4 3 -2 8
BITMAP
D0
70
E0
ENDCHAR
STARTCHAR 1DD7
ENCODING 7639
SWIDTH 0 0
DWIDTH 0 0
BBX 2 4 -1 8
BITMAP
40
80
C0
40
ENDCHAR
STARTCHAR 1DD8
ENCODING 7640
SWIDTH 0 0
DWIDTH 0 0
BBX 3 4 -1 8
BITMAP
80
C0
A0
C0
ENDCHAR
STARTCHAR 1DD9
ENCODING 7641
SWIDTH 0 0
DWIDTH 0 0
BBX 3 4 -1 8
BITMAP
C0
E0
A0
C0
ENDCHAR
STARTCHAR 1DDA
ENCODING 7642
SWIDTH 0 0
DWIDTH 0 0
BBX 2 4 -1 8
BITMAP
C0
C0
C0
C0
ENDCHAR
STARTCHAR 1DDB
ENCODING 7643
SWIDTH 0 0
DWIDTH 0 0
BBX 2 3 -1 8
BITMAP
C0
C0
C0
ENDCHAR
STARTCHAR 1DDC
ENCODING 7644
SWIDTH 0 0
DWIDTH 0 0
BBX 3 4 -1 8
BITMAP
80
E0
80
E0
ENDCHAR
STARTCHAR 1DDD
ENCODING 7645
SWIDTH 0 0
DWIDTH 0 0
BBX 1 4 0 8
BITMAP
80
80
80
80
ENDCHAR
STARTCHAR 1DDE
ENCODING 7646
SWIDTH 0 0
DWIDTH 0 0
BBX 2 3 -1 8
BITMAP
80
80
C0
ENDCHAR
STARTCHAR 1DDF
ENCODING 7647
SWIDTH 0 0
DWIDTH 0 0
BBX 3 3 -1 8
BITMAP
A0
E0
E0
ENDCHAR
STARTCHAR 1DE0
ENCODING 7648
SWIDTH 0 0
DWIDTH 0 0
BBX 2 3 -1 8
BITMAP
C0
C0
C0
ENDCHAR
STARTCHAR 1DE1
ENCODING 7649
SWIDTH 0 0
DWIDTH 0 0
BBX 2 3 -1 8
BITMAP
C0
C0
C0
ENDCHAR
STARTCHAR 1DE2
ENCODING 7650
SWIDTH 0 0
DWIDTH 0 0
BBX 3 3 -1 8
BITMAP
C0
C0
E0
ENDCHAR
STARTCHAR 1DE3
ENCODING 7651
SWIDTH 0 0
DWIDTH 0 0
BBX 2 3 -1 8
BITMAP
C0
C0
40
ENDCHAR
STARTCHAR 1DE4
ENCODING 7652
SWIDTH 0 0
DWIDTH 0 0
BBX 2 3 -1 8
BITMAP
C0
C0
C0
ENDCHAR
STARTCHAR 1DE5
ENCODING 7653
SWIDTH 0 0
DWIDTH 0 0
BBX 1 4 0 8
BITMAP
80
80
80
80
ENDCHAR
STARTCHAR 1DE6
ENCODING 7654
SWIDTH 0 0
DWIDTH 0 0
BBX 2 3 -1 8
BITMAP
C0
40
C0
ENDCHAR
STARTCHAR 1DE7
ENCODING 7655
SWIDTH 0 0
DWIDTH 0 0
BBX 3 3 -1 8
BITMAP
C0
A0
E0
ENDCHAR
STARTCHAR 1DE8
ENCODING 7656
SWIDTH 0 0
DWIDTH 0 0
BBX 3 4 -1 8
BITMAP
80
C0
A0
E0
ENDCHAR
STARTCHAR 1DE9
ENCODING 7657
SWIDTH 0 0
DWIDTH 0 0
BBX 3 5 -1 8
BITMAP
E0
C0
A0
E0
80
ENDCHAR
STARTCHAR 1DEA
ENCODING 7658
SWIDTH 0 0
DWIDTH 0 0
BBX 2 3 -1 8
BITMAP
C0
C0
C0
ENDCHAR
STARTCHAR 1DEB
ENCODING 7659
SWIDTH 0 0
DWIDTH 0 0
BBX 2 4 -1 8
BITMAP
40
C0
40
40
ENDCHAR
STARTCHAR 1DEC
ENCODING 7660
SWIDTH 0 0
DWIDTH 0 0
BBX 2 4 -1 8
BITMAP
40
C0
C0
40
ENDCHAR
STARTCHAR 1DED
ENCODING 7661
SWIDTH 0 0
DWIDTH 0 0
BBX 4 4 -2 7
BITMAP
60
90
60
80
ENDCHAR
STARTCHAR 1DEE
ENCODING 7662
SWIDTH 0 0
DWIDTH 0 0
BBX 3 4 -1 8
BITMAP
C0
A0
C0
80
ENDCHAR
STARTCHAR 1DEF
ENCODING 7663
SWIDTH 0 0
DWIDTH 0 0
BBX 2 5 -1 8
BITMAP
40
40
40
40
C0
ENDCHAR
STARTCHAR 1DF0
ENCODING 7664
SWIDTH 0 0
DWIDTH 0 0
BBX 3 4 -2 7
BITMAP
60
60
60
80
ENDCHAR
STARTCHAR 1DF1
ENCODING 7665
SWIDTH 0 0
DWIDTH 0 0
BBX 4 3 -2 8
BITMAP
B0
F0
50
ENDCHAR
STARTCHAR 1DF2
ENCODING 7666
SWIDTH 0 0
DWIDTH 0 0
BBX 2 4 -1 8
BITMAP
C0
C0
C0
C0
ENDCHAR
STARTCHAR 1DF3
ENCODING 7667
SWIDTH 0 0
DWIDTH 0 0
BBX 3 4 -1 8
BITMAP
C0
C0
A0
C0
ENDCHAR
STARTCHAR 1DF4
ENCODING 7668
SWIDTH 0 0
DWIDTH 0 0
BBX 2 4 -1 8
BITMAP
C0
C0
C0
C0
ENDCHAR
STARTCHAR 1DF5
ENCODING 7669
SWIDTH 0 0
DWIDTH 0 0
BBX 2 2 -1 5
BITMAP
80
C0
ENDCHAR
STARTCHAR 1DF6
ENCODING 7670
SWIDTH 0 0
DWIDTH 0 0
BBX 4 2 -2 8
BITMAP
90
60
ENDCHAR
STARTCHAR 1DF7
ENCODING 7671
SWIDTH 0 0
DWIDTH 0 0
BBX 4 2 -2 8
BITMAP
90
60
ENDCHAR
STARTCHAR 1DF8
ENCODING 7672
SWIDTH 0 0
DWIDTH 0 0
BBX 2 1 -1 8
BITMAP
C0
ENDCHAR
STARTCHAR 1DF9
ENCODING 7673
SWIDTH 0 0
DWIDTH 0 0
BBX 6 2 -3 -3
BITMAP
84
FC
ENDCHAR
STARTCHAR 1DFB
ENCODING 7675
SWIDTH 0 0
DWIDTH 0 0
BBX 8 3 -4 6
BITMAP
2B
52
D4
ENDCHAR
STARTCHAR 1DFC
ENCODING 7676
SWIDTH 0 0
DWIDTH 0 0
BBX 8 2 -4 -3
BITMAP
7E
81
ENDCHAR
STARTCHAR 1DFD
ENCODING 7677
SWIDTH 0 0
DWIDTH 0 0
BBX 4 3 -2 -3
BITMAP
F0
00
F0
ENDCHAR
STARTCHAR 1DFE
ENCODING 7678
SWIDTH 0 0
DWIDTH 0 0
BBX 2 3 -1 8
BITMAP
40
80
40
ENDCHAR
STARTCHAR 1DFF
ENCODING 7679
SWIDTH 0 0
DWIDTH 0 0
BBX 4 3 -2 -3
BITMAP
B0
70
90
ENDCHAR
STARTCHAR 1E00
ENCODING 7680
SWIDTH 640 0
DWIDTH 8 0
BBX 8 13 0 -4
BITMAP
18
18
18
24
24
7E
42
42
81
00
18
24
18
ENDCHAR
STARTCHAR 1E01
ENCODING 7681
SWIDTH 560 0
DWIDTH 7 0
BBX 5 11 1 -4
BITMAP
F0
08
08
F8
88
98
E8
00
60
50
60
ENDCHAR
STARTCHAR 1E02
ENCODING 7682
SWIDTH 640 0
DWIDTH 8 0
BBX 6 11 1 0
BITMAP
30
00
F8
84
84
84
F8
84
84
84
F8
ENDCHAR
STARTCHAR 1E03
ENCODING 7683
SWIDTH 640 0
DWIDTH 8 0
BBX 6 10 1 0
BITMAP
80
90
80
B8
CC
84
84
84
CC
B8
ENDCHAR
STARTCHAR 1E04
ENCODING 7684
SWIDTH 640 0
DWIDTH 8 0
BBX 6 11 1 -2
BITMAP
F8
84
84
84
F8
84
84
84
F8
00
30
ENDCHAR
STARTCHAR 1E05
ENCODING 7685
SWIDTH 640 0
DWIDTH 8 0
BBX 6 12 1 -2
BITMAP
80
80
80
B8
CC
84
84
84
CC
B8
00
30
ENDCHAR
STARTCHAR 1E06
ENCODING 7686
SWIDTH 640 0
DWIDTH 8 0
BBX 6 10 1 -1
BITMAP
F8
84
84
84
F8
84
84
84
F8
78
ENDCHAR
STARTCHAR 1E07
ENCODING 7687
SWIDTH 640 0
DWIDTH 8 0
BBX 6 11 1 -1
BITMAP
80
80
80
B8
CC
84
84
84
CC
B8
78
ENDCHAR
STARTCHAR 1E08
ENCODING 7688
SWIDTH 640 0
DWIDTH 8 0
BBX 7 15 1 -3
BITMAP
0C
10
00
3E
40
80
80
80
80
80
40
3C
10
08
30
ENDCHAR
STARTCHAR 1E09
ENCODING 7689
SWIDTH 480 0
DWIDTH 6 0
BBX 5 13 1 -3
BITMAP
10
20
00
78
80
80
80
80
80
70
20
10
60
ENDCHAR
STARTCHAR 1E0A
ENCODING 7690
SWIDTH 720 0
DWIDTH 9 0
BBX 7 11 1 0
BITMAP
10
00
F8
84
82
82
82
82
82
84
F8
ENDCHAR
STARTCHAR 1E0B
ENCODING 7691
SWIDTH 640 0
DWIDTH 8 0
BBX 6 10 1 0
BITMAP
04
24
04
74
8C
8C
84
8C
8C
74
ENDCHAR
STARTCHAR 1E0C
ENCODING 7692
SWIDTH 720 0
DWIDTH 9 0
BBX 7 11 1 -2
BITMAP
F8
84
82
82
82
82
82
84
F8
00
10
ENDCHAR
STARTCHAR 1E0D
ENCODING 7693
SWIDTH 640 0
DWIDTH 8 0
BBX 6 12 1 -2
BITMAP
04
04
04
74
8C
8C
84
8C
8C
74
00
20
ENDCHAR
STARTCHAR 1E0E
ENCODING 7694
SWIDTH 720 0
DWIDTH 9 0
BBX 7 10 1 -1
BITMAP
F8
84
82
82
82
82
82
84
F8
38
ENDCHAR
STARTCHAR 1E0F
ENCODING 7695
SWIDTH 640 0
DWIDTH 8 0
BBX 6 11 1 -1
BITMAP
04
04
04
74
8C
8C
84
8C
8C
74
78
ENDCHAR
STARTCHAR 1E10
ENCODING 7696
SWIDTH 720 0
DWIDTH 9 0
BBX 7 12 1 -3
BITMAP
F8
86
82
82
82
82
82
84
F8
30
08
30
ENDCHAR
STARTCHAR 1E11
ENCODING 7697
SWIDTH 640 0
DWIDTH 8 0
BBX 6 13 1 -3
BITMAP
04
04
04
74
8C
8C
84
8C
8C
74
20
10
30
ENDCHAR
STARTCHAR 1E12
ENCODING 7698
SWIDTH 720 0
DWIDTH 9 0
BBX 7 11 1 -2
BITMAP
F8
84
82
82
82
82
82
84
F8
30
68
ENDCHAR
STARTCHAR 1E13
ENCODING 7699
SWIDTH 640 0
DWIDTH 8 0
BBX 6 12 1 -2
BITMAP
04
04
04
74
8C
8C
84
8C
8C
74
30
58
ENDCHAR
STARTCHAR 1E14
ENCODING 7700
SWIDTH 560 0
DWIDTH 7 0
BBX 5 14 1 0
BITMAP
60
30
00
78
00
F8
80
80
80
F8
80
80
80
F8
ENDCHAR
STARTCHAR 1E15
ENCODING 7701
SWIDTH 560 0
DWIDTH 7 0
BBX 5 12 1 0
BITMAP
40
20
10
70
00
70
88
88
F8
80
80
78
ENDCHAR
STARTCHAR 1E16
ENCODING 7702
SWIDTH 560 0
DWIDTH 7 0
BBX 5 14 1 0
BITMAP
18
30
00
78
00
F8
80
80
80
F8
80
80
80
F8
ENDCHAR
STARTCHAR 1E17
ENCODING 7703
SWIDTH 560 0
DWIDTH 7 0
BBX 5 12 1 0
BITMAP
10
30
20
70
00
70
88
88
F8
80
80
78
ENDCHAR
STARTCHAR 1E18
ENCODING 7704
SWIDTH 560 0
DWIDTH 7 0
BBX 5 11 1 -2
BITMAP
F8
80
80
80
F8
80
80
80
F8
30
58
ENDCHAR
STARTCHAR 1E19
ENCODING 7705
SWIDTH 560 0
DWIDTH 7 0
BBX 5 9 1 -2
BITMAP
70
88
88
F8
80
80
78
30
58
ENDCHAR
STARTCHAR 1E1A
ENCODING 7706
SWIDTH 560 0
DWIDTH 7 0
BBX 5 11 1 -2
BITMAP
F8
80
80
80
F8
80
80
80
F8
68
58
ENDCHAR
STARTCHAR 1E1B
ENCODING 7707
SWIDTH 560 0
DWIDTH 7 0
BBX 5 9 1 -2
BITMAP
70
88
88
F8
80
80
78
68
90
ENDCHAR
STARTCHAR 1E1C
ENCODING 7708
SWIDTH 560 0
DWIDTH 7 0
BBX 5 15 1 -3
BITMAP
48
70
00
F8
80
80
80
F8
80
80
80
F8
20
10
30
ENDCHAR
STARTCHAR 1E1D
ENCODING 7709
SWIDTH 560 0
DWIDTH 7 0
BBX 5 13 1 -3
BITMAP
48
70
00
70
88
88
F8
80
80
78
20
10
30
ENDCHAR
STARTCHAR 1E1E
ENCODING 7710
SWIDTH 480 0
DWIDTH 6 0
BBX 5 11 1 0
BITMAP
20
00
F8
80
80
80
F8
80
80
80
80
ENDCHAR
STARTCHAR 1E1F
ENCODING 7711
SWIDTH 320 0
DWIDTH 4 0
BBX 5 11 0 0
BITMAP
10
38
60
40
F0
40
40
40
40
40
40
ENDCHAR
STARTCHAR 1E20
ENCODING 7712
SWIDTH 720 0
DWIDTH 9 0
BBX 7 11 1 0
BITMAP
3C
00
3E
40
80
80
8E
82
82
42
3E
ENDCHAR
STARTCHAR 1E21
ENCODING 7713
SWIDTH 640 0
DWIDTH 8 0
BBX 6 12 1 -3
BITMAP
78
00
74
8C
8C
84
8C
8C
74
04
08
F8
ENDCHAR
STARTCHAR 1E22
ENCODING 7714
SWIDTH 720 0
DWIDTH 9 0
BBX 7 11 1 0
BITMAP
10
00
82
82
82
82
FE
82
82
82
82
ENDCHAR
STARTCHAR 1E23
ENCODING 7715
SWIDTH 640 0
DWIDTH 8 0
BBX 6 12 1 0
BITMAP
80
00
80
80
80
B8
CC
84
84
84
84
84
ENDCHAR
STARTCHAR 1E24
ENCODING 7716
SWIDTH 720 0
DWIDTH 9 0
BBX 7 11 1 -2
BITMAP
82
82
82
82
FE
82
82
82
82
00
10
ENDCHAR
STARTCHAR 1E25
ENCODING 7717
SWIDTH 640 0
DWIDTH 8 0
BBX 6 12 1 -2
BITMAP
80
80
80
B8
CC
84
84
84
84
84
00
30
ENDCHAR
STARTCHAR 1E26
ENCODING 7718
SWIDTH 720 0
DWIDTH 9 0
BBX 7 11 1 0
BITMAP
28
00
82
82
82
82
FE
82
82
82
82
ENDCHAR
STARTCHAR 1E27
ENCODING 7719
SWIDTH 640 0
DWIDTH 8 0
BBX 7 12 0 0
BITMAP
A0
00
40
40
40
5C
66
42
42
42
42
42
ENDCHAR
STARTCHAR 1E28
ENCODING 7720
SWIDTH 720 0
DWIDTH 9 0
BBX 8 12 0 -3
BITMAP
41
41
41
41
7F
41
41
41
41
40
20
C0
ENDCHAR
STARTCHAR 1E29
ENCODING 7721
SWIDTH 640 0
DWIDTH 8 0
BBX 7 13 0 -3
BITMAP
40
40
40
5C
66
42
42
42
42
42
40
20
C0
ENDCHAR
STARTCHAR 1E2A
ENCODING 7722
SWIDTH 720 0
DWIDTH 9 0
BBX 7 11 1 -2
BITMAP
82
82
82
82
FE
82
82
82
82
24
38
ENDCHAR
STARTCHAR 1E2B
ENCODING 7723
SWIDTH 640 0
DWIDTH 8 0
BBX 6 12 1 -2
BITMAP
80
80
80
B8
CC
84
84
84
84
84
48
70
ENDCHAR
STARTCHAR 1E2C
ENCODING 7724
SWIDTH 320 0
DWIDTH 4 0
BBX 4 11 0 -2
BITMAP
F0
20
20
20
20
20
20
20
F0
D0
B0
ENDCHAR
STARTCHAR 1E2D
ENCODING 7725
SWIDTH 240 0
DWIDTH 3 0
BBX 5 12 -1 -2
BITMAP
20
00
00
20
20
20
20
20
20
20
68
90
ENDCHAR
STARTCHAR 1E2E
ENCODING 7726
SWIDTH 320 0
DWIDTH 4 0
BBX 4 14 0 0
BITMAP
10
20
40
D0
00
F0
20
20
20
20
20
20
20
F0
ENDCHAR
STARTCHAR 1E2F
ENCODING 7727
SWIDTH 240 0
DWIDTH 3 0
BBX 3 11 0 0
BITMAP
20
40
A0
00
40
40
40
40
40
40
40
ENDCHAR
STARTCHAR 1E30
ENCODING 7728
SWIDTH 640 0
DWIDTH 8 0
BBX 7 12 1 0
BITMAP
18
30
00
86
88
90
A0
E0
90
88
8C
86
ENDCHAR
STARTCHAR 1E31
ENCODING 7729
SWIDTH 560 0
DWIDTH 7 0
BBX 6 13 1 0
BITMAP
40
80
00
80
80
80
88
90
A0
E0
B0
90
8C
ENDCHAR
STARTCHAR 1E32
ENCODING 7730
SWIDTH 640 0
DWIDTH 8 0
BBX 7 11 1 -2
BITMAP
86
88
90
A0
E0
90
88
8C
86
00
30
ENDCHAR
STARTCHAR 1E33
ENCODING 7731
SWIDTH 560 0
DWIDTH 7 0
BBX 6 12 1 -2
BITMAP
80
80
80
88
90
A0
E0
B0
90
8C
00
20
ENDCHAR
STARTCHAR 1E34
ENCODING 7732
SWIDTH 640 0
DWIDTH 8 0
BBX 7 10 1 -1
BITMAP
86
88
90
A0
E0
90
88
8C
86
78
ENDCHAR
STARTCHAR 1E35
ENCODING 7733
SWIDTH 560 0
DWIDTH 7 0
BBX 6 12 1 -2
BITMAP
80
80
80
88
90
A0
E0
B0
90
8C
00
78
ENDCHAR
STARTCHAR 1E36
ENCODING 7734
SWIDTH 560 0
DWIDTH 7 0
BBX 5 11 1 -2
BITMAP
80
80
80
80
80
80
80
80
F8
00
20
ENDCHAR
STARTCHAR 1E37
ENCODING 7735
SWIDTH 240 0
DWIDTH 3 0
BBX 1 12 1 -2
BITMAP
80
80
80
80
80
80
80
80
80
80
00
80
ENDCHAR
STARTCHAR 1E38
ENCODING 7736
SWIDTH 560 0
DWIDTH 7 0
BBX 6 13 0 -2
BITMAP
F0
00
40
40
40
40
40
40
40
40
7C
00
10
ENDCHAR
STARTCHAR 1E39
ENCODING 7737
SWIDTH 240 0
DWIDTH 3 0
BBX 3 14 0 -2
BITMAP
E0
00
40
40
40
40
40
40
40
40
40
40
00
40
ENDCHAR
STARTCHAR 1E3A
ENCODING 7738
SWIDTH 560 0
DWIDTH 7 0
BBX 5 10 1 -1
BITMAP
80
80
80
80
80
80
80
80
F8
78
ENDCHAR
STARTCHAR 1E3B
ENCODING 7739
SWIDTH 240 0
DWIDTH 3 0
BBX 3 11 0 -1
BITMAP
40
40
40
40
40
40
40
40
40
40
E0
ENDCHAR
STARTCHAR 1E3C
ENCODING 7740
SWIDTH 560 0
DWIDTH 7 0
BBX 5 11 1 -2
BITMAP
80
80
80
80
80
80
80
80
F8
30
58
ENDCHAR
STARTCHAR 1E3D
ENCODING 7741
SWIDTH 240 0
DWIDTH 3 0
BBX 4 12 0 -2
BITMAP
40
40
40
40
40
40
40
40
40
40
60
B0
ENDCHAR
STARTCHAR 1E3E
ENCODING 7742
SWIDTH 880 0
DWIDTH 11 0
BBX 9 12 1 0
BITMAP
0400
0800
0000
C180
C180
A180
A280
B280
9480
9480
8C80
8880
ENDCHAR
STARTCHAR 1E3F
ENCODING 7743
SWIDTH 960 0
DWIDTH 12 0
BBX 10 10 1 0
BITMAP
0600
0C00
0000
BB80
CCC0
8840
8840
8840
8840
8840
ENDCHAR
STARTCHAR 1E40
ENCODING 7744
SWIDTH 880 0
DWIDTH 11 0
BBX 9 11 1 0
BITMAP
0800
0000
C180
C180
A180
A280
B280
9480
9480
8C80
8880
ENDCHAR
STARTCHAR 1E41
ENCODING 7745
SWIDTH 960 0
DWIDTH 12 0
BBX 10 9 1 0
BITMAP
0C00
0000
BB80
CCC0
8840
8840
8840
8840
8840
ENDCHAR
STARTCHAR 1E42
ENCODING 7746
SWIDTH 880 0
DWIDTH 11 0
BBX 9 11 1 -2
BITMAP
C180
C180
A180
A280
B280
9480
9480
8C80
8880
0000
0800
ENDCHAR
STARTCHAR 1E43
ENCODING 7747
SWIDTH 960 0
DWIDTH 12 0
BBX 10 9 1 -2
BITMAP
BB80
CCC0
8840
8840
8840
8840
8840
0000
0C00
ENDCHAR
STARTCHAR 1E44
ENCODING 7748
SWIDTH 800 0
DWIDTH 10 0
BBX 7 11 1 0
BITMAP
10
00
C2
C2
A2
B2
92
8A
8E
86
82
ENDCHAR
STARTCHAR 1E45
ENCODING 7749
SWIDTH 640 0
DWIDTH 8 0
BBX 6 9 1 0
BITMAP
30
00
B8
CC
84
84
84
84
84
ENDCHAR
STARTCHAR 1E46
ENCODING 7750
SWIDTH 800 0
DWIDTH 10 0
BBX 7 11 1 -2
BITMAP
C2
C2
A2
B2
92
8A
8E
86
82
00
10
ENDCHAR
STARTCHAR 1E47
ENCODING 7751
SWIDTH 640 0
DWIDTH 8 0
BBX 6 9 1 -2
BITMAP
B8
CC
84
84
84
84
84
00
30
ENDCHAR
STARTCHAR 1E48
ENCODING 7752
SWIDTH 800 0
DWIDTH 10 0
BBX 7 11 1 -2
BITMAP
C2
C2
A2
B2
92
8A
8E
86
82
00
3C
ENDCHAR
STARTCHAR 1E49
ENCODING 7753
SWIDTH 640 0
DWIDTH 8 0
BBX 6 9 1 -2
BITMAP
B8
CC
84
84
84
84
84
00
78
ENDCHAR
STARTCHAR 1E4A
ENCODING 7754
SWIDTH 800 0
DWIDTH 10 0
BBX 7 11 1 -2
BITMAP
C2
C2
A2
B2
92
8A
8E
86
82
18
2C
ENDCHAR
STARTCHAR 1E4B
ENCODING 7755
SWIDTH 640 0
DWIDTH 8 0
BBX 6 9 1 -2
BITMAP
B8
CC
84
84
84
84
84
30
48
ENDCHAR
STARTCHAR 1E4C
ENCODING 7756
SWIDTH 800 0
DWIDTH 10 0
BBX 8 14 1 0
BITMAP
0C
18
34
2C
00
3C
42
83
81
81
81
83
42
3C
ENDCHAR
STARTCHAR 1E4D
ENCODING 7757
SWIDTH 640 0
DWIDTH 8 0
BBX 6 12 1 0
BITMAP
10
10
20
78
00
78
88
84
84
84
88
78
ENDCHAR
STARTCHAR 1E4E
ENCODING 7758
SWIDTH 800 0
DWIDTH 10 0
BBX 8 13 1 0
BITMAP
2C
34
2C
00
3C
42
83
81
81
81
83
42
3C
ENDCHAR
STARTCHAR 1E4F
ENCODING 7759
SWIDTH 640 0
DWIDTH 8 0
BBX 6 11 1 0
BITMAP
58
00
78
00
78
88
84
84
84
88
78
ENDCHAR
STARTCHAR 1E50
ENCODING 7760
SWIDTH 800 0
DWIDTH 10 0
BBX 8 14 1 0
BITMAP
30
18
00
3C
00
3C
42
83
81
81
81
83
42
3C
ENDCHAR
STARTCHAR 1E51
ENCODING 7761
SWIDTH 640 0
DWIDTH 8 0
BBX 6 12 1 0
BITMAP
40
20
10
78
00
78
88
84
84
84
88
78
ENDCHAR
STARTCHAR 1E52
ENCODING 7762
SWIDTH 800 0
DWIDTH 10 0
BBX 8 14 1 0
BITMAP
0C
10
00
3C
00
3C
42
83
81
81
81
83
42
3C
ENDCHAR
STARTCHAR 1E53
ENCODING 7763
SWIDTH 640 0
DWIDTH 8 0
BBX 6 12 1 0
BITMAP
10
30
20
78
00
78
88
84
84
84
88
78
ENDCHAR
STARTCHAR 1E54
ENCODING 7764
SWIDTH 640 0
DWIDTH 8 0
BBX 6 12 1 0
BITMAP
18
30
00
F8
8C
84
8C
F8
80
80
80
80
ENDCHAR
STARTCHAR 1E55
ENCODING 7765
SWIDTH 640 0
DWIDTH 8 0
BBX 6 13 1 -3
BITMAP
18
30
00
B8
CC
84
84
84
CC
B8
80
80
80
ENDCHAR
STARTCHAR 1E56
ENCODING 7766
SWIDTH 640 0
DWIDTH 8 0
BBX 6 11 1 0
BITMAP
30
00
F8
8C
84
8C
F8
80
80
80
80
ENDCHAR
STARTCHAR 1E57
ENCODING 7767
SWIDTH 640 0
DWIDTH 8 0
BBX 6 12 1 -3
BITMAP
10
00
B8
CC
84
84
84
CC
B8
80
80
80
ENDCHAR
STARTCHAR 1E58
ENCODING 7768
SWIDTH 640 0
DWIDTH 8 0
BBX 7 11 1 0
BITMAP
30
00
F8
8C
84
8C
F8
98
88
8C
86
ENDCHAR
STARTCHAR 1E59
ENCODING 7769
SWIDTH 400 0
DWIDTH 5 0
BBX 4 9 1 0
BITMAP
60
00
B0
C0
80
80
80
80
80
ENDCHAR
STARTCHAR 1E5A
ENCODING 7770
SWIDTH 640 0
DWIDTH 8 0
BBX 7 11 1 -2
BITMAP
F8
8C
84
8C
F8
98
88
8C
86
00
30
ENDCHAR
STARTCHAR 1E5B
ENCODING 7771
SWIDTH 400 0
DWIDTH 5 0
BBX 4 9 1 -2
BITMAP
B0
C0
80
80
80
80
80
00
80
ENDCHAR
STARTCHAR 1E5C
ENCODING 7772
SWIDTH 640 0
DWIDTH 8 0
BBX 7 13 1 -2
BITMAP
78
00
F8
8C
84
8C
F8
98
88
8C
86
00
30
ENDCHAR
STARTCHAR 1E5D
ENCODING 7773
SWIDTH 400 0
DWIDTH 5 0
BBX 4 11 1 -2
BITMAP
F0
00
B0
C0
80
80
80
80
80
00
80
ENDCHAR
STARTCHAR 1E5E
ENCODING 7774
SWIDTH 640 0
DWIDTH 8 0
BBX 7 10 1 -1
BITMAP
F8
8C
84
8C
F8
98
88
8C
86
78
ENDCHAR
STARTCHAR 1E5F
ENCODING 7775
SWIDTH 400 0
DWIDTH 5 0
BBX 5 8 0 -1
BITMAP
58
60
40
40
40
40
40
F0
ENDCHAR
STARTCHAR 1E60
ENCODING 7776
SWIDTH 560 0
DWIDTH 7 0
BBX 5 11 1 0
BITMAP
20
00
78
80
80
C0
70
08
08
08
F0
ENDCHAR
STARTCHAR 1E61
ENCODING 7777
SWIDTH 480 0
DWIDTH 6 0
BBX 4 9 1 0
BITMAP
60
00
F0
80
80
60
10
10
F0
ENDCHAR
STARTCHAR 1E62
ENCODING 7778
SWIDTH 560 0
DWIDTH 7 0
BBX 5 11 1 -2
BITMAP
78
80
80
C0
70
08
08
08
F0
00
20
ENDCHAR
STARTCHAR 1E63
ENCODING 7779
SWIDTH 480 0
DWIDTH 6 0
BBX 4 9 1 -2
BITMAP
F0
80
80
60
10
10
F0
00
60
ENDCHAR
STARTCHAR 1E64
ENCODING 7780
SWIDTH 560 0
DWIDTH 7 0
BBX 5 12 1 0
BITMAP
58
20
00
78
80
80
C0
70
08
08
08
F0
ENDCHAR
STARTCHAR 1E65
ENCODING 7781
SWIDTH 480 0
DWIDTH 6 0
BBX 4 10 1 0
BITMAP
10
E0
00
F0
80
80
60
10
10
F0
ENDCHAR
STARTCHAR 1E66
ENCODING 7782
SWIDTH 560 0
DWIDTH 7 0
BBX 5 13 1 0
BITMAP
A8
50
20
00
78
80
80
C0
70
08
08
08
F0
ENDCHAR
STARTCHAR 1E67
ENCODING 7783
SWIDTH 480 0
DWIDTH 6 0
BBX 4 11 1 0
BITMAP
60
90
60
00
F0
80
80
60
10
10
F0
ENDCHAR
STARTCHAR 1E68
ENCODING 7784
SWIDTH 560 0
DWIDTH 7 0
BBX 5 13 1 -2
BITMAP
20
00
78
80
80
C0
70
08
08
08
F0
00
20
ENDCHAR
STARTCHAR 1E69
ENCODING 7785
SWIDTH 480 0
DWIDTH 6 0
BBX 4 11 1 -2
BITMAP
60
00
F0
80
80
60
10
10
F0
00
60
ENDCHAR
STARTCHAR 1E6A
ENCODING 7786
SWIDTH 560 0
DWIDTH 7 0
BBX 7 11 0 0
BITMAP
10
00
FE
10
10
10
10
10
10
10
10
ENDCHAR
STARTCHAR 1E6B
ENCODING 7787
SWIDTH 400 0
DWIDTH 5 0
BBX 4 11 0 0
BITMAP
60
00
40
40
F0
40
40
40
40
40
30
ENDCHAR
STARTCHAR 1E6C
ENCODING 7788
SWIDTH 560 0
DWIDTH 7 0
BBX 7 11 0 -2
BITMAP
FE
10
10
10
10
10
10
10
10
00
10
ENDCHAR
STARTCHAR 1E6D
ENCODING 7789
SWIDTH 400 0
DWIDTH 5 0
BBX 4 11 0 -2
BITMAP
40
40
F0
40
40
40
40
40
30
00
20
ENDCHAR
STARTCHAR 1E6E
ENCODING 7790
SWIDTH 560 0
DWIDTH 7 0
BBX 7 10 0 -1
BITMAP
FE
10
10
10
10
10
10
10
10
38
ENDCHAR
STARTCHAR 1E6F
ENCODING 7791
SWIDTH 400 0
DWIDTH 5 0
BBX 5 10 0 -1
BITMAP
40
40
F0
40
40
40
40
40
30
78
ENDCHAR
STARTCHAR 1E70
ENCODING 7792
SWIDTH 560 0
DWIDTH 7 0
BBX 7 11 0 -2
BITMAP
FE
10
10
10
10
10
10
10
10
10
6C
ENDCHAR
STARTCHAR 1E71
ENCODING 7793
SWIDTH 400 0
DWIDTH 5 0
BBX 5 11 0 -2
BITMAP
40
40
F0
40
40
40
40
40
30
30
58
ENDCHAR
STARTCHAR 1E72
ENCODING 7794
SWIDTH 720 0
DWIDTH 9 0
BBX 7 11 1 -2
BITMAP
82
82
82
82
82
82
82
46
7C
00
28
ENDCHAR
STARTCHAR 1E73
ENCODING 7795
SWIDTH 640 0
DWIDTH 8 0
BBX 6 9 1 -2
BITMAP
84
84
84
84
8C
8C
74
00
58
ENDCHAR
STARTCHAR 1E74
ENCODING 7796
SWIDTH 720 0
DWIDTH 9 0
BBX 7 12 1 0
BITMAP
34
48
00
82
82
82
82
82
82
82
46
7C
ENDCHAR
STARTCHAR 1E75
ENCODING 7797
SWIDTH 640 0
DWIDTH 8 0
BBX 6 10 1 0
BITMAP
68
98
00
84
84
84
84
8C
8C
74
ENDCHAR
STARTCHAR 1E76
ENCODING 7798
SWIDTH 720 0
DWIDTH 9 0
BBX 7 11 1 -2
BITMAP
82
82
82
82
82
82
82
46
7C
10
6C
ENDCHAR
STARTCHAR 1E77
ENCODING 7799
SWIDTH 640 0
DWIDTH 8 0
BBX 6 9 1 -2
BITMAP
84
84
84
84
8C
8C
74
30
48
ENDCHAR
STARTCHAR 1E78
ENCODING 7800
SWIDTH 720 0
DWIDTH 9 0
BBX 7 14 1 0
BITMAP
08
10
34
48
00
82
82
82
82
82
82
82
46
7C
ENDCHAR
STARTCHAR 1E79
ENCODING 7801
SWIDTH 640 0
DWIDTH 8 0
BBX 6 12 1 0
BITMAP
18
10
20
78
00
84
84
84
84
8C
8C
74
ENDCHAR
STARTCHAR 1E7A
ENCODING 7802
SWIDTH 720 0
DWIDTH 9 0
BBX 7 13 1 0
BITMAP
28
00
38
00
82
82
82
82
82
82
82
46
7C
ENDCHAR
STARTCHAR 1E7B
ENCODING 7803
SWIDTH 640 0
DWIDTH 8 0
BBX 6 11 1 0
BITMAP
58
00
78
00
84
84
84
84
8C
8C
74
ENDCHAR
STARTCHAR 1E7C
ENCODING 7804
SWIDTH 640 0
DWIDTH 8 0
BBX 8 12 0 0
BITMAP
34
4C
00
83
42
46
44
24
2C
28
18
10
ENDCHAR
STARTCHAR 1E7D
ENCODING 7805
SWIDTH 480 0
DWIDTH 6 0
BBX 6 10 0 0
BITMAP
64
58
00
84
44
48
48
28
30
30
ENDCHAR
STARTCHAR 1E7E
ENCODING 7806
SWIDTH 640 0
DWIDTH 8 0
BBX 8 11 0 -2
BITMAP
83
42
46
44
24
2C
28
18
10
00
10
ENDCHAR
STARTCHAR 1E7F
ENCODING 7807
SWIDTH 480 0
DWIDTH 6 0
BBX 6 9 0 -2
BITMAP
84
44
48
48
28
30
30
00
30
ENDCHAR
STARTCHAR 1E80
ENCODING 7808
SWIDTH 960 0
DWIDTH 12 0
BBX 11 12 0 0
BITMAP
0C00
0600
0000
8420
4620
4E20
4A60
4940
2940
3140
3080
3080
ENDCHAR
STARTCHAR 1E81
ENCODING 7809
SWIDTH 800 0
DWIDTH 10 0
BBX 10 10 0 0
BITMAP
1800
0C00
0000
8CC0
4C80
4C80
5280
5300
3300
2300
ENDCHAR
STARTCHAR 1E82
ENCODING 7810
SWIDTH 960 0
DWIDTH 12 0
BBX 11 12 0 0
BITMAP
0300
0400
0000
8420
4620
4E20
4A60
4940
2940
3140
3080
3080
ENDCHAR
STARTCHAR 1E83
ENCODING 7811
SWIDTH 800 0
DWIDTH 10 0
BBX 10 10 0 0
BITMAP
0600
0800
0000
8CC0
4C80
4C80
5280
5300
3300
2300
ENDCHAR
STARTCHAR 1E84
ENCODING 7812
SWIDTH 960 0
DWIDTH 12 0
BBX 11 11 0 0
BITMAP
0B00
0000
8420
4620
4E20
4A60
4940
2940
3140
3080
3080
ENDCHAR
STARTCHAR 1E85
ENCODING 7813
SWIDTH 800 0
DWIDTH 10 0
BBX 10 9 0 0
BITMAP
1600
0000
8CC0
4C80
4C80
5280
5300
3300
2300
ENDCHAR
STARTCHAR 1E86
ENCODING 7814
SWIDTH 960 0
DWIDTH 12 0
BBX 11 11 0 0
BITMAP
0400
0000
8420
4620
4E20
4A60
4940
2940
3140
3080
3080
ENDCHAR
STARTCHAR 1E87
ENCODING 7815
SWIDTH 800 0
DWIDTH 10 0
BBX 10 9 0 0
BITMAP
0C00
0000
8CC0
4C80
4C80
5280
5300
3300
2300
ENDCHAR
STARTCHAR 1E88
ENCODING 7816
SWIDTH 960 0
DWIDTH 12 0
BBX 11 11 0 -2
BITMAP
8420
4620
4E20
4A60
4940
2940
3140
3080
3080
0000
0400
ENDCHAR
STARTCHAR 1E89
ENCODING 7817
SWIDTH 800 0
DWIDTH 10 0
BBX 10 9 0 -2
BITMAP
8CC0
4C80
4C80
5280
5300
3300
2300
0000
0C00
ENDCHAR
STARTCHAR 1E8A
ENCODING 7818
SWIDTH 560 0
DWIDTH 7 0
BBX 7 11 0 0
BITMAP
10
00
C2
44
28
38
10
28
2C
44
C2
ENDCHAR
STARTCHAR 1E8B
ENCODING 7819
SWIDTH 560 0
DWIDTH 7 0
BBX 6 9 0 0
BITMAP
10
00
C4
68
38
10
38
48
C4
ENDCHAR
STARTCHAR 1E8C
ENCODING 7820
SWIDTH 560 0
DWIDTH 7 0
BBX 7 11 0 0
BITMAP
28
00
C2
44
28
38
10
28
2C
44
C2
ENDCHAR
STARTCHAR 1E8D
ENCODING 7821
SWIDTH 560 0
DWIDTH 7 0
BBX 6 9 0 0
BITMAP
28
00
C4
68
38
10
38
48
C4
ENDCHAR
STARTCHAR 1E8E
ENCODING 7822
SWIDTH 560 0
DWIDTH 7 0
BBX 7 11 0 0
BITMAP
10
00
82
44
64
28
38
10
10
10
10
ENDCHAR
STARTCHAR 1E8F
ENCODING 7823
SWIDTH 480 0
DWIDTH 6 0
BBX 6 12 0 -3
BITMAP
10
00
84
44
48
48
28
30
10
10
20
E0
ENDCHAR
STARTCHAR 1E90
ENCODING 7824
SWIDTH 560 0
DWIDTH 7 0
BBX 7 12 0 0
BITMAP
18
2C
00
7E
04
08
08
10
20
20
40
FE
ENDCHAR
STARTCHAR 1E91
ENCODING 7825
SWIDTH 480 0
DWIDTH 6 0
BBX 5 10 0 0
BITMAP
30
48
00
78
08
10
30
20
40
F8
ENDCHAR
STARTCHAR 1E92
ENCODING 7826
SWIDTH 560 0
DWIDTH 7 0
BBX 7 11 0 -2
BITMAP
7E
04
08
08
10
20
20
40
FE
00
10
ENDCHAR
STARTCHAR 1E93
ENCODING 7827
SWIDTH 480 0
DWIDTH 6 0
BBX 5 9 0 -2
BITMAP
78
08
10
30
20
40
F8
00
30
ENDCHAR
STARTCHAR 1E94
ENCODING 7828
SWIDTH 560 0
DWIDTH 7 0
BBX 7 10 0 -1
BITMAP
7E
04
08
08
10
20
20
40
FE
38
ENDCHAR
STARTCHAR 1E95
ENCODING 7829
SWIDTH 480 0
DWIDTH 6 0
BBX 5 8 0 -1
BITMAP
78
08
10
30
20
40
F8
78
ENDCHAR
STARTCHAR 1E96
ENCODING 7830
SWIDTH 640 0
DWIDTH 8 0
BBX 6 11 1 -1
BITMAP
80
80
80
B8
CC
84
84
84
84
84
78
ENDCHAR
STARTCHAR 1E97
ENCODING 7831
SWIDTH 400 0
DWIDTH 5 0
BBX 4 11 0 0
BITMAP
90
00
40
40
F0
40
40
40
40
40
30
ENDCHAR
STARTCHAR 1E98
ENCODING 7832
SWIDTH 800 0
DWIDTH 10 0
BBX 10 11 0 0
BITMAP
0C00
1400
0C00
0000
8CC0
4C80
4C80
5280
5300
3300
2300
ENDCHAR
STARTCHAR 1E99
ENCODING 7833
SWIDTH 480 0
DWIDTH 6 0
BBX 6 14 0 -3
BITMAP
30
28
30
00
84
44
48
48
28
30
10
10
20
E0
ENDCHAR
STARTCHAR 1E9A
ENCODING 7834
SWIDTH 560 0
DWIDTH 7 0
BBX 6 10 1 0
BITMAP
04
04
04
F0
08
08
F8
88
98
E8
ENDCHAR
STARTCHAR 1E9B
ENCODING 7835
SWIDTH 320 0
DWIDTH 4 0
BBX 4 11 1 0
BITMAP
60
70
80
80
80
80
80
80
80
80
80
ENDCHAR
STARTCHAR 1E9C
ENCODING 7836
SWIDTH 320 0
DWIDTH 4 0
BBX 5 10 0 0
BITMAP
38
40
40
70
40
C0
40
40
40
40
ENDCHAR
STARTCHAR 1E9D
ENCODING 7837
SWIDTH 320 0
DWIDTH 4 0
BBX 5 10 0 0
BITMAP
38
40
40
F0
40
40
40
40
40
40
ENDCHAR
STARTCHAR 1E9E
ENCODING 7838
SWIDTH 720 0
DWIDTH 9 0
BBX 7 9 1 0
BITMAP
78
44
84
88
9C
82
82
82
BC
ENDCHAR
STARTCHAR 1E9F
ENCODING 7839
SWIDTH 640 0
DWIDTH 8 0
BBX 6 10 1 0
BITMAP
78
44
40
30
78
8C
84
84
8C
78
ENDCHAR
STARTCHAR 1EA0
ENCODING 7840
SWIDTH 640 0
DWIDTH 8 0
BBX 8 11 0 -2
BITMAP
18
18
18
24
24
7E
42
42
81
00
18
ENDCHAR
STARTCHAR 1EA1
ENCODING 7841
SWIDTH 560 0
DWIDTH 7 0
BBX 5 9 1 -2
BITMAP
F0
08
08
F8
88
98
E8
00
20
ENDCHAR
STARTCHAR 1EA2
ENCODING 7842
SWIDTH 640 0
DWIDTH 8 0
BBX 8 13 0 0
BITMAP
18
08
08
00
18
18
18
24
24
7E
42
42
81
ENDCHAR
STARTCHAR 1EA3
ENCODING 7843
SWIDTH 560 0
DWIDTH 7 0
BBX 5 11 1 0
BITMAP
30
10
20
00
F0
08
08
F8
88
98
E8
ENDCHAR
STARTCHAR 1EA4
ENCODING 7844
SWIDTH 640 0
DWIDTH 8 0
BBX 8 13 0 0
BITMAP
02
1A
2C
00
18
18
18
24
24
7E
42
42
81
ENDCHAR
STARTCHAR 1EA5
ENCODING 7845
SWIDTH 560 0
DWIDTH 7 0
BBX 6 11 1 0
BITMAP
04
28
50
00
F0
08
08
F8
88
98
E8
ENDCHAR
STARTCHAR 1EA6
ENCODING 7846
SWIDTH 640 0
DWIDTH 8 0
BBX 8 13 0 0
BITMAP
40
58
2C
00
18
18
18
24
24
7E
42
42
81
ENDCHAR
STARTCHAR 1EA7
ENCODING 7847
SWIDTH 560 0
DWIDTH 7 0
BBX 6 11 0 0
BITMAP
80
50
28
00
78
04
04
7C
44
4C
74
ENDCHAR
STARTCHAR 1EA8
ENCODING 7848
SWIDTH 640 0
DWIDTH 8 0
BBX 8 14 0 0
BITMAP
06
02
1C
2C
00
18
18
18
24
24
7E
42
42
81
ENDCHAR
STARTCHAR 1EA9
ENCODING 7849
SWIDTH 560 0
DWIDTH 7 0
BBX 5 11 1 0
BITMAP
08
28
50
00
F0
08
08
F8
88
98
E8
ENDCHAR
STARTCHAR 1EAA
ENCODING 7850
SWIDTH 640 0
DWIDTH 8 0
BBX 8 14 0 0
BITMAP
34
2C
18
24
00
18
18
18
24
24
7E
42
42
81
ENDCHAR
STARTCHAR 1EAB
ENCODING 7851
SWIDTH 560 0
DWIDTH 7 0
BBX 5 12 1 0
BITMAP
68
90
20
50
00
F0
08
08
F8
88
98
E8
ENDCHAR
STARTCHAR 1EAC
ENCODING 7852
SWIDTH 640 0
DWIDTH 8 0
BBX 8 14 0 -2
BITMAP
18
24
00
18
18
18
24
24
7E
42
42
81
00
18
ENDCHAR
STARTCHAR 1EAD
ENCODING 7853
SWIDTH 560 0
DWIDTH 7 0
BBX 5 12 1 -2
BITMAP
20
D8
00
F0
08
08
F8
88
98
E8
00
20
ENDCHAR
STARTCHAR 1EAE
ENCODING 7854
SWIDTH 640 0
DWIDTH 8 0
BBX 8 13 0 0
BITMAP
08
34
18
00
18
18
18
24
24
7E
42
42
81
ENDCHAR
STARTCHAR 1EAF
ENCODING 7855
SWIDTH 560 0
DWIDTH 7 0
BBX 5 11 1 0
BITMAP
30
50
70
00
F0
88
08
78
88
88
F8
ENDCHAR
STARTCHAR 1EB0
ENCODING 7856
SWIDTH 640 0
DWIDTH 8 0
BBX 8 13 0 0
BITMAP
30
2C
18
00
18
18
18
24
24
7E
42
42
81
ENDCHAR
STARTCHAR 1EB1
ENCODING 7857
SWIDTH 560 0
DWIDTH 7 0
BBX 5 11 1 0
BITMAP
60
50
70
00
F0
88
08
78
88
88
F8
ENDCHAR
STARTCHAR 1EB2
ENCODING 7858
SWIDTH 640 0
DWIDTH 8 0
BBX 8 14 0 0
BITMAP
18
08
24
18
00
18
18
18
24
24
7E
42
42
81
ENDCHAR
STARTCHAR 1EB3
ENCODING 7859
SWIDTH 560 0
DWIDTH 7 0
BBX 5 11 1 0
BITMAP
20
50
70
00
F0
88
08
78
88
88
F8
ENDCHAR
STARTCHAR 1EB4
ENCODING 7860
SWIDTH 640 0
DWIDTH 8 0
BBX 8 14 0 0
BITMAP
34
2C
24
18
00
18
18
18
24
24
7E
42
42
81
ENDCHAR
STARTCHAR 1EB5
ENCODING 7861
SWIDTH 560 0
DWIDTH 7 0
BBX 5 11 1 0
BITMAP
78
50
70
00
F0
88
08
78
88
88
F8
ENDCHAR
STARTCHAR 1EB6
ENCODING 7862
SWIDTH 640 0
DWIDTH 8 0
BBX 8 14 0 -2
BITMAP
24
18
00
18
18
18
24
24
7E
42
42
81
00
18
ENDCHAR
STARTCHAR 1EB7
ENCODING 7863
SWIDTH 560 0
DWIDTH 7 0
BBX 5 12 1 -2
BITMAP
88
70
00
F0
08
08
F8
88
98
E8
00
20
ENDCHAR
STARTCHAR 1EB8
ENCODING 7864
SWIDTH 560 0
DWIDTH 7 0
BBX 5 11 1 -2
BITMAP
F8
80
80
80
F8
80
80
80
F8
00
20
ENDCHAR
STARTCHAR 1EB9
ENCODING 7865
SWIDTH 560 0
DWIDTH 7 0
BBX 5 9 1 -2
BITMAP
70
88
88
F8
80
80
78
00
20
ENDCHAR
STARTCHAR 1EBA
ENCODING 7866
SWIDTH 560 0
DWIDTH 7 0
BBX 5 13 1 0
BITMAP
30
10
20
00
F8
80
80
80
F8
80
80
80
F8
ENDCHAR
STARTCHAR 1EBB
ENCODING 7867
SWIDTH 560 0
DWIDTH 7 0
BBX 5 11 1 0
BITMAP
30
10
20
00
70
88
88
F8
80
80
78
ENDCHAR
STARTCHAR 1EBC
ENCODING 7868
SWIDTH 560 0
DWIDTH 7 0
BBX 5 12 1 0
BITMAP
68
98
00
F8
80
80
80
F8
80
80
80
F8
ENDCHAR
STARTCHAR 1EBD
ENCODING 7869
SWIDTH 560 0
DWIDTH 7 0
BBX 5 10 1 0
BITMAP
68
90
00
70
88
88
F8
80
80
78
ENDCHAR
STARTCHAR 1EBE
ENCODING 7870
SWIDTH 560 0
DWIDTH 7 0
BBX 6 13 1 0
BITMAP
04
28
58
00
F8
80
80
80
F8
80
80
80
F8
ENDCHAR
STARTCHAR 1EBF
ENCODING 7871
SWIDTH 560 0
DWIDTH 7 0
BBX 6 11 1 0
BITMAP
04
28
50
08
70
88
88
F8
80
80
78
ENDCHAR
STARTCHAR 1EC0
ENCODING 7872
SWIDTH 560 0
DWIDTH 7 0
BBX 6 13 0 0
BITMAP
C0
50
2C
00
7C
40
40
40
7C
40
40
40
7C
ENDCHAR
STARTCHAR 1EC1
ENCODING 7873
SWIDTH 560 0
DWIDTH 7 0
BBX 6 11 0 0
BITMAP
80
58
2C
00
38
44
44
7C
40
40
3C
ENDCHAR
STARTCHAR 1EC2
ENCODING 7874
SWIDTH 560 0
DWIDTH 7 0
BBX 6 14 1 0
BITMAP
08
04
28
50
08
F8
80
80
80
F8
80
80
80
F8
ENDCHAR
STARTCHAR 1EC3
ENCODING 7875
SWIDTH 560 0
DWIDTH 7 0
BBX 6 12 1 0
BITMAP
08
04
28
50
00
70
88
88
F8
80
80
78
ENDCHAR
STARTCHAR 1EC4
ENCODING 7876
SWIDTH 560 0
DWIDTH 7 0
BBX 5 14 1 0
BITMAP
68
50
20
58
00
F8
80
80
80
F8
80
80
80
F8
ENDCHAR
STARTCHAR 1EC5
ENCODING 7877
SWIDTH 560 0
DWIDTH 7 0
BBX 5 12 1 0
BITMAP
68
90
20
50
00
70
88
88
F8
80
80
78
ENDCHAR
STARTCHAR 1EC6
ENCODING 7878
SWIDTH 560 0
DWIDTH 7 0
BBX 5 14 1 -2
BITMAP
30
58
00
F8
80
80
80
F8
80
80
80
F8
00
20
ENDCHAR
STARTCHAR 1EC7
ENCODING 7879
SWIDTH 560 0
DWIDTH 7 0
BBX 5 12 1 -2
BITMAP
20
D8
00
70
88
88
F8
80
80
78
00
20
ENDCHAR
STARTCHAR 1EC8
ENCODING 7880
SWIDTH 320 0
DWIDTH 4 0
BBX 4 13 0 0
BITMAP
60
10
20
00
F0
20
20
20
20
20
20
20
F0
ENDCHAR
STARTCHAR 1EC9
ENCODING 7881
SWIDTH 240 0
DWIDTH 3 0
BBX 2 11 1 0
BITMAP
C0
40
80
00
80
80
80
80
80
80
80
ENDCHAR
STARTCHAR 1ECA
ENCODING 7882
SWIDTH 320 0
DWIDTH 4 0
BBX 4 11 0 -2
BITMAP
F0
20
20
20
20
20
20
20
F0
00
60
ENDCHAR
STARTCHAR 1ECB
ENCODING 7883
SWIDTH 240 0
DWIDTH 3 0
BBX 1 12 1 -2
BITMAP
80
00
00
80
80
80
80
80
80
80
00
80
ENDCHAR
STARTCHAR 1ECC
ENCODING 7884
SWIDTH 800 0
DWIDTH 10 0
BBX 8 11 1 -2
BITMAP
3C
42
83
81
81
81
83
42
3C
00
18
ENDCHAR
STARTCHAR 1ECD
ENCODING 7885
SWIDTH 640 0
DWIDTH 8 0
BBX 6 9 1 -2
BITMAP
78
88
84
84
84
88
78
00
20
ENDCHAR
STARTCHAR 1ECE
ENCODING 7886
SWIDTH 800 0
DWIDTH 10 0
BBX 8 13 1 0
BITMAP
18
08
18
10
3C
42
83
81
81
81
83
42
3C
ENDCHAR
STARTCHAR 1ECF
ENCODING 7887
SWIDTH 640 0
DWIDTH 8 0
BBX 6 11 1 0
BITMAP
30
10
20
00
78
88
84
84
84
88
78
ENDCHAR
STARTCHAR 1ED0
ENCODING 7888
SWIDTH 800 0
DWIDTH 10 0
BBX 8 13 1 0
BITMAP
02
1C
2C
00
3C
42
83
81
81
81
83
42
3C
ENDCHAR
STARTCHAR 1ED1
ENCODING 7889
SWIDTH 640 0
DWIDTH 8 0
BBX 6 11 1 0
BITMAP
04
38
58
00
78
88
84
84
84
88
78
ENDCHAR
STARTCHAR 1ED2
ENCODING 7890
SWIDTH 800 0
DWIDTH 10 0
BBX 8 13 1 0
BITMAP
40
58
2C
00
3C
42
83
81
81
81
83
42
3C
ENDCHAR
STARTCHAR 1ED3
ENCODING 7891
SWIDTH 640 0
DWIDTH 8 0
BBX 6 11 1 0
BITMAP
80
B0
58
00
78
88
84
84
84
88
78
ENDCHAR
STARTCHAR 1ED4
ENCODING 7892
SWIDTH 800 0
DWIDTH 10 0
BBX 8 14 1 0
BITMAP
06
02
1C
28
04
3C
42
83
81
81
81
83
42
3C
ENDCHAR
STARTCHAR 1ED5
ENCODING 7893
SWIDTH 640 0
DWIDTH 8 0
BBX 6 12 1 0
BITMAP
0C
04
38
58
00
78
88
84
84
84
88
78
ENDCHAR
STARTCHAR 1ED6
ENCODING 7894
SWIDTH 800 0
DWIDTH 10 0
BBX 8 14 1 0
BITMAP
34
28
18
2C
00
3C
42
83
81
81
81
83
42
3C
ENDCHAR
STARTCHAR 1ED7
ENCODING 7895
SWIDTH 640 0
DWIDTH 8 0
BBX 6 12 1 0
BITMAP
68
50
30
58
00
78
88
84
84
84
88
78
ENDCHAR
STARTCHAR 1ED8
ENCODING 7896
SWIDTH 800 0
DWIDTH 10 0
BBX 8 14 1 -2
BITMAP
18
24
00
3C
42
83
81
81
81
83
42
3C
00
18
ENDCHAR
STARTCHAR 1ED9
ENCODING 7897
SWIDTH 640 0
DWIDTH 8 0
BBX 6 12 1 -2
BITMAP
30
58
00
78
88
84
84
84
88
78
00
20
ENDCHAR
STARTCHAR 1EDA
ENCODING 7898
SWIDTH 800 0
DWIDTH 10 0
BBX 9 12 1 0
BITMAP
0C00
1000
0080
3C80
4300
8300
8100
8100
8100
8300
4200
3C00
ENDCHAR
STARTCHAR 1EDB
ENCODING 7899
SWIDTH 640 0
DWIDTH 8 0
BBX 7 10 1 0
BITMAP
18
20
02
7A
8C
84
84
84
88
78
ENDCHAR
STARTCHAR 1EDC
ENCODING 7900
SWIDTH 800 0
DWIDTH 10 0
BBX 9 12 1 0
BITMAP
3000
1800
0080
3C80
4300
8300
8100
8100
8100
8300
4200
3C00
ENDCHAR
STARTCHAR 1EDD
ENCODING 7901
SWIDTH 640 0
DWIDTH 8 0
BBX 7 10 1 0
BITMAP
60
30
02
7A
8C
84
84
84
88
78
ENDCHAR
STARTCHAR 1EDE
ENCODING 7902
SWIDTH 800 0
DWIDTH 10 0
BBX 9 13 1 0
BITMAP
1800
0800
1000
0080
3C80
4300
8300
8100
8100
8100
8300
4200
3C00
ENDCHAR
STARTCHAR 1EDF
ENCODING 7903
SWIDTH 640 0
DWIDTH 8 0
BBX 7 11 1 0
BITMAP
30
10
20
02
7A
8C
84
84
84
88
78
ENDCHAR
STARTCHAR 1EE0
ENCODING 7904
SWIDTH 800 0
DWIDTH 10 0
BBX 9 12 1 0
BITMAP
3400
4C00
0080
3C80
4300
8300
8100
8100
8100
8300
4200
3C00
ENDCHAR
STARTCHAR 1EE1
ENCODING 7905
SWIDTH 640 0
DWIDTH 8 0
BBX 7 10 1 0
BITMAP
68
98
02
7A
8C
84
84
84
88
78
ENDCHAR
STARTCHAR 1EE2
ENCODING 7906
SWIDTH 800 0
DWIDTH 10 0
BBX 9 12 1 -2
BITMAP
0080
3C80
4300
8300
8100
8100
8100
8300
4200
3C00
0000
1800
ENDCHAR
STARTCHAR 1EE3
ENCODING 7907
SWIDTH 640 0
DWIDTH 8 0
BBX 7 10 1 -2
BITMAP
02
7A
8C
84
84
84
88
78
00
20
ENDCHAR
STARTCHAR 1EE4
ENCODING 7908
SWIDTH 720 0
DWIDTH 9 0
BBX 7 11 1 -2
BITMAP
82
82
82
82
82
82
82
46
7C
00
10
ENDCHAR
STARTCHAR 1EE5
ENCODING 7909
SWIDTH 640 0
DWIDTH 8 0
BBX 6 9 1 -2
BITMAP
84
84
84
84
8C
8C
74
00
20
ENDCHAR
STARTCHAR 1EE6
ENCODING 7910
SWIDTH 720 0
DWIDTH 9 0
BBX 7 13 1 0
BITMAP
18
08
10
00
82
82
82
82
82
82
82
46
7C
ENDCHAR
STARTCHAR 1EE7
ENCODING 7911
SWIDTH 640 0
DWIDTH 8 0
BBX 6 11 1 0
BITMAP
30
10
20
00
84
84
84
84
8C
8C
74
ENDCHAR
STARTCHAR 1EE8
ENCODING 7912
SWIDTH 800 0
DWIDTH 10 0
BBX 9 12 1 0
BITMAP
0800
1000
0080
8280
8300
8200
8200
8200
8200
8200
4600
3C00
ENDCHAR
STARTCHAR 1EE9
ENCODING 7913
SWIDTH 640 0
DWIDTH 8 0
BBX 8 10 1 0
BITMAP
18
20
01
86
84
84
84
8C
8C
74
ENDCHAR
STARTCHAR 1EEA
ENCODING 7914
SWIDTH 800 0
DWIDTH 10 0
BBX 9 12 1 0
BITMAP
3000
1000
0080
8280
8300
8200
8200
8200
8200
8200
4600
3C00
ENDCHAR
STARTCHAR 1EEB
ENCODING 7915
SWIDTH 640 0
DWIDTH 8 0
BBX 8 10 1 0
BITMAP
60
30
01
86
84
84
84
8C
8C
74
ENDCHAR
STARTCHAR 1EEC
ENCODING 7916
SWIDTH 800 0
DWIDTH 10 0
BBX 9 13 1 0
BITMAP
1800
0800
1000
0080
8280
8300
8200
8200
8200
8200
8200
4600
3C00
ENDCHAR
STARTCHAR 1EED
ENCODING 7917
SWIDTH 640 0
DWIDTH 8 0
BBX 8 11 1 0
BITMAP
30
10
20
01
86
84
84
84
8C
8C
74
ENDCHAR
STARTCHAR 1EEE
ENCODING 7918
SWIDTH 800 0
DWIDTH 10 0
BBX 9 12 1 0
BITMAP
3400
4800
0080
8280
8300
8200
8200
8200
8200
8200
4600
3C00
ENDCHAR
STARTCHAR 1EEF
ENCODING 7919
SWIDTH 640 0
DWIDTH 8 0
BBX 8 10 1 0
BITMAP
68
98
01
86
84
84
84
8C
8C
74
ENDCHAR
STARTCHAR 1EF0
ENCODING 7920
SWIDTH 800 0
DWIDTH 10 0
BBX 9 12 1 -2
BITMAP
0080
8280
8300
8200
8200
8200
8200
8200
4600
3C00
0000
1000
ENDCHAR
STARTCHAR 1EF1
ENCODING 7921
SWIDTH 640 0
DWIDTH 8 0
BBX 8 10 1 -2
BITMAP
01
86
84
84
84
8C
8C
74
00
20
ENDCHAR
STARTCHAR 1EF2
ENCODING 7922
SWIDTH 560 0
DWIDTH 7 0
BBX 7 12 0 0
BITMAP
20
10
00
82
44
64
28
38
10
10
10
10
ENDCHAR
STARTCHAR 1EF3
ENCODING 7923
SWIDTH 480 0
DWIDTH 6 0
BBX 6 13 0 -3
BITMAP
20
10
00
84
44
48
48
28
30
10
10
20
E0
ENDCHAR
STARTCHAR 1EF4
ENCODING 7924
SWIDTH 560 0
DWIDTH 7 0
BBX 7 11 0 -2
BITMAP
82
44
64
28
38
10
10
10
10
00
10
ENDCHAR
STARTCHAR 1EF5
ENCODING 7925
SWIDTH 480 0
DWIDTH 6 0
BBX 6 10 0 -3
BITMAP
84
44
48
48
28
30
10
10
28
E0
ENDCHAR
STARTCHAR 1EF6
ENCODING 7926
SWIDTH 560 0
DWIDTH 7 0
BBX 7 13 0 0
BITMAP
18
08
10
00
82
44
64
28
38
10
10
10
10
ENDCHAR
STARTCHAR 1EF7
ENCODING 7927
SWIDTH 480 0
DWIDTH 6 0
BBX 6 14 0 -3
BITMAP
30
08
10
00
84
44
48
48
28
30
10
10
20
E0
ENDCHAR
STARTCHAR 1EF8
ENCODING 7928
SWIDTH 560 0
DWIDTH 7 0
BBX 7 12 0 0
BITMAP
34
48
00
82
44
64
28
38
10
10
10
10
ENDCHAR
STARTCHAR 1EF9
ENCODING 7929
SWIDTH 480 0
DWIDTH 6 0
BBX 6 13 0 -3
BITMAP
64
58
00
84
44
48
48
28
30
10
10
20
E0
ENDCHAR
STARTCHAR 1EFA
ENCODING 7930
SWIDTH 800 0
DWIDTH 10 0
BBX 8 9 1 0
BITMAP
90
90
90
90
90
90
90
90
9F
ENDCHAR
STARTCHAR 1EFB
ENCODING 7931
SWIDTH 480 0
DWIDTH 6 0
BBX 6 10 0 0
BITMAP
48
48
FC
48
48
48
48
48
48
48
ENDCHAR
STARTCHAR 1EFC
ENCODING 7932
SWIDTH 720 0
DWIDTH 9 0
BBX 7 9 1 0
BITMAP
30
40
9C
82
82
82
82
46
3C
ENDCHAR
STARTCHAR 1EFD
ENCODING 7933
SWIDTH 560 0
DWIDTH 7 0
BBX 6 10 1 0
BITMAP
10
20
40
C0
B8
8C
84
84
8C
78
ENDCHAR
STARTCHAR 1EFE
ENCODING 7934
SWIDTH 640 0
DWIDTH 8 0
BBX 8 9 0 0
BITMAP
C3
42
24
24
18
38
50
90
60
ENDCHAR
STARTCHAR 1EFF
ENCODING 7935
SWIDTH 480 0
DWIDTH 6 0
BBX 6 10 0 -3
BITMAP
C4
44
4C
28
28
30
30
D0
A0
E0
ENDCHAR
STARTCHAR 1F00
ENCODING 7936
SWIDTH 640 0
DWIDTH 8 0
BBX 7 10 1 0
BITMAP
30
20
00
74
8C
8C
84
8C
8C
76
ENDCHAR
STARTCHAR 1F01
ENCODING 7937
SWIDTH 640 0
DWIDTH 8 0
BBX 7 10 1 0
BITMAP
20
30
00
74
8C
8C
84
8C
8C
76
ENDCHAR
STARTCHAR 1F02
ENCODING 7938
SWIDTH 640 0
DWIDTH 8 0
BBX 7 10 1 0
BITMAP
70
68
00
74
8C
8C
84
8C
8C
76
ENDCHAR
STARTCHAR 1F03
ENCODING 7939
SWIDTH 640 0
DWIDTH 8 0
BBX 7 10 1 0
BITMAP
70
68
00
74
8C
8C
84
8C
8C
76
ENDCHAR
STARTCHAR 1F04
ENCODING 7940
SWIDTH 640 0
DWIDTH 8 0
BBX 7 10 1 0
BITMAP
28
70
00
74
8C
8C
84
8C
8C
76
ENDCHAR
STARTCHAR 1F05
ENCODING 7941
SWIDTH 640 0
DWIDTH 8 0
BBX 7 10 1 0
BITMAP
68
30
00
74
8C
8C
84
8C
8C
76
ENDCHAR
STARTCHAR 1F06
ENCODING 7942
SWIDTH 640 0
DWIDTH 8 0
BBX 7 11 1 0
BITMAP
68
58
30
20
74
8C
8C
84
8C
8C
76
ENDCHAR
STARTCHAR 1F07
ENCODING 7943
SWIDTH 640 0
DWIDTH 8 0
BBX 7 11 1 0
BITMAP
68
98
20
20
74
8C
8C
84
8C
8C
76
ENDCHAR
STARTCHAR 1F08
ENCODING 7944
SWIDTH 640 0
DWIDTH 8 0
BBX 8 9 0 0
BITMAP
D8
98
18
24
24
7E
42
42
81
ENDCHAR
STARTCHAR 1F09
ENCODING 7945
SWIDTH 640 0
DWIDTH 8 0
BBX 8 9 0 0
BITMAP
D8
58
18
24
24
7E
42
42
81
ENDCHAR
STARTCHAR 1F0A
ENCODING 7946
SWIDTH 720 0
DWIDTH 9 0
BBX 9 9 0 0
BITMAP
A400
AC00
0A00
1200
1300
1F00
2100
2080
6080
ENDCHAR
STARTCHAR 1F0B
ENCODING 7947
SWIDTH 720 0
DWIDTH 9 0
BBX 9 9 0 0
BITMAP
A400
AC00
0A00
1A00
1100
1F00
2100
2080
6080
ENDCHAR
STARTCHAR 1F0C
ENCODING 7948
SWIDTH 720 0
DWIDTH 9 0
BBX 9 9 0 0
BITMAP
AC00
AC00
0C00
1200
1200
3F00
2100
2100
4080
ENDCHAR
STARTCHAR 1F0D
ENCODING 7949
SWIDTH 720 0
DWIDTH 9 0
BBX 9 9 0 0
BITMAP
AC00
AC00
0C00
1200
1200
3F00
2100
2100
4080
ENDCHAR
STARTCHAR 1F0E
ENCODING 7950
SWIDTH 720 0
DWIDTH 9 0
BBX 9 10 0 0
BITMAP
D000
BC00
6C00
4E00
1200
1200
3F00
2100
2100
4080
ENDCHAR
STARTCHAR 1F0F
ENCODING 7951
SWIDTH 720 0
DWIDTH 9 0
BBX 9 10 0 0
BITMAP
D000
BC00
6C00
2E00
1200
1200
3F00
2100
2100
4080
ENDCHAR
STARTCHAR 1F10
ENCODING 7952
SWIDTH 480 0
DWIDTH 6 0
BBX 5 10 1 0
BITMAP
20
20
00
F8
80
80
60
80
80
F8
ENDCHAR
STARTCHAR 1F11
ENCODING 7953
SWIDTH 480 0
DWIDTH 6 0
BBX 5 10 1 0
BITMAP
20
20
00
F8
80
80
60
80
80
F8
ENDCHAR
STARTCHAR 1F12
ENCODING 7954
SWIDTH 480 0
DWIDTH 6 0
BBX 5 10 1 0
BITMAP
70
50
00
F8
80
80
60
80
80
F8
ENDCHAR
STARTCHAR 1F13
ENCODING 7955
SWIDTH 480 0
DWIDTH 6 0
BBX 5 10 1 0
BITMAP
70
50
00
F8
80
80
60
80
80
F8
ENDCHAR
STARTCHAR 1F14
ENCODING 7956
SWIDTH 480 0
DWIDTH 6 0
BBX 5 10 1 0
BITMAP
50
50
00
F8
80
80
60
80
80
F8
ENDCHAR
STARTCHAR 1F15
ENCODING 7957
SWIDTH 480 0
DWIDTH 6 0
BBX 5 10 1 0
BITMAP
50
50
00
F8
80
80
60
80
80
F8
ENDCHAR
STARTCHAR 1F18
ENCODING 7960
SWIDTH 640 0
DWIDTH 8 0
BBX 7 9 0 0
BITMAP
BE
A0
20
20
3E
20
20
20
3E
ENDCHAR
STARTCHAR 1F19
ENCODING 7961
SWIDTH 640 0
DWIDTH 8 0
BBX 7 9 0 0
BITMAP
BE
A0
20
20
3E
20
20
20
3E
ENDCHAR
STARTCHAR 1F1A
ENCODING 7962
SWIDTH 800 0
DWIDTH 10 0
BBX 9 9 0 0
BITMAP
AF80
A800
0800
0800
0F80
0800
0800
0800
0F80
ENDCHAR
STARTCHAR 1F1B
ENCODING 7963
SWIDTH 800 0
DWIDTH 10 0
BBX 9 9 0 0
BITMAP
AF80
A800
0800
0800
0F80
0800
0800
0800
0F80
ENDCHAR
STARTCHAR 1F1C
ENCODING 7964
SWIDTH 800 0
DWIDTH 10 0
BBX 9 9 0 0
BITMAP
AF80
A800
0800
0800
0F80
0800
0800
0800
0F80
ENDCHAR
STARTCHAR 1F1D
ENCODING 7965
SWIDTH 800 0
DWIDTH 10 0
BBX 9 9 0 0
BITMAP
AF80
A800
0800
0800
0F80
0800
0800
0800
0F80
ENDCHAR
STARTCHAR 1F20
ENCODING 7968
SWIDTH 640 0
DWIDTH 8 0
BBX 6 13 1 -3
BITMAP
30
30
00
B8
CC
84
84
84
84
84
04
04
04
ENDCHAR
STARTCHAR 1F21
ENCODING 7969
SWIDTH 640 0
DWIDTH 8 0
BBX 6 13 1 -3
BITMAP
30
10
00
B8
CC
84
84
84
84
84
04
04
04
ENDCHAR
STARTCHAR 1F22
ENCODING 7970
SWIDTH 640 0
DWIDTH 8 0
BBX 6 13 1 -3
BITMAP
30
68
00
B8
CC
84
84
84
84
84
04
04
04
ENDCHAR
STARTCHAR 1F23
ENCODING 7971
SWIDTH 640 0
DWIDTH 8 0
BBX 6 13 1 -3
BITMAP
70
28
00
B8
CC
84
84
84
84
84
04
04
04
ENDCHAR
STARTCHAR 1F24
ENCODING 7972
SWIDTH 640 0
DWIDTH 8 0
BBX 6 13 1 -3
BITMAP
28
30
00
B8
CC
84
84
84
84
84
04
04
04
ENDCHAR
STARTCHAR 1F25
ENCODING 7973
SWIDTH 640 0
DWIDTH 8 0
BBX 6 13 1 -3
BITMAP
28
30
00
B8
CC
84
84
84
84
84
04
04
04
ENDCHAR
STARTCHAR 1F26
ENCODING 7974
SWIDTH 640 0
DWIDTH 8 0
BBX 6 14 1 -3
BITMAP
64
58
30
20
B8
CC
84
84
84
84
84
04
04
04
ENDCHAR
STARTCHAR 1F27
ENCODING 7975
SWIDTH 640 0
DWIDTH 8 0
BBX 6 14 1 -3
BITMAP
68
58
30
10
B8
CC
84
84
84
84
84
04
04
04
ENDCHAR
STARTCHAR 1F28
ENCODING 7976
SWIDTH 800 0
DWIDTH 10 0
BBX 9 9 0 0
BITMAP
A080
A080
2080
2080
3F80
2080
2080
2080
2080
ENDCHAR
STARTCHAR 1F29
ENCODING 7977
SWIDTH 800 0
DWIDTH 10 0
BBX 9 9 0 0
BITMAP
A080
A080
2080
2080
3F80
2080
2080
2080
2080
ENDCHAR
STARTCHAR 1F2A
ENCODING 7978
SWIDTH 960 0
DWIDTH 12 0
BBX 11 9 0 0
BITMAP
A820
A820
0820
0820
0FE0
0820
0820
0820
0820
ENDCHAR
STARTCHAR 1F2B
ENCODING 7979
SWIDTH 960 0
DWIDTH 12 0
BBX 11 9 0 0
BITMAP
A820
A820
0820
0820
0FE0
0820
0820
0820
0820
ENDCHAR
STARTCHAR 1F2C
ENCODING 7980
SWIDTH 960 0
DWIDTH 12 0
BBX 11 9 0 0
BITMAP
A820
A820
0820
0820
0FE0
0820
0820
0820
0820
ENDCHAR
STARTCHAR 1F2D
ENCODING 7981
SWIDTH 960 0
DWIDTH 12 0
BBX 11 9 0 0
BITMAP
A820
A820
0820
0820
0FE0
0820
0820
0820
0820
ENDCHAR
STARTCHAR 1F2E
ENCODING 7982
SWIDTH 960 0
DWIDTH 12 0
BBX 11 10 0 0
BITMAP
D000
B820
6820
4820
0820
0FE0
0820
0820
0820
0820
ENDCHAR
STARTCHAR 1F2F
ENCODING 7983
SWIDTH 960 0
DWIDTH 12 0
BBX 11 10 0 0
BITMAP
D000
B820
6820
2820
0820
0FE0
0820
0820
0820
0820
ENDCHAR
STARTCHAR 1F30
ENCODING 7984
SWIDTH 320 0
DWIDTH 4 0
BBX 3 10 1 0
BITMAP
80
80
00
80
80
80
80
80
80
60
ENDCHAR
STARTCHAR 1F31
ENCODING 7985
SWIDTH 320 0
DWIDTH 4 0
BBX 3 10 1 0
BITMAP
80
80
00
80
80
80
80
80
80
60
ENDCHAR
STARTCHAR 1F32
ENCODING 7986
SWIDTH 320 0
DWIDTH 4 0
BBX 4 10 0 0
BITMAP
A0
A0
00
40
40
40
40
40
40
30
ENDCHAR
STARTCHAR 1F33
ENCODING 7987
SWIDTH 320 0
DWIDTH 4 0
BBX 4 10 0 0
BITMAP
A0
A0
00
40
40
40
40
40
40
30
ENDCHAR
STARTCHAR 1F34
ENCODING 7988
SWIDTH 320 0
DWIDTH 4 0
BBX 4 10 0 0
BITMAP
F0
E0
00
40
40
40
40
40
40
30
ENDCHAR
STARTCHAR 1F35
ENCODING 7989
SWIDTH 320 0
DWIDTH 4 0
BBX 4 10 0 0
BITMAP
F0
E0
00
40
40
40
40
40
40
30
ENDCHAR
STARTCHAR 1F36
ENCODING 7990
SWIDTH 320 0
DWIDTH 4 0
BBX 5 11 -1 0
BITMAP
68
90
20
20
20
20
20
20
20
20
18
ENDCHAR
STARTCHAR 1F37
ENCODING 7991
SWIDTH 320 0
DWIDTH 4 0
BBX 5 11 -1 0
BITMAP
68
90
20
20
20
20
20
20
20
20
18
ENDCHAR
STARTCHAR 1F38
ENCODING 7992
SWIDTH 480 0
DWIDTH 6 0
BBX 5 9 0 0
BITMAP
B8
90
10
10
10
10
10
10
38
ENDCHAR
STARTCHAR 1F39
ENCODING 7993
SWIDTH 480 0
DWIDTH 6 0
BBX 5 9 0 0
BITMAP
B8
90
10
10
10
10
10
10
38
ENDCHAR
STARTCHAR 1F3A
ENCODING 7994
SWIDTH 640 0
DWIDTH 8 0
BBX 7 9 0 0
BITMAP
AE
A4
04
04
04
04
04
04
0E
ENDCHAR
STARTCHAR 1F3B
ENCODING 7995
SWIDTH 560 0
DWIDTH 7 0
BBX 7 9 0 0
BITMAP
AE
A4
04
04
04
04
04
04
0E
ENDCHAR
STARTCHAR 1F3C
ENCODING 7996
SWIDTH 640 0
DWIDTH 8 0
BBX 7 9 0 0
BITMAP
AE
A4
04
04
04
04
04
04
0E
ENDCHAR
STARTCHAR 1F3D
ENCODING 7997
SWIDTH 640 0
DWIDTH 8 0
BBX 7 9 0 0
BITMAP
AE
A4
04
04
04
04
04
04
0E
ENDCHAR
STARTCHAR 1F3E
ENCODING 7998
SWIDTH 640 0
DWIDTH 8 0
BBX 7 10 0 0
BITMAP
D0
BE
64
44
04
04
04
04
04
0E
ENDCHAR
STARTCHAR 1F3F
ENCODING 7999
SWIDTH 640 0
DWIDTH 8 0
BBX 7 10 0 0
BITMAP
D0
BE
64
24
04
04
04
04
04
0E
ENDCHAR
STARTCHAR 1F40
ENCODING 8000
SWIDTH 640 0
DWIDTH 8 0
BBX 6 10 1 0
BITMAP
30
20
00
78
88
84
84
84
88
78
ENDCHAR
STARTCHAR 1F41
ENCODING 8001
SWIDTH 640 0
DWIDTH 8 0
BBX 6 10 1 0
BITMAP
20
20
00
78
88
84
84
84
88
78
ENDCHAR
STARTCHAR 1F42
ENCODING 8002
SWIDTH 640 0
DWIDTH 8 0
BBX 6 10 1 0
BITMAP
70
48
00
78
88
84
84
84
88
78
ENDCHAR
ENDFONT
